/* XPM */
static char *result[] = {
/* columns rows colors chars-per-pixel */
"64 64 6 1 ",
"  c black",
". c #79420C",
"X c #B35F0E",
"o c #CB8F18",
"O c #FFD145",
"+ c none",
/* pixels */
"++++++++++++++++++++++++++++++++++++++++++++++++++++++++++++++++",
"++++++++++++++++++++++++++++++++++++++++++++++++++++++++++++++++",
"++++++++++++++++++++++++++++++++++++++++++++++++++++++++++++++++",
"++++++++++++++++++++++++++++++++++++++++++++++++++++++++++++++++",
"++++++++++++++++++++++++++++++++++++++++++++++++++++++++++++++++",
"++++++++++++++++++++++++++++++++++++++++++++++++++++++++++++++++",
"++++++++++++++++++++++++++++++++++++++++++++++++++++++++++++++++",
"++++++++++++++++++++++++++++++++++++++++++++++++++++++++++++++++",
"++++++++++++++++++++                        ++++++++++++++++++++",
"++++++++++++++++++++                        ++++++++++++++++++++",
"++++++++++++++++++++                        ++++++++++++++++++++",
"++++++++++++++++++++                        ++++++++++++++++++++",
"++++++++++++++++    OOOOOOOOOOOOOOOOOOOOOOOO    ++++++++++++++++",
"++++++++++++++++    OOOOOOOOOOOOOOOOOOOOOOOO    ++++++++++++++++",
"++++++++++++++++    OOOOOOOOOOOOOOOOOOOOOOOO    ++++++++++++++++",
"++++++++++++++++    OOOOOOOOOOOOOOOOOOOOOOOO    ++++++++++++++++",
"++++++++++++    ....ooooOOOOOOOOOOOOOOOOoooo....    ++++++++++++",
"++++++++++++    ....ooooOOOOOOOOOOOOOOOOoooo....    ++++++++++++",
"++++++++++++    ....ooooOOOOOOOOOOOOOOOOoooo....    ++++++++++++",
"++++++++++++    ....ooooOOOOOOOOOOOOOOOOoooo....    ++++++++++++",
"++++++++++++    XXXXooooooooooooooooooooooooXXXX    ++++++++++++",
"++++++++++++    XXXXooooooooooooooooooooooooXXXX    ++++++++++++",
"++++++++++++    XXXXooooooooooooooooooooooooXXXX    ++++++++++++",
"++++++++++++    XXXXooooooooooooooooooooooooXXXX    ++++++++++++",
"++++++++++++    ooooOOOO                OOOOoooo    ++++++++++++",
"++++++++++++    ooooOOOO                OOOOoooo    ++++++++++++",
"++++++++++++    ooooOOOO                OOOOoooo    ++++++++++++",
"++++++++++++    ooooOOOO                OOOOoooo    ++++++++++++",
"++++++++++++    oooo    ++++++++++++++++    oooo    ++++++++++++",
"++++++++++++    oooo    ++++++++++++++++    oooo    ++++++++++++",
"++++++++++++    oooo    ++++++++++++++++    oooo    ++++++++++++",
"++++++++++++    oooo    ++++++++++++++++    oooo    ++++++++++++",
"++++++++++++    oooo    ++++++++++++++++    oooo    ++++++++++++",
"++++++++++++    oooo    ++++++++++++++++    oooo    ++++++++++++",
"++++++++++++    oooo    ++++++++++++++++    oooo    ++++++++++++",
"++++++++++++    oooo    ++++++++++++++++    oooo    ++++++++++++",
"++++++++++++    oooo    ++++++++++++++++    oooo    ++++++++++++",
"++++++++++++    oooo    ++++++++++++++++    oooo    ++++++++++++",
"++++++++++++    oooo    ++++++++++++++++    oooo    ++++++++++++",
"++++++++++++    oooo    ++++++++++++++++    oooo    ++++++++++++",
"++++++++++++    ooooOOOO                OOOOoooo    ++++++++++++",
"++++++++++++    ooooOOOO                OOOOoooo    ++++++++++++",
"++++++++++++    ooooOOOO                OOOOoooo    ++++++++++++",
"++++++++++++    ooooOOOO                OOOOoooo    ++++++++++++",
"++++++++++++    XXXXXXXX................XXXXXXXX    ++++++++++++",
"++++++++++++    XXXXXXXX................XXXXXXXX    ++++++++++++",
"++++++++++++    XXXXXXXX................XXXXXXXX    ++++++++++++",
"++++++++++++    XXXXXXXX................XXXXXXXX    ++++++++++++",
"++++++++++++++++    ....oooooooooooooooo....    ++++++++++++++++",
"++++++++++++++++    ....oooooooooooooooo....    ++++++++++++++++",
"++++++++++++++++    ....oooooooooooooooo....    ++++++++++++++++",
"++++++++++++++++    ....oooooooooooooooo....    ++++++++++++++++",
"++++++++++++++++++++                        ++++++++++++++++++++",
"++++++++++++++++++++                        ++++++++++++++++++++",
"++++++++++++++++++++                        ++++++++++++++++++++",
"++++++++++++++++++++                        ++++++++++++++++++++",
"++++++++++++++++++++++++++++++++++++++++++++++++++++++++++++++++",
"++++++++++++++++++++++++++++++++++++++++++++++++++++++++++++++++",
"++++++++++++++++++++++++++++++++++++++++++++++++++++++++++++++++",
"++++++++++++++++++++++++++++++++++++++++++++++++++++++++++++++++",
"++++++++++++++++++++++++++++++++++++++++++++++++++++++++++++++++",
"++++++++++++++++++++++++++++++++++++++++++++++++++++++++++++++++",
"++++++++++++++++++++++++++++++++++++++++++++++++++++++++++++++++",
"++++++++++++++++++++++++++++++++++++++++++++++++++++++++++++++++"
};
