/* XPM */
static char *result[] = {
/* columns rows colors chars-per-pixel */
"64 64 242 2 ",
"   c black",
".  c #010000",
"X  c #010100",
"o  c #030100",
"O  c #020200",
"+  c #000002",
"@  c #000003",
"#  c #040200",
"$  c #060200",
"%  c #070500",
"&  c #000004",
"*  c #000005",
"=  c #000105",
"-  c #000205",
";  c #000006",
":  c #000106",
">  c #000206",
",  c #010306",
"<  c #030406",
"1  c #080500",
"2  c #0C0800",
"3  c #1F0E00",
"4  c #18140F",
"5  c #1C190B",
"6  c #0F0F10",
"7  c #131110",
"8  c #131114",
"9  c #141315",
"0  c #161316",
"q  c #171416",
"w  c #191615",
"e  c #191715",
"r  c #1A1715",
"t  c #1B1715",
"y  c #181717",
"u  c #1D1816",
"i  c #1C1916",
"p  c #1D1916",
"a  c #1D1917",
"s  c #1E1A17",
"d  c #1F1A17",
"f  c #1F1B17",
"g  c #1F1B18",
"h  c #251301",
"j  c #251303",
"k  c #281500",
"l  c #23160B",
"z  c #291A0D",
"x  c #331A02",
"c  c #321F04",
"v  c #3A1F01",
"b  c #201B16",
"n  c #201B17",
"m  c #231D17",
"M  c #342303",
"N  c #352403",
"B  c #3B2003",
"V  c #3F2C06",
"C  c #35210D",
"Z  c #2C2218",
"A  c #2D251D",
"S  c #2B2520",
"D  c #2F2822",
"F  c #2E2823",
"G  c #2F2923",
"H  c #2F2924",
"J  c #302923",
"K  c #312A24",
"L  c #312B24",
"P  c #322B24",
"I  c #332C27",
"U  c #372F27",
"Y  c #342D28",
"T  c #372F29",
"R  c #37302A",
"E  c #3C332C",
"W  c #3F362E",
"Q  c #422B07",
"!  c #402C06",
"~  c #402D06",
"^  c #412D06",
"/  c #412D07",
"(  c #422F07",
")  c #4E2A07",
"_  c #4F2A07",
"`  c #562F0B",
"'  c #5E3109",
"]  c #63340A",
"[  c #64350A",
"{  c #65350A",
"}  c #67370A",
"|  c #683608",
" . c #723C0C",
".. c #793F09",
"X. c #413831",
"o. c #443B33",
"O. c #453B33",
"+. c #463B32",
"@. c #463B33",
"#. c #463C33",
"$. c #473C33",
"%. c #473D33",
"&. c #453B34",
"*. c #453C34",
"=. c #463C34",
"-. c #473C34",
";. c #473D34",
":. c #463C35",
">. c #463D35",
",. c #473D35",
"<. c #473E35",
"1. c #483D33",
"2. c #483D35",
"3. c #493F34",
"4. c #483E35",
"5. c #483E36",
"6. c #493E36",
"7. c #493F36",
"8. c #4B3F36",
"9. c #4A3F37",
"0. c #5B4C1F",
"q. c #5E4E1F",
"w. c #7B4209",
"e. c #7F4609",
"r. c #7D440D",
"t. c #4B4036",
"y. c #4A4037",
"u. c #4B4037",
"i. c #4B4038",
"p. c #4B4138",
"a. c #4C4138",
"s. c #4C4238",
"d. c #4C4239",
"f. c #4D4239",
"g. c #4E433A",
"h. c #514439",
"j. c #524539",
"k. c #51453A",
"l. c #52463B",
"z. c #53463B",
"x. c #52463C",
"c. c #53473C",
"v. c #54473C",
"b. c #54483D",
"n. c #56493E",
"m. c #7E6925",
"M. c #594B40",
"N. c #814309",
"B. c #8F4A0A",
"V. c #9A4F0B",
"C. c #8C510E",
"Z. c #8E520F",
"A. c #845B0E",
"S. c #95530F",
"D. c #9D530B",
"F. c #9A560D",
"G. c #965B0F",
"H. c #965C0F",
"J. c #955D10",
"K. c #965C10",
"L. c #A2540D",
"P. c #896010",
"I. c #8D6311",
"U. c #8E6311",
"Y. c #AD600E",
"T. c #BE670F",
"R. c #A36812",
"E. c #B16613",
"W. c #BE6C13",
"Q. c #AC7111",
"!. c #B07A13",
"~. c #B27C13",
"^. c #B37C13",
"/. c #BA7913",
"(. c #846E27",
"). c #957A26",
"_. c #967A26",
"`. c #987C27",
"'. c #967D2C",
"]. c #A37F21",
"[. c #C66E10",
"{. c #C06F14",
"}. c #C57111",
"|. c #C97011",
" X c #B98216",
".X c #B98316",
"XX c #BB8416",
"oX c #BC8416",
"OX c #9C8028",
"+X c #A88222",
"@X c #AF8625",
"#X c #C08312",
"$X c #C58317",
"%X c #C58915",
"&X c #CA8D16",
"*X c #CC8D16",
"=X c #C18918",
"-X c #CB911B",
";X c #CA921B",
":X c #CE9118",
">X c #CE9319",
",X c #CC921B",
"<X c #CD931B",
"1X c #D29418",
"2X c #D39418",
"3X c #D29419",
"4X c #D39519",
"5X c #D1971B",
"6X c #D49619",
"7X c #D49A1E",
"8X c #D89A19",
"9X c #D8981A",
"0X c #D89B1E",
"qX c #D99C1E",
"wX c #DFA626",
"eX c #DAB23B",
"rX c #DAB43E",
"tX c #DCB43C",
"yX c #DDB43C",
"uX c #E0A727",
"iX c #E0A827",
"pX c #E1A827",
"aX c #E2A928",
"sX c #E0AA2B",
"dX c #EDBA35",
"fX c #E0B83E",
"gX c #FCC639",
"hX c #FDCB3E",
"jX c #FFCC3C",
"kX c #ECC242",
"lX c #F4C842",
"zX c #F5C942",
"xX c #FACD43",
"cX c #FCCF45",
"vX c #FDD045",
"bX c #FFD345",
"nX c #FED146",
"mX c #FFD646",
"MX c #FFD747",
"NX c #FFD548",
"BX c #FFE94B",
"VX c #FFE84C",
/* pixels */
",.,.,.,.,.,.,.,.,.,.,.,.,.,.,.,.,.,.,.,.,.,.,.,.,.,.,.,.,.,.,.,.,.,.,.,.,.,.,.,.,.,.,.,.,.,.,.,.,.,.,.,.,.,.,.,.,.,.,.,.,.,.,.,.",
",.,.,.,.,.,.,.,.,.,.,.,.,.,.,.,.,.,.,.,.,.,.,.,.,.,.,.,.,.,.,.,.,.,.,.,.,.,.,.=.,.,.,.,.=.,.,.,.,.,.,.,.,.,.,.,.,.,.,.,.,.,.,.,.",
",.,.,.,.,.,.,.,.,.,.,.,.,.,.,.,.,.,.,.,.,.,.,.,.,.,.,.,.,.,.,.,.,.,.,.,.,.,.=.,.=.=.=.=.,.=.,.,.,.,.,.,.,.,.,.,.,.,.,.,.,.,.,.,.",
",.,.,.,.,.,.,.,.,.,.,.,.,.,.,.,.,.,.=.,.,.,.,.,.,.,.,.=.,.,.,.,.,.,.,.,.,.=.,.,.,.4.4.,.,.,.=.,.,.,.,.,.,.,.,.,.,.,.,.,.,.,.,.,.",
",.,.,.,.,.,.,.,.,.,.,.,.,.,.,.,.,.=.>.-.=.=.-.-.=.=.-.>.=.,.,.,.,.,.,.,.=.,.,.=.,.l.l.,.=.,.,.=.,.,.,.,.,.,.,.,.,.,.,.,.,.,.,.,.",
",.,.,.,.,.,.,.,.,.,.,.,.,.,.,.,.=.,.,.>.,.,.,.,.,.,.>.,.,.=.,.,.,.,.,.,.,.=.,.,.7.l.l.7.,.,.=.,.,.,.,.,.,.,.,.,.,.,.,.,.,.,.,.,.",
",.,.,.,.,.,.,.,.,.,.,.,.,.,.,.=.>.,.=.,.f.f.,.,.f.f.,.=.,.>.=.,.,.,.,.,.,.=.4.l.z.7.7.z.l.4.=.,.,.,.,.,.,.,.,.,.,.,.,.,.,.,.,.,.",
",.,.,.,.,.,.,.,.,.,.,.,.,.,.,.,.-.>.,.4.f.f.2.2.f.f.4.,.>.-.,.,.,.,.,.,.,.=.4.l.l.,.,.l.l.4.=.,.,.,.,.,.,.,.,.,.,.,.,.,.,.,.,.,.",
",.,.,.,.,.,.,.,.,.,.,.,.,.,.,.,.=.,.f.f.2.2.f.f.2.2.f.f.,.=.,.,.,.,.,.,.,.=.=.4.4.,.,.4.4.=.=.,.,.,.,.,.,.,.,.,.,.,.,.,.,.,.,.,.",
",.,.,.,.,.,.,.,.,.,.,.,.,.,.,.,.=.,.f.f.,.,.f.f.,.,.f.f.,.=.,.,.,.,.,.,.=.,.=.=.=.:.:.=.=.=.,.=.,.,.,.,.,.,.,.,.,.,.,.,.,.,.,.,.",
",.,.,.,.,.,.,.,.,.,.,.,.,.,.,.,.-.>.,.,.,.,.,.,.,.,.,.,.>.-.,.,.,.,.,.,.,.=.,.,.,.,.,.,.,.,.=.,.,.,.,.,.,.,.,.,.,.,.,.,.,.,.,.,.",
",.,.,.,.,.,.,.,.,.,.,.,.,.,.,.=.>.-.=.=.-.-.=.=.-.-.=.=.-.>.=.,.,.,.,.,.,.,.,.,.,.,.,.,.,.,.,.,.,.,.,.,.,.,.,.,.,.,.,.,.,.,.,.,.",
",.,.,.,.,.,.,.,.,.,.,.,.,.,.,.,.=.,.,.,.,.,.,.,.,.,.,.,.,.=.,.,.,.,.,.,.,.,.,.,.,.,.,.,.,.,.,.,.,.,.,.,.,.,.,.,.,.,.,.,.,.,.,.,.",
",.,.,.,.,.,.,.,.,.,.,.,.,.,.,.,.,.,.,.,.,.,.,.,.,.,.,.,.,.,.,.,.,.,.,.,.,.,.,.,.,.,.,.,.,.,.,.=.,.,.,.,.,.,.,.,.=.,.,.,.,.,.,.,.",
",.,.,.,.,.,.,.,.,.,.,.,.,.,.,.,.,.,.,.,.,.,.,.,.,.,.,.,.,.,.,.,.,.,.,.,.,.,.,.,.,.,.,.,.,.,.=.,.=.=.=.:.:.=.=.=.,.=.,.,.,.,.,.,.",
",.,.,.,.,.,.,.,.,.,.,.,.,.,.,.,.,.,.,.,.,.,.,.,.,.,.,.,.,.,.,.,.,.,.,.,.,.,.,.,.,.,.,.,.,.=.,.,.,.4.4.,.,.4.4.,.,.,.=.,.,.,.,.,.",
",.,.,.,.,.,.,.,.,.,.,.,.,.,.,.,.,.,.,.,.,.,.,.,.,.,.,.,.,.,.,.,.,.,.,.,.,.,.,.,.,.,.,.,.=.,.,.=.,.l.l.,.,.l.l.,.=.,.,.=.,.,.,.,.",
",.,.,.,.=.,.,.,.,.,.,.,.,.=.,.,.,.,.,.,.,.,.,.,.,.,.,.,.,.,.,.,.,.,.,.,.,.,.,.,.,.,.,.,.,.=.,.,.7.l.l.7.7.l.l.7.,.,.=.,.,.,.,.,.",
",.,.,.=.,.=.=.=.:.:.=.=.=.,.=.,.,.,.,.,.,.,.,.,.,.,.,.,.,.,.,.,.,.,.,.,.,.,.,.,.,.,.,.,.,.=.4.l.z.7.7.l.l.7.7.z.l.4.=.,.,.,.,.,.",
",.,.=.,.,.,.4.4.,.,.4.4.,.,.,.=.,.,.,.,.,.,.,.,.=.=.,.=.=.=.=.=.=.,.,.=.=.=.,.=.,.,.,.,.,.=.4.l.l.,.,.l.l.,.,.l.l.4.=.,.,.,.,.,.",
",.=.,.,.=.,.l.l.,.,.l.l.,.=.,.,.=.,.,.,.,.,.,.,.=.=.,.=.*.*.*.*.*.&.&.*.=.=.,.=.,.,.,.,.,.=.=.4.4.,.,.4.4.,.,.4.4.=.=.,.,.,.,.,.",
",.,.=.,.,.7.l.l.7.7.l.l.7.,.,.=.,.,.,.,.,.,.,.=.,.=.=.9.a.a.a.a.a.f.f.a.a.,.=.,.=.=.,.,.=.,.=.=.=.:.:.=.=.:.:.=.=.=.,.=.,.,.,.,.",
",.,.=.4.l.z.7.7.l.l.7.7.z.l.4.=.,.,.,.,.,.,.,.,.=.=.5.S r a p p p g g u s X.5.=.,.,.,.,.,.=.,.,.,.,.,.,.,.,.,.,.,.,.=.,.,.,.,.,.",
",.,.=.4.l.l.,.,.l.l.,.,.l.l.4.=.,.,.,.,.,.=.,.=.=.O.2.4   O X X X X X   o E 2.O.=.,.=.,.,.,.,.,.,.,.,.,.,.,.,.,.,.,.,.,.,.,.,.,.",
",.,.=.=.4.4.,.,.4.4.,.,.4.4.=.=.,.,.,.,.,.,.=.=.g.Y @ '.kXeXtXyXyXyXtXfXrX5 9 g.,.=.,.,.,.,.,.,.,.,.,.,.,.,.,.,.,.,.,.,.,.,.,.,.",
",.=.,.=.=.=.:.:.=.=.:.:.=.=.=.,.=.,.,.,.,.=.,.=.I Z 3 @XjXbXmXmXmXmXMXhXdXQ l H W 4.=.,.,.,.,.,.,.,.,.,.,.,.,.,.,.,.,.,.,.,.,.,.",
",.,.=.,.,.,.,.,.,.,.,.,.,.,.,.=.,.,.,.,.,.=.,.#.- h r.Q.5XxXnXvXvXcXNXsX#XZ._   D i.=.,.,.,.,.,.,.,.,.,.,.,.,.,.,.,.,.,.,.,.,.,.",
",.,.,.,.,.,.,.,.,.,.,.,.,.,.,.,.,.,.,.,.,.=.,.$., x L./.>XwXpXiXiXuXaX7X%XY.|   J i.=.,.,.,.,.,.,.,.,.,.,.,.,.,.,.,.,.,.,.,.,.,.",
",.,.,.,.,.,.,.,.,.,.,.,.,.,.,.,.,.,.,.,.,.=.,.$.> B T.$X;X^.~.~.~.^.!.=X-X}.w.  J i.=.,.,.,.,.,.,.,.,.,.,.,.,.,.,.,.,.,.,.,.,.,.",
",.,.,.,.,.,.,.,.,.,.,.,.,.,.,.,.,.,.,.,.,.=.,.%.; ^ *XgXzX2   # o %   `.BXqXA.  J i.=.,.,.,.,.,.=.,.,.,.,.,.,.,.,.,.,.,.,.,.,.,.",
",.,.,.,.,.,.,.,.,.,.,.,.,.,.,.,.,.,.,.,.,.=.,.%.* ~ 1X+X(.b w t t i 8 q.OX<XP.  J u.&.:.:.=.=.=.,.=.,.,.,.,.,.,.,.,.,.,.,.,.,.,.",
",.,.,.,.,.,.,.,.,.,.,.,.,.,.,.,.,.,.,.,.,.=.,.%.* V 9XN   8.a.u.i.9.l.q   .XI.  J a.,.-.-.4.4.-.=.,.,.,.,.,.,.,.,.,.,.,.,.,.,.,.",
",.,.,.,.,.,.=.,.,.,.,.,.,.,.,.=.,.,.,.,.,.=.,.%.* ! 9X( & +.=.*.=.O.u.d . XXI.  K n.k.2.2.l.l.4.=.,.=.,.,.,.,.,.,.,.,.,.,.,.,.,.",
",.,.,.,.,.=.>.-.=.=.-.-.=.=.-.>.=.,.,.,.,.=.,.%.* ! 9X( = +.=.&.*.o.y.f X oXI.  L M.v.<.<.b.b.4.=.,.,.=.,.,.,.,.,.,.,.,.,.,.,.,.",
",.,.,.,.=.,.,.>.,.,.,.,.,.,.>.,.,.=.,.,.,.=.,.%.* V 9XM   t.d.i.p.9.x.0    XU.  P n.k.7.7.l.l.7.,.,.=.,.,.,.,.,.,.,.,.,.,.,.,.,.",
",.,.,.=.>.,.=.,.f.f.,.,.f.f.,.=.,.>.=.,.,.=.,.%.* ~ 2X].m.m a s s n q 0.).,XP.  U g.4.l.l.7.7.z.l.4.=.,.,.,.,.,.,.,.,.,.,.,.,.,.",
",.,.,.,.-.>.,.4.f.f.2.2.f.f.4.,.>.-.,.,.,.=.,.%.: / &XgXlX1       o   _.VX0XA.  U s.=.l.l.,.,.l.l.4.=.,.,.,.,.,.,.,.,.,.,.,.,.,.",
",.,.,.,.=.,.f.f.2.2.f.f.2.2.f.f.,.=.,.,.,.=.,.$.@ v [.W.E.} ] [ [ { ' S.{.|.e.  D i.=.4.4.,.,.4.4.=.=.,.,.,.,.,.,.,.,.,.,.,.,.,.",
",.,.,.,.=.,.f.f.,.,.f.f.,.,.f.f.,.=.,.,.,.=.,.#.y C ..B.D.G.K.H.K.H.J.F.V.N.` 7 T 7.=.=.=.:.:.=.=.=.,.=.,.,.,.,.,.,.,.,.,.,.,.,.",
",.,.,.,.-.>.,.,.,.,.,.,.,.,.,.,.>.-.,.,.,.,.=.*.f.F   ) C.:X6X4X4X3X8XR. .$ 6 a.,.=.,.,.,.,.,.,.,.,.=.,.,.,.,.,.,.,.,.,.,.,.,.,.",
",.,.,.=.>.-.=.=.-.-.=.=.-.-.=.=.-.>.=.,.,.=.,.=.,.W G z k V ^ ~ ~ ~ ( c j A R ;.=.=.=.,.,.,.,.,.,.,.,.,.,.,.,.,.,.,.,.,.,.,.,.,.",
",.,.,.,.=.,.,.,.,.,.,.,.,.,.,.,.,.=.,.,.,.=.,.,.=.,.f.e + * & @ & & & & < X.p.=.=.,.=.,.,.,.,.,.,.,.,.,.,.,.,.,.,.,.,.,.,.,.,.,.",
",.,.,.,.,.,.,.,.,.,.,.,.,.,.,.,.,.,.,.,.,.,.,.=.,.=.;.4.h.j.3.1.$.$.$.@.O.=.=.,.=.=.,.,.,.,.,.,.,.,.,.,.,.,.,.,.,.,.,.,.,.,.,.,.",
",.,.,.,.,.,.,.,.,.,.,.,.,.,.,.,.,.,.,.,.,.,.,.,.=.4.l.c.y.y.c.c.6.,.,.,.,.,.=.,.,.,.,.,.,.,.,.,.,.,.,.,.,.,.,.,.,.,.,.,.,.,.,.,.",
",.,.,.,.,.,.,.,.,.,.,.,.,.,.,.,.,.,.,.,.,.,.,.,.=.4.l.l.,.,.l.l.4.=.=.=.=.=.,.=.,.,.,.,.,.,.,.,.,.,.,.,.,.,.,.,.,.,.,.,.,.,.,.,.",
",.,.,.,.,.,.,.,.,.,.,.,.,.,.,.,.,.,.,.,.,.,.,.,.=.=.4.4.,.,.4.4.=.=.,.,.,.,.,.,.,.,.,.,.,.,.,.,.,.,.,.,.,.,.,.,.,.,.,.,.,.,.,.,.",
",.,.,.,.,.,.,.,.,.,.,.,.,.,.,.,.,.,.,.,.,.,.,.=.,.=.=.=.:.:.=.=.=.,.=.,.,.,.,.,.,.,.,.,.,.,.,.,.,.,.,.,.,.,.,.,.,.,.,.,.,.,.,.,.",
",.,.,.,.,.,.,.,.,.,.,.,.,.,.,.,.,.,.,.,.,.,.,.,.=.,.,.,.,.,.,.,.,.=.,.,.,.,.,.,.,.,.,.,.,.,.,.,.,.,.,.,.,.,.,.,.,.,.,.,.,.,.,.,.",
",.,.,.,.,.,.,.,.,.,.,.,.,.,.,.,.,.,.,.,.,.,.,.,.,.,.,.,.,.,.,.,.,.,.,.,.,.,.,.=.,.,.,.,.=.,.,.,.,.,.,.,.,.,.,.,.,.,.,.,.,.,.,.,.",
",.,.,.,.,.,.,.,.,.,.,.,.,.,.,.,.,.,.,.,.,.,.,.,.,.,.,.,.,.,.,.,.,.,.,.,.,.,.=.>.-.=.=.-.>.=.,.,.,.,.,.,.,.,.,.,.,.,.,.,.,.,.,.,.",
",.,.,.,.,.,.,.,.,.,.,.,.,.,.,.,.,.,.,.,.,.,.,.,.,.,.,.,.,.,.,.,.,.,.,.,.,.=.,.,.>.,.,.>.,.,.=.,.,.,.,.,.,.,.,.,.,.,.,.,.,.,.,.,.",
",.,.,.,.,.,.,.,.,.,.,.,.,.,.,.,.,.,.,.,.,.,.,.,.,.,.,.,.,.,.,.,.,.,.,.,.=.>.,.=.,.f.f.,.=.,.>.=.,.,.,.,.,.,.,.,.,.,.,.,.,.,.,.,.",
",.,.,.,.,.,.,.,.,.,.,.,.=.,.,.,.,.,.,.,.,.=.,.,.,.,.,.,.,.,.,.,.,.,.,.,.,.-.>.,.4.f.f.4.,.>.-.,.,.,.,.,.,.,.,.,.,.,.,.,.,.,.,.,.",
",.,.,.,.,.,.,.,.,.,.,.=.,.=.=.=.:.:.=.=.=.,.=.,.,.,.,.,.,.,.,.,.,.,.,.,.,.=.,.f.f.2.2.f.f.,.=.,.,.,.,.,.,.,.,.,.,.,.,.,.,.,.,.,.",
",.,.,.,.,.,.,.,.,.,.=.,.,.,.4.4.,.,.4.4.,.,.,.=.,.,.,.,.,.,.,.,.,.,.,.,.,.=.,.f.f.,.,.f.f.,.=.,.,.=.,.,.,.,.,.,.,.,.=.,.,.,.,.,.",
",.,.,.,.,.,.,.,.,.=.,.,.=.,.l.l.,.,.l.l.,.=.,.,.=.,.,.,.,.,.,.,.,.,.,.,.,.-.>.,.,.,.,.,.,.>.-.,.=.>.-.=.=.-.-.=.=.-.>.=.,.,.,.,.",
",.,.,.,.,.,.,.,.,.,.=.,.,.7.l.l.7.7.l.l.7.,.,.=.,.,.,.,.,.,.,.,.,.,.,.,.=.>.-.=.=.-.-.=.=.-.>.=.,.,.>.,.,.,.,.,.,.>.,.,.=.,.,.,.",
",.,.,.,.,.,.,.,.,.,.=.4.l.z.7.7.l.l.7.7.z.l.4.=.,.,.,.,.,.,.,.,.,.,.,.,.,.=.,.,.,.,.,.,.,.,.=.>.,.=.,.f.f.,.,.f.f.,.=.,.>.=.,.,.",
",.,.,.,.,.,.,.,.,.,.=.4.l.l.,.,.l.l.,.,.l.l.4.=.,.,.,.,.,.,.,.,.,.,.,.,.,.,.,.,.,.,.,.,.,.,.,.-.>.,.4.f.f.2.2.f.f.4.,.>.-.,.,.,.",
",.,.,.,.,.,.,.,.,.,.=.=.4.4.,.,.4.4.,.,.4.4.=.=.,.,.,.,.,.,.,.,.,.,.,.,.,.,.,.,.,.,.,.,.,.,.,.=.,.f.f.2.2.f.f.2.2.f.f.,.=.,.,.,.",
",.,.,.,.,.,.,.,.,.=.,.=.=.=.:.:.=.=.:.:.=.=.=.,.=.,.,.,.,.,.,.,.,.,.,.,.,.,.,.,.,.,.,.,.,.,.,.=.,.f.f.,.,.f.f.,.,.f.f.,.=.,.,.,.",
",.,.,.,.,.,.,.,.,.,.=.,.,.,.,.,.,.,.,.,.,.,.,.=.,.,.,.,.,.,.,.,.,.,.,.,.,.,.,.,.,.,.,.,.,.,.,.-.>.,.,.,.,.,.,.,.,.,.,.>.-.,.,.,.",
",.,.,.,.,.,.,.,.,.,.,.,.,.,.,.,.,.,.,.,.,.,.,.,.,.,.,.,.,.,.,.,.,.,.,.,.,.,.,.,.,.,.,.,.,.,.=.>.-.=.=.-.-.=.=.-.-.=.=.-.>.=.,.,.",
",.,.,.,.,.,.,.,.,.,.,.,.,.,.,.,.,.,.,.,.,.,.,.,.,.,.,.,.,.,.,.,.,.,.,.,.,.,.,.,.,.,.,.,.,.,.,.=.,.,.,.,.,.,.,.,.,.,.,.,.=.,.,.,."
};
