/* XPM */
static char *result[] = {
/* columns rows colors chars-per-pixel */
"64 64 7 1 ",
"  c #222222",
". c #62232F",
"X c #314152",
"o c #3D734F",
"O c #8F4029",
"+ c #FDF7ED",
"@ c none",
/* pixels */
"@@@@@@@@@@@@@@@@@@@@@@@@@@@@@@@@@@@@@@@@@@@@@@@@@@@@@@@@@@@@@@@@",
"@@@@@@@@@@@@@@@@@@@@@@@@@@@@@@@@@@@@@@@@@@@@@@@@@@@@@@@@@@@@@@@@",
"@@@@@@@@@@@@@@@@@@@@@@@@@@@@@@@@@@@@@@@@@@@@@@@@@@@@@@@@@@@@@@@@",
"@@@@@@@@@@@@@@@@@@@@@@@@@@@@@@@@@@@@@@@@@@@@@@@@@@@@@@@@@@@@@@@@",
"@@@@@@@@@@@@@@@@@@@@@@@@@                        @@@@@@@@@@@@@@@",
"@@@@@@@@@@@@@@@@@@@@@@@@@                        @@@@@@@@@@@@@@@",
"@@@@@@@@@@@@@@@@@@@@@@@@@                        @@@@@@@@@@@@@@@",
"@@@@@@@@@@@@@@@@@@@@@@   XXoooooooooooooooooooooo   @@@@@@@@@@@@",
"@@@@@@@@@@@@@@@@@@@@@@   XXoooooooooooooooooooooo   @@@@@@@@@@@@",
"@@@@@@@@@@@@@@@@@@@@@@   XXoooooooooooooooooooooo   @@@@@@@@@@@@",
"@@@@@@@@@@@@@@@@@@@@@@   XXoooooooooooooooooooooo   @@@@@@@@@@@@",
"@@@@@@@@@@@@@@@@@@@@@@   XXoooooooooooooooooooooo   @@@@@@@@@@@@",
"@@@@@@@@@@@@@@@@@@@@@@   XXoooooooooooooooooooooo   @@@@@@@@@@@@",
"@@@@@@@@@@@@   @@        XXoooXXXXXXXXXXXXXXXXXXX   @@@@@@@@@@@@",
"@@@@@@@@@@@@   @@        XXoooXXXXXXXXXXXXXXXXXXX   @@@@@@@@@@@@",
"@@@@@@@@@@@@   @@        XXoooXXXXXXXXXXXXXXXXXXX   @@@@@@@@@@@@",
"@@@@@@@@@@@@@@@     ..   XXooooo     oooooooooo     @@@@@@@@@@@@",
"@@@@@@@@@@@@@@@     ..   XXooooo     oooooooooo     @@@@@@@@@@@@",
"@@@@@@@   @@   XX   ..   XXooooo     oooooooooo       @@@@@@@@@@",
"@@@@@@@   @@   XX   ..   XXooooo     oooooooooo       @@@@@@@@@@",
"@@@@@@@@@@  XXX     ..   XXooo++XXXXXooooooooooXX+++  @@@@@@@@@@",
"@@@@@@@@@@  XXX     ..   XXooo++XXXXXooooooooooXX+++  @@@@@@@@@@",
"@@@@@@@     XXXoo   ..   XX   ++++ooooooooooooo+++++  @@@@@@@@@@",
"@@@@@@@     XXXoo   ..   XX   ++++ooooooooooooo+++++  @@@@@@@@@@",
"@@@@@@@     XXXoo   ..   XX   ++++ooooooooooooo+++++  @@@@@@@@@@",
"@@@@@@@@@@  XXXoo   ..   XXXXX++++             +++++  @@@@@@@@@@",
"@@@@@@@@@@  XXXoo   ..   XXXXX++++             +++++  @@@@@@@@@@",
"@@@@@@@     XXXXX   ..     XXXXXoooooooooooooooooooo  @@@@@@@@@@",
"@@@@@@@     XXXXX   ..     XXXXXoooooooooooooooooooo  @@@@@@@@@@",
"@@@@@@@@@@  XXXoo   ..OOO  XXXXXXXXXXXXXXXXXXXXXX     @@@@@@@@@@",
"@@@@@@@@@@  XXXoo   ..OOO  XXXXXXXXXXXXXXXXXXXXXX     @@@@@@@@@@",
"@@@@@@@@@@  XXXXX   ..OOO                        XXX  @@@@@@@@@@",
"@@@@@@@@@@  XXXXX   ..OOO                        XXX  @@@@@@@@@@",
"@@@@@@@@@@  XXXXX   ..OOO                        XXX  @@@@@@@@@@",
"@@@@@@@@@@  XXXXXooo  ...OO   oooooooooooooooooooooo  @@@@@@@@@@",
"@@@@@@@@@@  XXXXXooo  ...OO   oooooooooooooooooooooo  @@@@@@@@@@",
"@@@@@@@@@@  XXXooooo  ...OOOOO    ooooooooooXXXXXooo  @@@@@@@@@@",
"@@@@@@@@@@  XXXooooo  ...OOOOO    ooooooooooXXXXXooo  @@@@@@@@@@",
"@@@@@@@@@@  XXXXXooooo   ..OOOOOOO     ooooooooooooo  @@@@@@@@@@",
"@@@@@@@@@@  XXXXXooooo   ..OOOOOOO     ooooooooooooo  @@@@@@@@@@",
"@@@@@@@@@@  XXXXXXXXooooo  ...OOOOOOOOO     oooooooo  @@@@@@@@@@",
"@@@@@@@@@@  XXXXXXXXooooo  ...OOOOOOOOO     oooooooo  @@@@@@@@@@",
"@@@@@@@@@@  XXXXXXXXooooo  ...OOOOOOOOO     oooooooo  @@@@@@@@@@",
"@@@@@@@                  ..OOOOOOOOOOOOOOOOO             @@@@@@@",
"@@@@@@@                  ..OOOOOOOOOOOOOOOOO             @@@@@@@",
"@@@@@@@   ..........OOOOOOOOOOOOOOOOOOOOOOOOOOOOOOOOOO   @@@@@@@",
"@@@@@@@   ..........OOOOOOOOOOOOOOOOOOOOOOOOOOOOOOOOOO   @@@@@@@",
"@@@@@@@   .......OOOOOOOOOOOOOOOOOOOOOOOOOOOOOOOOOOOOO   @@@@@@@",
"@@@@@@@   .......OOOOOOOOOOOOOOOOOOOOOOOOOOOOOOOOOOOOO   @@@@@@@",
"@@@@@@@   ..........OOOOOOOOOOOOOOOOOOOOOOOOOOOOOOOO..   @@@@@@@",
"@@@@@@@   ..........OOOOOOOOOOOOOOOOOOOOOOOOOOOOOOOO..   @@@@@@@",
"@@@@@@@   ..........OOOOOOOOOOOOOOOOOOOOOOOOOOOOOOOO..   @@@@@@@",
"@@@@@@@   .....OOOOOOOOOOOOOOOOOOOOOOOOOOO..OOO.......   @@@@@@@",
"@@@@@@@   .....OOOOOOOOOOOOOOOOOOOOOOOOOOO..OOO.......   @@@@@@@",
"@@@@@@@   .......OOOOOOOOOOOOOOOOOOOOOOOOOOOOOOOOOOO..   @@@@@@@",
"@@@@@@@   .......OOOOOOOOOOOOOOOOOOOOOOOOOOOOOOOOOOO..   @@@@@@@",
"@@@@@@@   .....OO...OOOOOOOOOOOOOOOOOOOOOOOOOOOOO.....   @@@@@@@",
"@@@@@@@   .....OO...OOOOOOOOOOOOOOOOOOOOOOOOOOOOO.....   @@@@@@@",
"@@@@@@@        .......                    .......        @@@@@@@",
"@@@@@@@        .......                    .......        @@@@@@@",
"@@@@@@@        .......                    .......        @@@@@@@",
"@@@@@@@@@@@@             @@@@@@@@@@@@@@             @@@@@@@@@@@@",
"@@@@@@@@@@@@             @@@@@@@@@@@@@@             @@@@@@@@@@@@",
"@@@@@@@@@@@@@@@@@@@@@@@@@@@@@@@@@@@@@@@@@@@@@@@@@@@@@@@@@@@@@@@@"
};
