/* XPM */
static char *result[] = {
/* columns rows colors chars-per-pixel */
"64 64 13 1 ",
"  c #0A0909",
". c #131313",
"X c #161412",
"o c gray9",
"O c #1F1E1E",
"+ c #1B211B",
"@ c #28211F",
"# c #2F2D2D",
"$ c #393132",
"% c #643F31",
"& c #976B41",
"* c #EDA138",
"= c none",
/* pixels */
"                                                                ",
"                                                                ",
"                                                                ",
"                                                                ",
"                                                                ",
"                                                                ",
"                                                                ",
"                       XXXXX                                    ",
"                      XXX        XX                             ",
"                      @XX         XX@@                          ",
"                       XX@XXX     XXXX@                         ",
"                               XXXX    XX    XXXX               ",
"               XXXX                 XX@      XXXXX              ",
"                 XXX         XX              @XXXXX             ",
"             XXXXXXX        @XXXXXX                             ",
"                 XXXXX    XX @@XXXXX   @@X@ @X                  ",
"         @@@X@@  X@XXX    XXX   X@@ @@@@@@@@@@                  ",
"         @@@@@@@@ X@XX      XXX    XXXXXX$$@@@                  ",
"       XX@$$XXX@@@@  $@XXXXX @$$$XXXXXX@@@XXXX                  ",
"         XX$@@$@@$$@$$$$$$XX$$$%$ @$$$$$$X@$$     XX            ",
"       XX$$$$$$@@@$$ $%$$$%%%%%$ @$$$$$$$$$$%$                  ",
"       XX$$$$$$@@@$$  %%%%%%%&$X@$$$$$$$$$$$%X$XXX              ",
"       XX %&$$$$$$$%%$@@@@@@@@ @@&%$$$$$$$&%@X$@@$XXXXXXX       ",
"            &&&%%%&&@X@@@$$$$XXXX@$&&&%%%%@  $$$$$$$  XXXX      ",
" @@X@@@$$@  XXXXXX    XXXX@@@@@@XXX@@@@@@XX X@%%%%%$@@@@@@XXXX  ",
"X@@@@@@@@@@XXX@@@@XX   $$@@@@$@$$@$%$$$$$$X X@$$$$XX@@@XX@@@@@@ ",
"XX$$$$$$$@X $$$@@@@@XX$$$$$$$$@$$$ %%%$$$$$$$$XXXXXX$$@@@@@@@@@ ",
"  @@@@@$$$$$$$@$$$$$$X$%%$$$$$$$$$% $$&&&%X   @@@@    XXXXXXX@X ",
" @$$$$$@@@$$@$$$$@$$XXX$$&%%%%%%%%%@   @@X@XX $@@@@@@@@@@$$$$$  ",
" %&%%%$$$$$$%&%%%$%@  X@@@%%%%&&&$@ XXX   XX@X@@@@$$$$@$$$$$$$$$",
"X@%&&&&&&&%%@X$%%%&@  X@@ @@@$%%%@XXXX     X@X$$$$$@$$@$$$$$$$$$",
"XXX$$$$$$$$@X@X@@$@X     X@@@@XXX           X%$@@$$$$$$$$%%%&&%@",
"$X@@@@@@@@@XXXX@@ XX      XXXXXX            XX%%%$%%%%%%%@   @ X",
"$%%%%%$$$$  @XXXXX                            XXX%%&&&$@@ $$%%%$",
"%%%%XXXXX  @@XX                                XXX$%%%@XXX%%&X%%",
"$$@XXXX   XX@$                                   XX@%%&&&%XXXX@$",
"$@X@XXX%%%$$@@                                    X@@@@@@@$$$$@$",
"@@@&&&&&&%%%$X                                     $X$$$$%%%%@@@",
" @  ***&&&&&X                                      @X$%&&@@@@@X ",
" X $@@@XX%**X                                      @XX@@@@XXX%% ",
"X $$@@X@@%%$X                                       %%X%%&&&$$$ ",
"X XXXX@$$$XXX                                      X@@$$$$$$$@@X",
"X@X$@@X$$$XX@                                      XX@X@@$$$@@X ",
"X@X$@@X$$$XX@                                      XXXXXX@@@@@  ",
"@XXXXXX@@@$$X                                     X%%%%%%%XXX$@ ",
"@  XXXX  XXXX                  ...                X&&&&%%%%%X@@ ",
"$$ $$$$%%@$@     ..   .  ....         .           %@%%@%%$%%X X$",
"$$$$%%%%%@$$   .....  .        ...    ....        %@%$$%%X$$X%$$",
"%%%%$$XXXXXX          .........  ...     ...      XXXXX   XXX@%%",
"&&@@@@@%%%&X ....  ..    .....    .... ..  ....   X$$$$@@@@@@@X&",
"X@$@%%&&&%&&X .             ...ooo  ...  .  ..    X$%%$%%$$$$@X@",
"X@$@&&&&&%%&X         ooo ....ooooo ...     .  XXX%%%%%%%%%%$XX$",
" X@@%%*****&X  .....   oooooooo   oo     ...  X%%%&&&&&&&&%%%&X@",
"$@@@$$$%%%%%@        oo   ....oooooo       .. %***&%&&&**&&&&@X ",
"$%$@XXX%%$@@$@    ..ooo  .......+     OOOO.   $$$$%%%%%$$$@@@@@ ",
"@$%$XXX$$$%@$@ ....oo ...OOOOO...+++OOOOOO..  @%%%%%%%%$$@$$$@@X",
" $@XXX $$$%%@     ++.+OOOO####OO..OO+++  O... XXX$$%$$@@@@$$$@@@",
" $X XXXXXX@$@    ..OOO......OOOOO.#OOOOOO     @XXX@%@@$$$@XXXXXX",
"    $$$@@XX@ .....OO...++OOOO#............   + XXX@X@$@@@ XXX@@X",
"++ X@@@$$$$$      ..++.......O+O#O++++++++===+ XXX$X$@X  X@@@@ X",
"=+++  @%%$XX  +...++...+++OOO++OOO+++++++===+++XXXXXXXX++     +X",
"===+++ XX    ++OOOOO+=====+++=+++=============++++  +++++++++++=",
"==++++++++++++=================================+++++++===++++===",
"======+++================================================+++===="
};
