/* XPM */
static char *result[] = {
/* columns rows colors chars-per-pixel */
"64 64 192 2 ",
"   c #1E0427",
".  c #1D0428",
"X  c #210528",
"o  c #250B2A",
"O  c #2B0D2C",
"+  c #310F29",
"@  c #27102B",
"#  c #2B142B",
"$  c #2E1A2D",
"%  c #32112D",
"&  c #3C162B",
"*  c #321D2D",
"=  c #2F0F30",
"-  c #2D1531",
";  c #311430",
":  c #3A1633",
">  c #341C31",
",  c #3D1B36",
"<  c #3E1A39",
"1  c #35242E",
"2  c #39242F",
"3  c #38282F",
"4  c #3B2532",
"5  c #3A2537",
"6  c #3C2C31",
"7  c #3D293B",
"8  c #3F3132",
"9  c #441A2C",
"0  c #4D1E2E",
"q  c #431B30",
"w  c #441E3A",
"e  c #42232F",
"r  c #4E212B",
"t  c #52232D",
"y  c #5A272C",
"u  c #5C292C",
"i  c #412531",
"p  c #4B2331",
"a  c #462836",
"s  c #432C34",
"d  c #4B253C",
"f  c #432B39",
"g  c #542431",
"h  c #5B2631",
"j  c #532C34",
"k  c #5B2A34",
"l  c #582C3B",
"z  c #413433",
"x  c #473D35",
"c  c #483E35",
"v  c #44313F",
"b  c #5C3334",
"n  c #58373A",
"m  c #642D2E",
"M  c #682F2E",
"N  c #69302E",
"B  c #642D34",
"V  c #612C38",
"C  c #6E3231",
"Z  c #663439",
"A  c #6A343D",
"S  c #653A38",
"D  c #723531",
"F  c #7C3935",
"G  c #71383B",
"H  c #7C3E3D",
"J  c #4A4036",
"K  c #4D4239",
"L  c #52463B",
"P  c #7E433D",
"I  c #552B42",
"U  c #5A2B49",
"Y  c #453341",
"T  c #4E3B43",
"R  c #483E48",
"E  c #583842",
"W  c #643A46",
"Q  c #6A3846",
"!  c #63334B",
"~  c #693A4A",
"^  c #723D49",
"/  c #6C3652",
"(  c #6E3855",
")  c #703653",
"_  c #753D5B",
"`  c #763C60",
"'  c #5B4143",
"]  c #54454A",
"[  c #57494B",
"{  c #5A4C4D",
"}  c #595354",
"|  c #5C5554",
" . c #654544",
".. c #68464D",
"X. c #76424E",
"o. c #7D5346",
"O. c #774350",
"+. c #7A4453",
"@. c #635A55",
"#. c #635E59",
"$. c #676961",
"%. c #6C7266",
"&. c #813C35",
"*. c #883F39",
"=. c #8B4237",
"-. c #82453E",
";. c #8D4238",
":. c #93463A",
">. c #96483B",
",. c #9C4B3C",
"<. c #824140",
"1. c #8C4941",
"2. c #944C42",
"3. c #994E43",
"4. c #84594B",
"5. c #9C5145",
"6. c #8B5159",
"7. c #94585D",
"8. c #A25141",
"9. c #A95747",
"0. c #B25F4C",
"q. c #A65954",
"w. c #B8684D",
"e. c #AE655D",
"r. c #B76759",
"t. c #914C6F",
"y. c #955664",
"u. c #9C5D62",
"i. c #944F70",
"p. c #965071",
"a. c #A65A77",
"s. c #9E6062",
"d. c #A26264",
"f. c #A86768",
"g. c #AD6A68",
"h. c #B56A61",
"j. c #B36E6B",
"k. c #BB746E",
"l. c #AE627C",
"z. c #B2647C",
"x. c #BD677E",
"c. c #BD7670",
"v. c #C66F4F",
"b. c #CC7150",
"n. c #D47350",
"m. c #D97553",
"M. c #DD7B53",
"N. c #E07C54",
"B. c #E57C59",
"V. c #C26868",
"C. c #C77769",
"Z. c #CF716D",
"A. c #D67668",
"S. c #C56D79",
"D. c #CD7373",
"F. c #C37A72",
"G. c #CA7F75",
"H. c #C9777B",
"J. c #CA7B7C",
"K. c #D17C78",
"L. c #E37F62",
"P. c #D5875A",
"I. c #D6895A",
"U. c #D1955F",
"Y. c #E4825B",
"T. c #E28A5C",
"R. c #EA8E5B",
"E. c #EB935D",
"W. c #DD8265",
"Q. c #D39C63",
"!. c #C98276",
"~. c #CE8177",
"^. c #D68576",
"/. c #D98371",
"(. c #D3847B",
"). c #DC8C7E",
"_. c #E48361",
"`. c #E69461",
"'. c #E59C66",
"]. c #EB9E63",
"[. c #DAA166",
"{. c #E6A164",
"}. c #E9A565",
"|. c #EAA867",
" X c #E3A76D",
".X c #EAAE6A",
"XX c #EAB06B",
"oX c #BA6582",
"OX c #BC6A84",
"+X c #C06E83",
"@X c #CC7A81",
"#X c #D28180",
/* pixels */
"x x x c x x c x x c c x x x x c x x x x c x x x c x x x x x x x x c x c x x x x x x x x x x x x x x x x x x x x J x J x x x x x ",
"x x x x x x x x x x x x x x x x x x x x x x x x x x x c x x x x x x x x x x x x x x x x x x x x x x x x x x x x x x x x x x x x ",
"x x x x c x c x x x c x x x x x x x x x x x x c x x x x x x x x x x c x x x x x x x x x x x x x x x J x x x J x x x x x x x x x ",
"x c x x x x x c x x x x x c x x x x x x c x x x x x x x x x x x x x x x x x x x x x x x x x x x x x x x x x x x x x x x x J x x ",
"x x x x c x c x x x x c x c x x x x x x x x x x x x x x x x x x x x x x x x x x x L L x x x x x x x x x x x x x x x x x x x x x ",
"c x x x x x x x x x x x x x x x x x x x x x x x x x x x x x x x c x x x x x x x J L L J x x z x x x x x x x x x x J x x x x x x ",
"x x x x x c x c x x x x c x x x x x x c c K x x K K x x x x x x x x x x x x x L L J J L L J x x x x x x J x x x x x x x x x x x ",
"x x c x c x c x x x x x x x x x x c x c K K x c K K c x x x x x x x x x x x c L L x x L L x x x x J x x x x x x x x x x x x x J ",
"x x x x x x K x x x x x x K x x x x J K c c K K x x K K x x x x x x x x x x x x x x x J x x x x x x x x x x x x x x x x x x J x ",
"x x x x x x x x x x x x x x x x x x J K c c K K c J K K J x x c c c x x x J x x x x x x x x x x x x x x x x x J x x x x x x x x ",
"K x x x x x x x x x x x x x x x x x x x x x x x x 8 z z z z z 8 8 z z z z 8 z z 8 z x x x x z x x x J x x x x x x x x x x x x x ",
"x x x x x x x x x x x x x x x x x z x x x x x z * X . . . . . . .       . . .     1 z x x x x x x x x x x x x x x J x x x x x x ",
"x x x x x x x x x x x x x x x x x x x x x z z z 4 q q q 9 q , 9 q q 9 , 9 q 9 , i i s z x x x x J x x x x x x x x x x x x x x x ",
"x x x x x x x x x x x x x x x x x x x x x 8 1 > S 2.3.3.3.,.3.3.3.3.3.5.3.3.5.5.>.Z * 1 6 x x x x x x x x x x x x x x x x J x x ",
"x x x x x x x x x x x x x x x x x x x x x 3 $ q 1.b.M.M.P.M.M.M.M.M.M.M.M.M.M.M.b.1., $ 6 x x x x x x x x x x x x x x x x x x x ",
"x x x x x x x x K x x x x x x x x x x z 3 a k P w.T.E.E.E.E.E.E.E.E.E.E.E.E.E.E.I.w.H b s 3 8 x x x x x x x x x x x x J x x x x ",
"x x x x x x x x x x x x x x x x x x x 1 @ g 5.v.W.{.|.|.|.|.}.}.}.}.}.}.}.}.}.}.{.I.v.3.p @ 3 z J L L J x L L x x x x x x x x x ",
"K x x x x x x x x x x x x x x x x 8 6 i e H v.E.]..XXXXXXXXXXXXXXXXXXXXXXXXXXXXX|.].E.w.G p i z 8 K L J J L L J x x x x x x x x ",
"x x x x x x x x x x x x x x x x 6 1 * Z 5.w.I.{.|..XXX.X.X.XXX.XXXXX.X.XXXXX.XXXXX|.{.I.w.5.Z > 7 z J K L J J L K J x x x x x x ",
"x x x x x x x x x x x c x x x x 3 $ % H n.R.{..X.X.XXX.X.X.X.X.XXXXXXXXXXXXX.XXX.X.X.X].R.b.H % $ 8 J L L x x K L J x x x x x x ",
"x x x x x x ] K x x L L x x c c 6 # * P I.].|.XXXX.X.X.X.X.X.X.X.XXXXX.XXXXX.X.X.XXXXX}.].P.P % # 8 x J x x x J x x x x x x J x ",
"x x x x x J L L c J L L c c c c 8 # % o.Q.|..XXX.X.XXXXXXX.X.X.XXX.X.XXXXXXXXXXXXX.X.X.X|.U.o.* # 8 x x x x x x x x x x x x x x ",
"x x x x L L J J L L c J x f 6 6 1 @ % o.[.XX.X.X}.}.}.}.}.}.}.}.}.}.{.}.{.{.{.}.}.}..X.XXXQ.o.* @ 3 6 6 6 8 x x x x x x x x x x ",
"x x x J L K J x L L x x 5 # # @ @   % o.[.XXXX|.].R.R.R.R.R.R.E.R.R.R.R.R.R.E.R.R.]..XXXXXQ.o.#   @ # # # 1 8 J 8 x x x x x x x ",
"x x x x J J J J J J 8 J @ X o = O O < 4.[.XX.X}.`.Y.B.Y.B.B.B.B.N.B.B.B.B.B.B.B.B.`.|.|.XXQ.4., O ; O o   $ 8 x J J x x x x x x ",
"x x x x 8 x x 8 J x x J @ X w ^ +.( O.f.[.|.].`.A.A.Z.Z.Z.Z.Z.Z.Z.Z.Z.Z.Z.Z.Z.Z.Z.W.`.]..X[.f._ ( +.) i @ $ 8 x J 8 J x x x x x ",
"x x x x x x x x x x x x @ o ~ k.J.z.l.!. X}.R.B.Z.x.oXoXoXoXoXoXx.oXoXoXoXoXoXoXS.D.B.`.|. X!.z.z.H.j.W @ $ 8 J J J J x x x x x ",
"x x x x x J x x x x x x * * E 7.f.l.oX!.'.`.W.A.D.+Xl.p.p.a.+X+X+X+XOXOXa.t.p.z.+XD.A._.`.'.J.OXz.g.7.n $ 1 8 x x 8 x x x J x x ",
"x x x x x x x x x x x x 8 3 8 f / i.oXD.Y.W.D.S.H.J.f.! U u.J.#X#XK.#XJ.y.U / f.#XK.S.Z.W._.D.oXt.! d f 3 8 x x x x x x x x x x ",
"x x x x x x x x x x x x x x 1 @ w ` a.V.B.A.S.+X@X(.7.w : 7.^.).#X).).(.6.: I u.).@XOXS.A.M.V.a.` < @ 4 x x x x x x x x x x x x ",
"x x J x x x x x x x x x x 8 8 1 f I ( q.N.L.K.@X#X(.d.w : 6.(.#X).).).(.6.: d u.).#XK.K.Y.m.q./ I 4 1 8 x J x x x x x x x x x x ",
"x x x x x J x x x x x x x x x x 7 - : <.m.Y./.(.).(.d.w < 7.(.).).).).(.6.: I d.#X(.(./._.n.<.: - 6 x x 8 x x x x x x x x x J x ",
"x x x x x x x x x x x x x x x x s @ + ^ n.n.e.d.c.(.j.X.X.g.^.).).).).).d.~ +.j.(.k.d.r.m.b.H + @ z x x x x x x x x x x x x x x ",
"x x x x x x x x x x x x x x x x 3 @ & &.m.v.Q I 7.~.(.c.k.).#X#X#X).).).~.c.c.).(.7.I ^ v.n.H + # z x x x x x x x x x x x x x x ",
"x x x x x x x x x x x x x x x x z $ % G w.3.r : O.g.k.k.k.k.c.k.!.k.k.k.k.k.k.c.g.X.% g 8.0.G * $ z x x x x x x x x x x x x x c ",
"x x x x x x x x K K x x K K x x x 3 2 j A B 0 0 l Q ~ ~ Q W ~ ! W ~ ~ W ~ ~ W ~ Q l 0 t V Z j s z z x x x x x x x x x x x x x x ",
"x x x x x x x x K K c c K K J x z x 6 3 % 9 t y 9 % % % + + + = = = + = % % % O + 9 y 0 & % 4 c L x x x x x x x x x x x c x x x ",
"x x x x x x K K x c K K x x J K x 3 3 e t h C C t & & 0 r r t t 0 t t t 0 0 9 9 & t D C h 0 i 4 3 z x x x x x x J x x x x x x c ",
"x x x x x x K K x x K K x x K K 8 $ + t F *.:.=.D y m F *.*.*.*.*.*.*.*.*.*.F B y D ;.:.*.F g # * z c x x x x x x x x x x J x x ",
"x x c x x x x x x x x x x x x x 6 # O V 5.9.8.>.D y M &.>.,.,.,.,.8.,.,.>.:.&.m y F >.8.9.3.V O # 6 x x x x x x x x x x x x x x ",
"x c x x x x x x x x x x x x z x 6 $ + ~ h.V.9.:.B 9 9 m F *.,.,.,.,.,.,.=.F m 9 & B :.9.v.h.Q = # 8 J z x x x x x x x x x x x x ",
"x x x x x x x x x J x x x x x x 3 # + O.G.C.0.:.h O + t N &.>.>.>.,.,.>.F m r + + u :.w.G.F.^ ; # 8 x x x c x x x x x x x x J x ",
"x J x x x x x x x x x x x x x x 6 # % O.!.~.C.q.Q O + t M C &.&.&.&.&.F D m r + O Q q.C.^.F.X.; # 8 x x x x x x x x x x x x x x ",
"x x x x x x x x x x x x x x x x 6 $ # O.!.)./.k.^ + + t m m m M m M M M m u r + O ^ C.^.).F.X.; # 8 x x x x x x x x J x x x x x ",
"x J x x x x x x x x x x x x x x 8 * > W 7.g.g.d...7 7 n S b b b k b b b n n n s 7 ..s.g.g.s.~ > * 8 J J x x x x x x x x x x x J ",
"x x x x x x x x x x x x x x x x z z 6 f l I l E ] [ } #.@.{ ' ' ' ' ' '  .@.#.| } E I U I I f 8 8 8 J J x x x x x x x x x x x x ",
"x x x x x x x x x x x x x x x x x x x 1 o .   o ] $.%.%.$.@.{ [ ] ] [ { #.$.%.%.$.R o .   @ 1 z x x 8 J x x x J x x x J x x x x ",
"x x x x x x J x x x x x x x x x x x z 6 1 $ o O v | #.#.@.} [ T 7 f T [ | @.#.#.} Y o o $ 1 8 z x x x J x x x x x x x x x x x x ",
"x x x x x x x x c x x x x x x x x x x x 8 3 @ @ 6 ] { { { { [ v - - Y [ { { { { [ 7 . # 3 x 8 x x x x x 8 J J x x x x x x x x x ",
"x x J x x x x c c x c x x x x x x x x x J 6 @ o a  . .' T n Y 7 $ > 5 Y T E '  . .f @ # 8 x x x x x x x x x x x J x x x x J x x ",
"x x x x x x x J x c x x x c x x x x 8 x x 3 @ @ k -.P S j 4 * * 3 6 1 $ i k S -.<.j @ @ 3 x x x x x x x x J x x x x x x x x x x ",
"x x x x x x x x c x x c x x x x x x J x x 6 $ $ k F F m r & o * 8 8 $ @ & r m F &.k # $ 8 x x x x x x x x x x x x x x x x x x x ",
"x x x x x x x x x x x x x x x x x x x x J 8 3 3 i g 0 9 & * 1 3 z z 6 1 * & 9 0 g p 4 6 8 J x x x x x x x x x x x x x x J x x x ",
"x x x x J x x x x x x x x x z x x x x x J 8 x 8 * O X X o 1 z x x x x 8 1 o X X O * z c J x x x x x x x x x x x x x x x x x x x ",
"x x x x x x x x x x x x c x J J x x J J J x x 8 3 * $ $ * 3 c x x x x z 6 * $ $ * 6 x K K x x x x x x x x x x x x x x x x x x x ",
"J x x x x x x x x x x x x J L K J J K K x x x x c c c x c c c x x x x J c c c J c c x x x x x x x x x x x x x x x x x x J x x x ",
"x c x x x x x c x x x x x J L L J J L K J J x x x J J J x x x x x x x x x x z x x x x x 8 J x x x x x J x x J 8 x x x x x x x x ",
"x x x x x x x x x x x x K L J J L L J J L K x x x J 8 8 8 x x x x x x x x x x x x x x x x x x x x x x K K J J K J x x x x x x x ",
"x x c x c x x x x x x x L K x x K L x x L K J x x x x x J J x x x x x x x x x x x x J x x x x x x x J K K J J K K J x x x x x x ",
"x x x x x x x x c x x x J J x x J x x x J J J x x x J x x x x J x x x x x x x x x x x x x x x x x K K J 8 K J J J J J J x x x x ",
"c x x x x x x x x x x x x x x x x 8 J x x x x x x x x x x x x x x x x x x x x x x x x x x x J J x K K x x J K x J J J x x x x x ",
"x x J x x x x c x x x x x x x x x x J x x x x x x x x J x x x x x x x J x x x J x x x x x x x 8 x x x x x x J x x x x x x x x x ",
"x x x x x c x x x x x c x c x x x J x x x x x x x x x x x x J x x x x x x x x x x x x x x x x x x x x x x x x x x x x x x x x x ",
"x x x x x x x x x x x x x x c x x x x x x x x x x x x x x x x x x x x x x x x x x x J x x x x x x x x x x x x x x x x x x x x x "
};
