/* XPM */
static char *result[] = {
/* columns rows colors chars-per-pixel */
"64 64 180 2 ",
"   c #1D0327",
".  c #1D0328",
"X  c #200227",
"o  c #210428",
"O  c #250C29",
"+  c #290C2A",
"@  c #310F2B",
"#  c #2B142C",
"$  c #2E1A2C",
"%  c #34132B",
"&  c #3A152A",
"*  c #331E2E",
"=  c #3D1B2D",
"-  c #2E1832",
";  c #381631",
":  c #351D32",
">  c #3E1A36",
",  c #3E183B",
"<  c #36252F",
"1  c #38262F",
"2  c #362432",
"3  c #392730",
"4  c #3B2B31",
"5  c #3B2439",
"6  c #3E2B3B",
"7  c #3F3131",
"8  c #461C2A",
"9  c #4B1E2C",
"0  c #431C30",
"q  c #431D39",
"w  c #501F30",
"e  c #4D212C",
"r  c #53232B",
"t  c #59272B",
"y  c #57282D",
"u  c #442233",
"i  c #482635",
"p  c #422A32",
"a  c #442238",
"s  c #442C3A",
"d  c #4A2D3A",
"f  c #542332",
"g  c #5C2732",
"h  c #542B34",
"j  c #5A2D34",
"k  c #413332",
"l  c #483737",
"z  c #473D35",
"x  c #483E35",
"c  c #4F323A",
"v  c #4B3C38",
"b  c #573739",
"n  c #55343D",
"m  c #632D37",
"M  c #6C2F34",
"N  c #6D3236",
"B  c #6E343A",
"V  c #6D3E3D",
"C  c #77393A",
"Z  c #494035",
"A  c #4D4239",
"S  c #52463B",
"D  c #572947",
"F  c #483040",
"G  c #4B3943",
"H  c #5C3545",
"J  c #563942",
"K  c #603645",
"L  c #683748",
"P  c #673849",
"I  c #6B3A4A",
"U  c #793E43",
"Y  c #6D4642",
"T  c #6F4842",
"R  c #754C43",
"E  c #7B4652",
"W  c #7D4161",
"Q  c #823C38",
"!  c #883E38",
"~  c #83443F",
"^  c #90433A",
"/  c #99493D",
"(  c #81464B",
")  c #904842",
"_  c #994E43",
"`  c #855C49",
"'  c #8C5E4A",
"]  c #9E5244",
"[  c #9C5C49",
"{  c #814C54",
"}  c #8B4F54",
"|  c #84475F",
" . c #87505B",
".. c #8F535E",
"X. c #92575C",
"o. c #95585D",
"O. c #A85546",
"+. c #A85646",
"@. c #AA5947",
"#. c #AA5F57",
"$. c #9A674E",
"%. c #956453",
"&. c #9A6C50",
"*. c #B7614A",
"=. c #BC644B",
"-. c #B66453",
";. c #BD6C5C",
":. c #AB7B56",
">. c #A77558",
",. c #864567",
"<. c #8F5363",
"1. c #9A5964",
"2. c #A75D76",
"3. c #9F6161",
"4. c #AE6B69",
"5. c #B26D6B",
"6. c #B7716C",
"7. c #BB746F",
"8. c #BA6B7E",
"9. c #BE737D",
"0. c #C0664C",
"q. c #C3694D",
"w. c #C96B4E",
"e. c #D37250",
"r. c #DD7953",
"t. c #D5795D",
"y. c #E37C54",
"u. c #E97F55",
"i. c #E07E5F",
"p. c #C8786B",
"a. c #D87F69",
"s. c #CD7373",
"d. c #C77E76",
"f. c #CA7F75",
"g. c #C6757A",
"h. c #C57B79",
"j. c #D07977",
"k. c #BD8B5C",
"l. c #BE8267",
"z. c #C18D5D",
"x. c #D88A5B",
"c. c #C6915E",
"v. c #E38257",
"b. c #EA8156",
"n. c #EB8658",
"m. c #E58C5D",
"M. c #EA8B5A",
"N. c #EA935D",
"B. c #CA9560",
"V. c #D39D63",
"C. c #DD9C62",
"Z. c #DB9D6D",
"A. c #CF8277",
"S. c #CB817C",
"D. c #D68676",
"F. c #D78870",
"G. c #D3857C",
"H. c #DA8A7A",
"J. c #D69374",
"K. c #D89372",
"L. c #DE9B72",
"P. c #DD917A",
"I. c #E38F63",
"U. c #EA9760",
"Y. c #E99D62",
"T. c #E19869",
"R. c #E09876",
"E. c #DDA566",
"W. c #DFA16F",
"Q. c #E2A566",
"!. c #EAA666",
"~. c #E1A867",
"^. c #EBA967",
"/. c #E3A46C",
"(. c #E5AB6A",
"). c #E9AE6A",
"_. c #EAB06B",
"`. c #E4A271",
"'. c #B46582",
"]. c #C47781",
/* pixels */
"z z z z z z z z z z z z z z z z z z z z z z z z z x z z z z z z z z z z z z z z z z z z z z z z z z z z x z x x z x z z z z z z ",
"z z z x z z x z x z z z x z x z z z z z z z z z z z z z z z z z z z z z z z z z z z z z z z z z z z z z z z z z z z z x x z z z ",
"z x z z z x x z z z z z x z z z z z z z z z z z z z z z z z z z z z z z z z z z z z z z z z z z z z x z z z z z x x z z z z x z ",
"z z z z z x z z z z z x z z z z z z z z z z z z z z z z z z z z z z z z z z z z z z z z z z z z z z z z z z z z z z x z z z z z ",
"z z z z z z z x z z z z z z z x z z z z z z z z z z z z z z z z z z z z z z z z z S S z z z z z x z z x z z z Z z z z z x z z z ",
"z z x z z z x z z z x z z z z z z z z z z z z z z z z z z z z z z z z z z z z z x S S Z z z z z z z z z z z z z z x z z z z z z ",
"z z z z z z z z z z z z z z z z z z z z A A z z A A z z z z z z z z z z z z z S S Z Z S A z z z z z x z z x z z z z z z z z x z ",
"x z z z x z z x z x z x z z z z z z z z A A x x A A x z z z z z z z z z z z z S S z z S S z z z z z z z z z z z x z z x z z z z ",
"z z z z z z z z z z z z z z z z z z Z A z z A A v v A A Z z Z Z z Z Z z z z Z Z Z Z z z z z z z z z z z z z z z z z z x z z z z ",
"z z z z z z z z z z z z z z z z z z Z A z z Z x z k z k k k 7 p 7 7 7 7 7 7 7 k 7 k z z z z z z z z z z z z z z z z z z z z z z ",
"z z A z z z z z z z z z z z z z z z z z z z z z 2 O . . . . . . . .       . . . . O < k z z z z z z z z z z z z z x z z z z z z ",
"z z z z z z z z z x z z z z z z z z z z z z z 7 p 5 8 0 0 0 0 0 0 0 0 u u u u u a p p k 7 z z z z z z z z z z z z z z z z z z z ",
"z z z z z z z z z z z z z z z z z z z Z z k < * j ~ ] _ _ _ _ _ _ ] [ $.&.&.&.&.&.` b < < 7 z z z z z z z z z z z z z A z z z z ",
"z z z z z A z z z z z z z z z z z z z k z 7 * % N *.r.r.r.y.r.r.r.r.x.C.E.E.E.E.E.k.Y % * 7 z z z z z z z z z z z z z z z z z z ",
"z z z z z z z z z z z z z z z z z z Z 7 4 p h N ] e.b.b.b.n.N.N.N.N.!.^._._._._._.V.>.R b k 4 7 z z z z z z z z z z z z z z z z ",
"z z A z z z z z z z z z z z z z z z z 4 # = ~ *.e.r.u.u.u.M.Y.!.!.!.!.(.).)._._._.~.V.k.` p # 4 7 x x z z x z z z z z z z z z z ",
"z z z z z z z z z z z z z z z z 7 7 7 4 8 g @.y.b.u.b.n.n.Y.(.)._._._._._._._._._._._.(.&.i O 2 z S S z x A S x z z z z z z z z ",
"z z z z z z z z z z z z z z z z 7 4 : h ( +.w.y.b.u.n.M.Y.!.^._.)._.).)._._._._._._._.~.&.i O 4 z S A A Z S S A z z z x z z z z ",
"z z z z z z z z z z z z z z z z 7 * O B *.y.y.u.u.b.n.Y.!.).).).)._.)._.)._._.(._.)._.(.&.i O 4 A A Z S S v x S A Z x z x z z z ",
"z z z z z z z z z z z x z z z z 7 * O V 0.b.b.b.n.N.N.!.).).).)._._._._.)._._.(.).)._.(.&.i O 4 A Z z S A x x A S Z z z z z z z ",
"z z z z z z S S z z A S z z z z k $ O B =.b.u.b.M.Y.^.(.).).)._.).)._._._._._._._._._.(.&.i O 3 z z z z z z z z z z z z z z z z ",
"z z z z z A S S A Z S S z z z z k $ + B 0.b.u.b.N.!._._._._.)._.)._._._.(._._.(.W.W.W.W.%.p O 2 k z z z z z z z z z z z z z z x ",
"z z z z S S z A S S Z Z A S Z z 7 $ + B 0.b.u.b.N.!._.)._._._._._._.)._._._.(.L.J.S.S.d.<., O 1 z z z z z z z z z z z z x z z z ",
"z z z Z S A z z S S z Z S S z z k $ + B 0.b.u.b.N.!._.)._.).).)._.)._.)._._.(.J.9.'.'.'.E , O 1 z z z z z z z z z z z z z z z z ",
"z z z z z z z z z z z z Z Z z z 7 # + N 0.b.u.b.N.!.)._._.(.`.`.`._._.).)._.(.l.<.,.2.8.| q O 1 z z z z z z z z z z z z x z z z ",
"z z z z z z z z z z z z Z 7 z z k # + N 0.u.u.b.N.!._._.).`.R.R.`._._._._._.(.>.H D 1.h...q O 1 7 z z z z z z z z z z z z z x z ",
"z z z z Z z z z z z z z Z z z z k $ + B 0.b.b.b.N.!._._._.`.P.P.`.)._.).).(.Q.&.u > X.f.o.q O 1 z z z z z z z z z z z z z z z z ",
"z z z z z z z z z z z z Z Z 7 z k $ + B 0.b.u.b.N.!._._._.R.P.P.`.)._._.(.Y.m.[ 0 > X.A.o.q O 1 7 z z z z z z A z z z z x z z z ",
"z z z z z z x z z z z z z z z z k $ O B 0.u.u.b.N.!._._.)./.P.P.`.).)._.!.N.v.] 9 q X.f.1.a O < z z z z z z z z z z x z z z z z ",
"z z z z z z z z z z z z z z z z k $ + B 0.u.u.b.N.!._.).).L.G.G.L.(._._.!.N.v.-.( E 4.A.X.5 O < z z z z z z z z z z z z z z x z ",
"z z z z z z z z z z z z z 7 Z z 7 $ + B 0.u.u.b.N.!.)._.(.K.].].J.(._._.!.M.b.t.p.6.A.H.X.q . 4 7 z z z z z z z z z z z z z z z ",
"z z z z z x z z z z A z z z z Z k # + B 0.u.u.b.N.!._._.).K.g.g.K.(.).)./.I.i.I.H.G.d.6.{ a - 4 z z z z z z z z z z z z x z z z ",
"z z z z z z z z z z z z z z z z 7 $ + B 0.b.b.b.N.!._._.(.T.a.a.T.(.)._./.F.s.j.H.d.o.I H d p k z z z z z z z z z z z z z z z x ",
"z z z z z z z z z z z x z z z z k $ + B =.u.y.b.M.!.).).).Y.M.M.Y.).(.(.Z.d.'.].G.6.I ; * l S x z z z z z z z x z z x z z z z z ",
"z z z z z z z z z z z z z z z z k 1 : h ~ @.w.y.M.U.Y.^.(.!.N.N.!.!.B.:.%. .W | ..{ n * < x S x z z z z z z z z z z z z Z v z z ",
"z z z z z z z z A A z z A Z z z z z 7 p 8 m @.y.n.n.N.Y._.).^.!.).).:.Y q q , q q a s z v x x S S z z z z z z z z x z z z z z z ",
"z z z z z z z x A A x x A A z z z z z < # = ~ =.e.y.v.x.c.c.c.c.c.z.' h + o X o   $ 1 A S z Z A S z z z z z z z x z z x z z z z ",
"z z z z z z v A x z A A x z A A z z z 7 1 p j V O.e.e.[ R T R T Y Y V B g 0 O # < 1 7 Z z z z Z z z z z z z z z z x z z z z z z ",
"z z z z z z A A z z A A Z z Z Z z z z z z 7 * % N =.q.C & + @ + + % g Q Q 9 + # 4 z z z z z z z z z z z z z z z z x z z z z z z ",
"z z z z z z z z z z z z z z z z z z z z Z k < * j ( ) j & + o o & w M ^ ! w O $ 7 z z z z z z z z z z z z z z z z z z z z z z Z ",
"Z z x z z z z z z z z z z z z z k z z z z k 7 7 p i 9 e e 8 + @ g Q ! / ! w + $ p z z z z z z z A z z z z z z z z x z z z z z z ",
"z z z z z z z z z z z z z z z z z z z z z z z Z 1 O + 8 r 8 + % M / O.O.) f O # 7 z z z z z z z z z z z z z z z z z z z x z z z ",
"z z z z z z z z z z z Z z z z z z z z z z z Z k < O O 8 t 8 + % M / @.;.#.H + $ 7 z z z z z z z z z z z z z z z z z z z z z x z ",
"z z z z z z z z z z z z z z z z z z z z z z Z z < O + e t 8 + % M _ -.p.6.P + $ 7 z z z z z z z z z z z z z A z z z x z z z z z ",
"z z z z z z z z z z z z z z z z z z z z z z z k 1 O + u b u O ; U #.p.D.6.L + $ 7 z z z z z z z z z z z z z z z z z z z x z z z ",
"x z z z z z z z z z z z z z z z z z z z z z z Z 2 O O s J s O > } p.H.H.7.I + $ 7 z z z z z z z z z z z z z z z z z x z z z z z ",
"z z z z Z z z z z z Z z z z Z z z z z Z z z z z 4 $ - 6 G s - a { 5.7.7.3.K @ : 7 z z z z z z z z z z z z z z z z z z z z z x z ",
"z z z z z z z z z z z z z z z z z z z z z Z Z k 7 3 2 2 2 5 6 F H L L I K d 4 4 z z z k z z z z z z z z z z z z x z z x z z z z ",
"z x z z z z x z z x z z z z x z z z Z z z z z z k k 7 $ O : v G 5 % + + % 1 7 z 7 z z z z z z z z z Z z z z z z z z z z z z z z ",
"z z z z x z z x x z z x z z z z z z z z z z z z Z Z k $ O * c n u & % % % * < 4 z z z z z z z z z z z z z z z z z z z z z z z z ",
"z z z z x z z z z z z z z z z z z z z z z z z z z z 7 $ O & y t y r r r e & # < 7 Z z z z z z z z z z z z z z z z z z z z z z z ",
"z z Z z z x z z z x z z z z x z z z z z z z z z z Z 7 < O * e r r r r r 8 % o $ 7 A Z z z z z z z z z z z z z z z z A z z z z z ",
"z z x z z z x z z z z z z z z z z z z z z z z z z z 7 7 < < & & & & & & % + o * 7 A A z z z z z z z z z z z z z z z z z z A z z ",
"z z z z z z z z z z z z z z z z z z z z z Z k z z z Z k k < O   . X X . . . . $ 7 A x A A z z z Z z z z z z z z z z z z z z z z ",
"z z z z z z z z z z z z x x z x z z z z z z z z z z z Z z 7 < $ $ $ $ * $ $ $ 6 z z z A Z z z z z z z z z z z z z z z z z z z z ",
"z x z z z x z z z z z z z x S A z z S S z z z z z z k Z k Z Z Z Z Z Z x Z Z Z x z z z z z z z z z z z z z z z z z z z z z z z z ",
"x z z z z x x z z z z z z A A S Z z S S x z z z z z z z z z z z z z z z z z z z z z z z z z z z z z z z z z z z z z z z z z z z ",
"z z z z x z z z z z z z A S z A S S Z Z S S z z z z z z z z z z z z z z k z z z z z z z z z z z z z z A A z z A A z z z z z z z ",
"z z x z z z z x z z z z S S z z S S z z S S x z z z z z z z z z z z z z z z z z z z z z z z z z z z z A A z z A A z z z z z z z ",
"z z z z z z x z z z z z Z z z z Z z z z x x z z z z z z z z z z z z z z z z z z x z z z z z z z z A A x x A A z z A A z z z z z ",
"z z z z z z z z z z z z z z z z z z z z z z z z z z z z z z z z z z z Z z z z Z z z z z z z z z z A A z z A A z z A A z z z z z ",
"z x z z z z z x z z z z z z z z z z z z z z z z z z z z z z z z z z z z z z z z z z z z z z z z z z z z z z z z z z z z z z z z ",
"z z z x z z z z z z z z z z z z z z z z z z z z z z z z z z z z z z z z z z z z z z z z z z z z z z z z z z z z z z z z z z z z ",
"z z z z z z z z z z z z z z z z z z z z z z z z z z z z z Z z z z z z z z z z z z z z z z z z z z z z z z z z z z z z z z z z z "
};
