/* XPM */
static char *result[] = {
/* columns rows colors chars-per-pixel */
"64 64 9 1 ",
"  c #200529",
". c #5F2B2C",
"X c #584A4C",
"o c #9E4C3D",
"O c #EA8056",
"+ c #DC8C7E",
"@ c #EAB06B",
"# c #B66387",
"$ c none",
/* pixels */
"$$$$$$$$$$$$$$$$$$$$$                         $$$$$$$$$$$$$$$$$$",
"$$$$$$$$$$$$$$$$$$$$$                         $$$$$$$$$$$$$$$$$$",
"$$$$$$$$$$$$$$$$$$$$$                         $$$$$$$$$$$$$$$$$$",
"$$$$$$$$$$$$$$$$$$$$$                         $$$$$$$$$$$$$$$$$$",
"$$$$$$$$$$$$$$$$$$   OOOOOOOOOOOOOOO@@@@@@@@@@    $$$$$$$$$$$$$$",
"$$$$$$$$$$$$$$$$$$   OOOOOOOOOOOOOOO@@@@@@@@@@    $$$$$$$$$$$$$$",
"$$$$$$$$$$$$$$$$$$   OOOOOOOOOOOOOOO@@@@@@@@@@    $$$$$$$$$$$$$$",
"$$$$$$$$$$$$$$    OOOOOOOOOO@@@@@@@@@@@@@@@@@@@@@@   $$$$$$$$$$$",
"$$$$$$$$$$$$$$    OOOOOOOOOO@@@@@@@@@@@@@@@@@@@@@@   $$$$$$$$$$$",
"$$$$$$$$$$$$$$    OOOOOOOOOO@@@@@@@@@@@@@@@@@@@@@@   $$$$$$$$$$$",
"$$$$$$$$$$$$$$    OOOOOOOOOO@@@@@@@@@@@@@@@@@@@@@@   $$$$$$$$$$$",
"$$$$$$$$$$$   OOOOOOOOOOO@@@@@@@@@@@@@@@@@@@@@@@@@   $$$$$$$$$$$",
"$$$$$$$$$$$   OOOOOOOOOOO@@@@@@@@@@@@@@@@@@@@@@@@@   $$$$$$$$$$$",
"$$$$$$$$$$$   OOOOOOOOOOO@@@@@@@@@@@@@@@@@@@@@@@@@   $$$$$$$$$$$",
"$$$$$$$$$$$   OOOOOOO@@@@@@@@@@@@@@@@@@@@@@@@@@@@@   $$$$$$$$$$$",
"$$$$$$$$$$$   OOOOOOO@@@@@@@@@@@@@@@@@@@@@@@@@@@@@   $$$$$$$$$$$",
"$$$$$$$$$$$   OOOOOOO@@@@@@@@@@@@@@@@@@@@@@@@@@@@@   $$$$$$$$$$$",
"$$$$$$$$$$$   OOOOOOO@@@@@@@@@@@@@@@@@@@@@@@@@@@@@   $$$$$$$$$$$",
"$$$$$$$$$$$   OOOOOOO@@@@@@@@@@@@@@@@@@@@@@#######   $$$$$$$$$$$",
"$$$$$$$$$$$   OOOOOOO@@@@@@@@@@@@@@@@@@@@@@#######   $$$$$$$$$$$",
"$$$$$$$$$$$   OOOOOOO@@@@@@@@@@@@@@@@@@@@@@#######   $$$$$$$$$$$",
"$$$$$$$$$$$   OOOOOOO@@@@@@@++++@@@@@@@@@@@   ++++   $$$$$$$$$$$",
"$$$$$$$$$$$   OOOOOOO@@@@@@@++++@@@@@@@@@@@   ++++   $$$$$$$$$$$",
"$$$$$$$$$$$   OOOOOOO@@@@@@@++++@@@@@@@@@@@   ++++   $$$$$$$$$$$",
"$$$$$$$$$$$   OOOOOOO@@@@@@@++++@@@@@@@@@@@   ++++   $$$$$$$$$$$",
"$$$$$$$$$$$   OOOOOOO@@@@@@@++++@@@@@@@OOOO   ++++   $$$$$$$$$$$",
"$$$$$$$$$$$   OOOOOOO@@@@@@@++++@@@@@@@OOOO   ++++   $$$$$$$$$$$",
"$$$$$$$$$$$   OOOOOOO@@@@@@@++++@@@@@@@OOOO   ++++   $$$$$$$$$$$",
"$$$$$$$$$$$   OOOOOOO@@@@@@@####@@@@@@@OOOO+++++++   $$$$$$$$$$$",
"$$$$$$$$$$$   OOOOOOO@@@@@@@####@@@@@@@OOOO+++++++   $$$$$$$$$$$",
"$$$$$$$$$$$   OOOOOOO@@@@@@@####@@@@@@@OOOO+++++++   $$$$$$$$$$$",
"$$$$$$$$$$$   OOOOOOO@@@@@@@####@@@@@@@OOOO+++++++   $$$$$$$$$$$",
"$$$$$$$$$$$   OOOOOOO@@@@@@@OOOO@@@@@@@####+++    $$$$$$$$$$$$$$",
"$$$$$$$$$$$   OOOOOOO@@@@@@@OOOO@@@@@@@####+++    $$$$$$$$$$$$$$",
"$$$$$$$$$$$   OOOOOOO@@@@@@@OOOO@@@@@@@####+++    $$$$$$$$$$$$$$",
"$$$$$$$$$$$   OOOOOOO@@@@@@@OOOO@@@@@@@####+++    $$$$$$$$$$$$$$",
"$$$$$$$$$$$$$$    OOOOOOO@@@@@@@@@@@          $$$$$$$$$$$$$$$$$$",
"$$$$$$$$$$$$$$    OOOOOOO@@@@@@@@@@@          $$$$$$$$$$$$$$$$$$",
"$$$$$$$$$$$$$$    OOOOOOO@@@@@@@@@@@          $$$$$$$$$$$$$$$$$$",
"$$$$$$$$$$$$$$$$$$   OOOO           ooo    $$$$$$$$$$$$$$$$$$$$$",
"$$$$$$$$$$$$$$$$$$   OOOO           ooo    $$$$$$$$$$$$$$$$$$$$$",
"$$$$$$$$$$$$$$$$$$   OOOO           ooo    $$$$$$$$$$$$$$$$$$$$$",
"$$$$$$$$$$$$$$$$$$   OOOO           ooo    $$$$$$$$$$$$$$$$$$$$$",
"$$$$$$$$$$$$$$$$$$$$$    ...    ooooooo    $$$$$$$$$$$$$$$$$$$$$",
"$$$$$$$$$$$$$$$$$$$$$    ...    ooooooo    $$$$$$$$$$$$$$$$$$$$$",
"$$$$$$$$$$$$$$$$$$$$$    ...    ooooooo    $$$$$$$$$$$$$$$$$$$$$",
"$$$$$$$$$$$$$$$$$$$$$    ...    oooo+++    $$$$$$$$$$$$$$$$$$$$$",
"$$$$$$$$$$$$$$$$$$$$$    ...    oooo+++    $$$$$$$$$$$$$$$$$$$$$",
"$$$$$$$$$$$$$$$$$$$$$    ...    oooo+++    $$$$$$$$$$$$$$$$$$$$$",
"$$$$$$$$$$$$$$$$$$$$$    ...    oooo+++    $$$$$$$$$$$$$$$$$$$$$",
"$$$$$$$$$$$$$$$$$$$$$    XXX    +++++++    $$$$$$$$$$$$$$$$$$$$$",
"$$$$$$$$$$$$$$$$$$$$$    XXX    +++++++    $$$$$$$$$$$$$$$$$$$$$",
"$$$$$$$$$$$$$$$$$$$$$    XXX    +++++++    $$$$$$$$$$$$$$$$$$$$$",
"$$$$$$$$$$$$$$$$$$$$$$$$$   XXXX       $$$$$$$$$$$$$$$$$$$$$$$$$",
"$$$$$$$$$$$$$$$$$$$$$$$$$   XXXX       $$$$$$$$$$$$$$$$$$$$$$$$$",
"$$$$$$$$$$$$$$$$$$$$$$$$$   XXXX       $$$$$$$$$$$$$$$$$$$$$$$$$",
"$$$$$$$$$$$$$$$$$$$$$$$$$   XXXX       $$$$$$$$$$$$$$$$$$$$$$$$$",
"$$$$$$$$$$$$$$$$$$$$$$$$$   ...........    $$$$$$$$$$$$$$$$$$$$$",
"$$$$$$$$$$$$$$$$$$$$$$$$$   ...........    $$$$$$$$$$$$$$$$$$$$$",
"$$$$$$$$$$$$$$$$$$$$$$$$$   ...........    $$$$$$$$$$$$$$$$$$$$$",
"$$$$$$$$$$$$$$$$$$$$$$$$$$$$               $$$$$$$$$$$$$$$$$$$$$",
"$$$$$$$$$$$$$$$$$$$$$$$$$$$$               $$$$$$$$$$$$$$$$$$$$$",
"$$$$$$$$$$$$$$$$$$$$$$$$$$$$               $$$$$$$$$$$$$$$$$$$$$",
"$$$$$$$$$$$$$$$$$$$$$$$$$$$$               $$$$$$$$$$$$$$$$$$$$$"
};
