/* XPM */
static char *result[] = {
/* columns rows colors chars-per-pixel */
"64 64 10 1 ",
"  c #200529",
". c #5F2B2C",
"X c #584A4C",
"o c #6E7468",
"O c #9E4C3D",
"+ c #EA8056",
"@ c #DC8C7E",
"# c #EAB06B",
"$ c #B66387",
"% c None",
/* pixels */
"%%%%%%%%%%%%%%%%%%                         %%%%%%%%%%%%%%%%%%%%%",
"%%%%%%%%%%%%%%%%%%                         %%%%%%%%%%%%%%%%%%%%%",
"%%%%%%%%%%%%%%%%%%                         %%%%%%%%%%%%%%%%%%%%%",
"%%%%%%%%%%%%%%    +++++++++++++++++++++++++   %%%%%%%%%%%%%%%%%%",
"%%%%%%%%%%%%%%    +++++++++++++++++++++++++   %%%%%%%%%%%%%%%%%%",
"%%%%%%%%%%%%%%    +++++++++++++++++++++++++   %%%%%%%%%%%%%%%%%%",
"%%%%%%%%%%%%%%    +++++++++++++++++++++++++   %%%%%%%%%%%%%%%%%%",
"%%%%%%%%%%%   ++++#########################+++    %%%%%%%%%%%%%%",
"%%%%%%%%%%%   ++++#########################+++    %%%%%%%%%%%%%%",
"%%%%%%%%%%%   ++++#########################+++    %%%%%%%%%%%%%%",
"%%%%%%%    +++################################++++   %%%%%%%%%%%",
"%%%%%%%    +++################################++++   %%%%%%%%%%%",
"%%%%%%%    +++################################++++   %%%%%%%%%%%",
"%%%%%%%    #######################################   %%%%%%%%%%%",
"%%%%%%%    #######################################   %%%%%%%%%%%",
"%%%%%%%    #######################################   %%%%%%%%%%%",
"%%%%%%%    #######################################   %%%%%%%%%%%",
"           #######+++++++++++++++++++++++++#######          %%%%",
"           #######+++++++++++++++++++++++++#######          %%%%",
"           #######+++++++++++++++++++++++++#######          %%%%",
"    @@@$$$$###++++$$$$$$$$$$$$$$$$$$$$$$$$$+++####$$$@@@@   %%%%",
"    @@@$$$$###++++$$$$$$$$$$$$$$$$$$$$$$$$$+++####$$$@@@@   %%%%",
"    @@@$$$$###++++$$$$$$$$$$$$$$$$$$$$$$$$$+++####$$$@@@@   %%%%",
"    @@@$$$$###++++$$$$$$$$$$$$$$$$$$$$$$$$$+++####$$$@@@@   %%%%",
"%%%%   $$$$+++$$$$@@@    @@@@@@@@@@@   @@@@$$$++++$$$    %%%%%%%",
"%%%%   $$$$+++$$$$@@@    @@@@@@@@@@@   @@@@$$$++++$$$    %%%%%%%",
"%%%%   $$$$+++$$$$@@@    @@@@@@@@@@@   @@@@$$$++++$$$    %%%%%%%",
"%%%%%%%    +++@@@@@@@    @@@@@@@@@@@   @@@@@@@++++   %%%%%%%%%%%",
"%%%%%%%    +++@@@@@@@    @@@@@@@@@@@   @@@@@@@++++   %%%%%%%%%%%",
"%%%%%%%    +++@@@@@@@    @@@@@@@@@@@   @@@@@@@++++   %%%%%%%%%%%",
"%%%%%%%    +++    @@@@@@@@@@@@@@@@@@@@@@@@@   ++++   %%%%%%%%%%%",
"%%%%%%%    +++    @@@@@@@@@@@@@@@@@@@@@@@@@   ++++   %%%%%%%%%%%",
"%%%%%%%    +++    @@@@@@@@@@@@@@@@@@@@@@@@@   ++++   %%%%%%%%%%%",
"%%%%%%%    +++    @@@@@@@@@@@@@@@@@@@@@@@@@   ++++   %%%%%%%%%%%",
"%%%%%%%%%%%   ....                         ...    %%%%%%%%%%%%%%",
"%%%%%%%%%%%   ....                         ...    %%%%%%%%%%%%%%",
"%%%%%%%%%%%   ....                         ...    %%%%%%%%%%%%%%",
"%%%%%%%    OOOOOOO...OOOOOOOOOOOOOOOOOO....OOOOOOO   %%%%%%%%%%%",
"%%%%%%%    OOOOOOO...OOOOOOOOOOOOOOOOOO....OOOOOOO   %%%%%%%%%%%",
"%%%%%%%    OOOOOOO...OOOOOOOOOOOOOOOOOO....OOOOOOO   %%%%%%%%%%%",
"%%%%%%%    @@@OOOO   ....OOOOOOOOOOO...    OOO@@@@   %%%%%%%%%%%",
"%%%%%%%    @@@OOOO   ....OOOOOOOOOOO...    OOO@@@@   %%%%%%%%%%%",
"%%%%%%%    @@@OOOO   ....OOOOOOOOOOO...    OOO@@@@   %%%%%%%%%%%",
"%%%%%%%    @@@OOOO   ....OOOOOOOOOOO...    OOO@@@@   %%%%%%%%%%%",
"%%%%%%%    @@@@@@@   ..................    @@@@@@@   %%%%%%%%%%%",
"%%%%%%%    @@@@@@@   ..................    @@@@@@@   %%%%%%%%%%%",
"%%%%%%%    @@@@@@@   ..................    @@@@@@@   %%%%%%%%%%%",
"%%%%%%%%%%%       oooooooXXXXXXXXXXXooooooo       %%%%%%%%%%%%%%",
"%%%%%%%%%%%       oooooooXXXXXXXXXXXooooooo       %%%%%%%%%%%%%%",
"%%%%%%%%%%%       oooooooXXXXXXXXXXXooooooo       %%%%%%%%%%%%%%",
"%%%%%%%%%%%       oooooooXXXXXXXXXXXooooooo       %%%%%%%%%%%%%%",
"%%%%%%%%%%%%%%    XXXXXXXXXX    XXXXXXXXXXX   %%%%%%%%%%%%%%%%%%",
"%%%%%%%%%%%%%%    XXXXXXXXXX    XXXXXXXXXXX   %%%%%%%%%%%%%%%%%%",
"%%%%%%%%%%%%%%    XXXXXXXXXX    XXXXXXXXXXX   %%%%%%%%%%%%%%%%%%",
"%%%%%%%%%%%%%%    OOO....   %%%%    ...OOOO   %%%%%%%%%%%%%%%%%%",
"%%%%%%%%%%%%%%    OOO....   %%%%    ...OOOO   %%%%%%%%%%%%%%%%%%",
"%%%%%%%%%%%%%%    OOO....   %%%%    ...OOOO   %%%%%%%%%%%%%%%%%%",
"%%%%%%%%%%%%%%%%%%       %%%%%%%%%%%       %%%%%%%%%%%%%%%%%%%%%",
"%%%%%%%%%%%%%%%%%%       %%%%%%%%%%%       %%%%%%%%%%%%%%%%%%%%%",
"%%%%%%%%%%%%%%%%%%       %%%%%%%%%%%       %%%%%%%%%%%%%%%%%%%%%",
"%%%%%%%%%%%%%%%%%%       %%%%%%%%%%%       %%%%%%%%%%%%%%%%%%%%%",
"%%%%%%%%%%%%%%%%%%%%%%%%%%%%%%%%%%%%%%%%%%%%%%%%%%%%%%%%%%%%%%%%",
"%%%%%%%%%%%%%%%%%%%%%%%%%%%%%%%%%%%%%%%%%%%%%%%%%%%%%%%%%%%%%%%%",
"%%%%%%%%%%%%%%%%%%%%%%%%%%%%%%%%%%%%%%%%%%%%%%%%%%%%%%%%%%%%%%%%"
};
