/* XPM */
static char *result[] = {
/* columns rows colors chars-per-pixel */
"64 64 8 1 ",
"  c #161412",
". c #1B211B",
"X c #28211F",
"o c #393132",
"O c #4C3F3B",
"+ c #5D5F4F",
"@ c #9C9D80",
"# c none",
/* pixels */
"################################################################",
"############################X###################################",
"###########################XOX##################################",
"########################### OO #################################",
"########################### o+O ################################",
"########################## Xo+O ################################",
"######################### OXo@+X################################",
"######################## OOoo@+X##########XX####################",
"######################## OXoXO++X########X++X###################",
"######################## XXXXO++O#######X+++@X##################",
"########################o XXOOOXXX######O+++@XX#################",
"########################oX   XXXO+X#####XXO+@@OX################",
"########################oXooooo@++X#### Xoo+@@+X################",
"####################### XXXooO+@@+ ### OXoo++@@+X###############",
"###################### XXXXooOO+@OO # OOoooO++@OX###############",
"#####################   XXXooOOO+OOO  OXooOO++@OX###############",
"#################### XXXXXXooOOOXX   OOXooOO++OOOX##############",
"#################XXXX+++++XXooXXO++O OOX ooOO++OOX##############",
"################X+++++++++++XXXO+@+XO  X XoOOOOOX###############",
"################X+++@++++++++++XX@OXOX     XXXXXOX##############",
"################ X++@@++++++++++@XXoXXXX XXX++++O+X#############",
"################ Oo++@@@+++++++@@XXoXXXX+++++++++OX#############",
"################ Ooo++@@++++++@@@XoXXXXoo@@++@@@@@OX############",
"############### OOXoo++@@+++@@@OOOXXXXXoo++@@@@@@+OX############",
"############### OOXXXoo++@@@@O+++OXXoXXooOOOOOO++OOX############",
"############### OOoXXoo+@@@+OO+@@OXoooXooOOOOOO++OOX############",
"############### OooXXXoo@@+OOO+@@OXooXXooOOOOOO++OOX############",
"############## OOoXXXXXoo@+OOO+@@OO XXXoooOOOOO+OOX+X###########",
"############## OooXXXXXoo@+OOO+@+OO XXXoooOOOOOXXXX+OX##########",
"############## OooXXXXXooo+OOO+@+OO   XooooOXXXX@@++OOX#########",
"#############  OooXXXXXoooOOOO++OOO X    XXXX+++@@++++X#########",
"#############  XXoXXX  oooOOOO++OOOO oooOOOOO+++@@@+OOX#########",
"#############   XXX XX oooOOOOOOOOXX XXXoooOOOO++@@+OO #########",
"############# X  X  XX ooooOOOOOXXX+ XXoooOOOO+++@+OOO #########",
"############# XO       ooX XXXXX++++OXooOOO++++++@+OOO #########",
"############# OOXXXo   oXX ++++++++OOXoO+++++OOO+++OO   ########",
"############  OOXXXXo      OOO+@@@++OOXoO+OOOOOOOOOXXX++########",
"############ XOOXXXXooXXXX OOOO+@@@+OOOXoOOOOOOOXXX++++O..######",
"############ XOOoXXXXoooXXXoOOOO+@@+OOOXoOOOXXXXX+@+++OO #######",
"############ OOOoXXXXXooooooOOOO@@@+OOOXoOO    +++@@+OOO .######",
"############ OooXXXXXoooooooOOO++++OOOOOXXXXX+OOO++@@+OOOX...###",
"###########  OooXX XXooooooOOOO++++OOOOOOXXOOOOOOOO@@@OOOX..####",
"########### XOooXX XXXooooOOOOOOO+++OOOOXOOOOOOOOOO++@+OOX..####",
"########### XXooXX XXooooOOOoOOOO+++OOOO oooOOOOOOOO+++OX..#####",
"##########   XXXX  XXooooOOooOOOO+++OOOOO ooOOOOOOOOOOOX....####",
"##########XX  XX  XXXooooXooOOOOOO++OOOOOO ooOOOOOOOOOXX.....###",
"######### XOXX   XXXXooooXoOOOOOOOOOOOOOOO oOOOOOOOOOXX...######",
"######### XOOXXX   XXXoooXXOOOOOOOOOOOXX   oOOOOOOOXX...########",
"#####.... XOOXXX  o   oooXXOOOOOOOOOXXX++OOXOOO   X.....########",
"####.... XOOooXXX ooo     XXXOOOXXXXOO+++++X..  .......#########",
"######..XXOoooXXX ooooooOOOOXXXXXOOO@@@@++OX..........##########",
"######..XXOooooXX  XoooooooOOOO++++@@@@++OOX.....###############",
"###.....X XooooXX  XXXoooooO++++++@@@@@@OOOX..##################",
"####....X XXXXoXX XXXXooooOOOOOO+@@@@@++OOOOX.##################",
"#####...X   XXXXX XXXXooooOOoOOOO++@@@@+OOOOX..#################",
"#######.XXX  XXXXXXXXXooooOOooOOOO++@@@+OOOOO ...###############",
"######.. XXXXXXXXXXX  ooooOooooOOOOO++@+OOO  ...################",
"#######.   XXXXXXX    ooooOoOOOOOOOOOOOO    ...#################",
"########..   XXXXXXX  oooXOOOOOOOOOXXXX .......#################",
"########....   XXXXX oooXXXXXOXXXXXX........####################",
"#####.........       XXX     XX...........######################",
"########..##.....         ......################################",
"#################....  ..............###########################",
"###################..........###################################"
};
