/* XPM */
static char *result[] = {
/* columns rows colors chars-per-pixel */
"64 64 146 2 ",
"   c gray12",
".  c #211F20",
"X  c #242323",
"o  c #2A2323",
"O  c #242926",
"+  c #2D2926",
"@  c #24272A",
"#  c #242A2C",
"$  c #2E2C29",
"%  c #342423",
"&  c #392126",
"*  c #362E27",
"=  c #3B2823",
"-  c #332E2A",
";  c #26322A",
":  c #2C352D",
">  c #273B2E",
",  c #28392E",
"<  c #35312C",
"1  c #3A332E",
"2  c #3E3B2E",
"3  c #262D33",
"4  c #2B2E32",
"5  c #282F39",
"6  c #2B3534",
"7  c #2A3D31",
"8  c #29313B",
"9  c #3F3730",
"0  c #343A33",
"q  c #3F3831",
"w  c #432227",
"e  c #492626",
"r  c #432922",
"t  c #432329",
"y  c #4D222A",
"u  c #542D25",
"i  c #582F24",
"p  c #53222B",
"a  c #5D232D",
"s  c #5C2929",
"d  c #4F3126",
"f  c #5C3124",
"g  c #403730",
"h  c #473D35",
"j  c #483E35",
"k  c #62232E",
"l  c #69272D",
"z  c #65292B",
"x  c #6C292D",
"c  c #732D2C",
"v  c #643326",
"b  c #6C3627",
"n  c #6C3129",
"m  c #723726",
"M  c #753827",
"N  c #783826",
"B  c #75312B",
"V  c #7C332A",
"C  c #7C3A28",
"Z  c #2C4536",
"A  c #2D4936",
"S  c #2E463F",
"D  c #2F4C39",
"F  c #314233",
"G  c #394333",
"H  c #35463A",
"J  c #324E3A",
"K  c #32543D",
"L  c #4D4239",
"P  c #52463B",
"I  c #2B3744",
"U  c #2D3A45",
"Y  c #2E3B4A",
"T  c #313F4E",
"R  c #2E3E50",
"E  c #2D4441",
"W  c #2F424D",
"Q  c #304347",
"!  c #314A45",
"~  c #30414D",
"^  c #334A4E",
"/  c #335143",
"(  c #355D43",
")  c #34554B",
"_  c #365B4E",
"`  c #324451",
"'  c #334D51",
"]  c #355350",
"[  c #375C50",
"{  c #396447",
"}  c #37614E",
"|  c #39634E",
" . c #376949",
".. c #3A6C4C",
"X. c #3C724E",
"o. c #396350",
"O. c #3B6E50",
"+. c #3D7450",
"@. c #444342",
"#. c #484745",
"$. c #434B54",
"%. c #555655",
"&. c #47604E",
"*. c #427453",
"=. c #487356",
"-. c #4F7D5E",
";. c #527B5D",
":. c #445260",
">. c #525E67",
",. c #525E6B",
"<. c #567F61",
"1. c #637576",
"2. c #6A7C7C",
"3. c #833C27",
"4. c #813729",
"5. c #853A29",
"6. c #8D3E28",
"7. c #8F4029",
"8. c #904029",
"9. c #67826F",
"0. c #668375",
"q. c #698B74",
"w. c #6A9274",
"e. c #858C82",
"r. c #93998E",
"t. c #9DA297",
"y. c #9CB19C",
"u. c #A3A7A9",
"i. c #A5A9AA",
"p. c #ADB1A6",
"a. c #A9B9A7",
"s. c #B7B3AC",
"d. c #B2B2B0",
"f. c #BAB7B0",
"g. c #C0BEBA",
"h. c #B7C7B2",
"j. c #BEC1BB",
"k. c #C5C4BA",
"l. c #CBC6BE",
"z. c #D5DACC",
"x. c #DADBD1",
"c. c #DDE1D2",
"v. c #E6E2DC",
"b. c #F5EFE6",
"n. c #FBF5EC",
"m. c #FFFCF2",
/* pixels */
"h h j h h h h h h h h h h h h h h h h h h j h h h h h h h j h h j h h j h h j h h h h h h h h h h h j h h h h h h h h h h h h h ",
"h h h h h j j h h j h j h j h h h h h h h h j h h h h h h h h h h h h h h h h h h h h h h j h h h h h h h h h h h h h h h h h h ",
"h h h h h h j h h j h h j h j h h h h h h j h h h h h h h h h h h h h h h h h h h h h h h h h h h h h h h h h h h h L h h L h h ",
"h h h j h h h j h h h h h h h h h h h h h h h h h h h j h h h h j h h j h h h h h j h h h h h h h h h j h h L h h h h h h h h h ",
"j h h h h h j h h h h h h h j h h h h h h h h h h h h h h h h h h h h h h h h h h P P h h h h h j h h h h h h h h h h h h h h h ",
"h h h j h j h h h h h h h h h h h h h h h h h j h h h h h h h h h h h h h h h h h P P j h h h h h h h j h j j h h h h h h h h h ",
"h h h h j h h j h h h h j h h h h h j j j j j j L j j h h h h h h j h h h h h #.P L j P P h h h h h h h h h j h h h h L h h h h ",
"h j h h h j j h h h h h h h h h j j j j j P j j L L j h h h h h h h h h h h j P P h h P P h h h h j h h h h h h h h h h h h h h ",
"h h h h h h h h h h h h h h h h h h L L h j L L j j L L h h h j h h h h h h h h h h h h h h h h h h h h h h h h h h h h h h h h ",
"h j h h h j h h h h L h h h h h h j L L h h L j h j L L h h h j h h h h h h h h h h h h h h h h h h h h h h h h h h h h h h h h ",
"h j j h h j h j h h h h h h h h h g h h h h h h h h g < - - - - - - * * * - < * * * * < q h h h h h h h L h h h h h L h h L h h ",
"h h h h h h h h h h h h h h h h h h h h h h h h j g < O X O O O O # X X O O O O O O O O 1 h h h h h h h h h h h h h h h h h h h ",
"h h h h j h h h h h h h h h h h h h h h h h h h g - 4 8 E K K K K K K K K K K K K K K K : < g j h g h h h h h h h h L h h h h h ",
"h j j h j @.h j h h h h h h L h h h h h h h h h 1 o 3 ~ [ +.X.X.*.X.X.X.X.X.X.X.X.X.X. ., o q h h h h L h h h h h h h h h h h h ",
"h h h h h h h h h h h h h h h h h h h h h h h h 9 X 3 ~ _ ..X.X.X.X.X.X.X.X.X.X.X.X.X. ., + q h g h h h h h h h h h h h h h h h ",
"h h h h h h h h h h h h h h h h h h h h h h h h 9 o 3 ~ _ X.X.X.X.X.X.X.X.X.X.X.X.X.X. ., o q h h h h h h h h h h h h h h h h h ",
"h h h h h h h h h h h j h h h h h h h h h h h h 1 o 3 ` [ X.X.X.X...X.X.X.X...X.X.X.X. .> o 2 h L P P L g P P L g L L g L L g L ",
"h j h h h h h h h h h h h h h h h 9 - 9 g 9 - - - X 3 Y [ ..o._ [ [ [ _ _ [ [ _ _ _ [ ) ; + 1 L h L L L L L P L L g g L g L L g ",
"h h j h h h h h h h h h h h h h h 9 + $ g - . o X . 3 T [ ..] ` ~ W W ~ ` ` ^ ` ` ` W Y 3 o g P P L L L P L L P L g L g L L g L ",
"h h h h h h h j h h h j h h h h h g 9 - - o . & t o 3 T [ O.o.) 8 3 3 ! [ | | [ } _ E 3 X + g P P g L L L L g L P L g L g g L g ",
"h h j j h h #.P j j P P j h g 9 g h g < @ X . p p % 3 T _ X.X.{ ; . O J X.X.X.X.+...A X X O < h h L g L L g L L h L g L L g L g ",
"h h h j h j P P j j P P j j - + 9 g $ 4 I 3 o p p % 3 R _ X.X.K O . X D X.X.X.X.X.X.A X     o < g g L g g L g q g g L g g L g L ",
"h h j j P P j j P P j j P P 9 + < < # 5 8 3 . p p . 3 W _ *.w.9.U # ; / X.X.X.X.+...D 6 %.%.$ + g g g L L g L L L h h h h h L L ",
"h h j j P P j j P P h h P P g 9 - # I I @ . o p p o 3 T _ -.h.j.>.Y ~ _ X.X.X.X.X.O.) :.d.s.@.+ L L L g g L g L h h h h h h h 2 ",
"j h h g h j h h h h h j h h 9 - X # Y ~ Z ; o y p % 3 T Q &.k.v.i.2.o.o.*.+.+.X.X.*.0.u.v.l.#.+ q h g h h L h h h h h h h h L g ",
"h h j j h h h h h h h j h h $ X . # Y ) { A o p p . 3 T 6 U f.n.b.a.=. ...........*.y.v.n.k.#.+ h h L h h g L h h h h h h h g L ",
"h h h h h h h h h h h h h h 9 - o # Y ] ..A . y a . 3 T I $.g.m.m.p.J > 7 7 Z > > H t.n.m.l.#.o q L g L h h h h h L g L h h L g ",
"h h j h h h h h h h h h h h h 9 o # T ' [ S o p p % # Y Y :.u.x.x.r.0 $ ; ; O ; # : e.z.c.p.L O q h h h h h h h L g L g h L g L ",
"h j h h h h h h h j h h h h - o . # Y ` ` 8 o p p . O # 8 ` ,.1.q.<.{ { ( { ( ( ( { ;.w.w.;.6 + h h h h h h h h h h L g h g L g ",
"h h j h j h h h h h h h h h 9 o X # Y ` ' 7 . p a p % O 5 ` R ` _ } o.o.| o.o.| o.| | _ ( A O $ q h h h h h h h h h h L h L g L ",
"h j h h h h h h h h h h h h g g + @ Y ] | Z X y l V f o 8 R R ` ` ` ` ` ^ ` ` ` ` ` ` ~ 4 O . $ h h h h L h h h h h L g h h L h ",
"h h h h h h h h h h h h h h j g + @ Y ` _ 7 . p x 6.v o @ I 8 5 5 5 5 5 5 5 8 8 8 5 5 5 5 3 O $ q h h h g L h h h h h h h h h h ",
"h h h h h h h h h h h h h h h h + @ Y ` ` 8 + y z 5.v o X X O + # O O O O # O O O @ O # U U # * g h g L h L h h h h h h L h h h ",
"h h h h h h h h h h h h h h h g + # Y ` W ! J < w z B v = X A K K K K K K K K K K K K K } / # + g L h g h h h h h h h h g L h h ",
"h h h h h h h h h h h h h h h g @ # Y ` ' [  ., % p c 6.v * K { {  .X.X.X.X.X.X.X.O.o.O.X.( ; + g h h h h h h h h h h h h h h h ",
"h h h h h h h h P j h h P j h h o @ Y ' } +.{ , % p B 3.3.b 1 ; ; D X.X.X.X.X.X.| ' ' ] ..( # < L L h h h h h h h h h h h h h h ",
"h j h h h h h h L L h h j P j h $ # Y ` o.....J < e z V 5.6.i r r G K K (  .X.X.| ] ] ] ..{ # * L L h h h L h h h L h h h h L h ",
"h h h h h h L L h h L L j j j j + @ R ` ` [ X.../ ; & k V 6.3.3.3.f + O : ( X.X.X.......X.K ; + g h g h g h h h h h h h h h h h ",
"h j j h h h L L h h L L h j j h + @ Y R R ' | .. .K 0 t s V 6.7.8.N u d d G D D K X.X.X.+.{ ; * h h h h L h h h h h h h h h h h ",
"h h h h h h h h h h h h h h j g o # Y R Y T ^ _  .{ J - e x V 7.7.7.7.7.C d o o A { X.....K ; o q h h h g L h h h h h h h h h h ",
"h h h h h h h h h h h h h h g $ X o 3 3 3 3 3 6 Z 7 < e z V 6.6.7.7.7.7.6.m v b d , F Z F >   O $ 1 h h h h h h h h L h h h h h ",
"h j h j h h h h h h h h h h * . o . & . . & o o % % e z V 7.8.6.7.7.6.6.7.8.7.7.b = % % % % % o X $ h h h h h h h h h h h h h h ",
"h j h h h h h h h h h h h g $ . t p p p p p a n M M N 5.6.6.7.8.7.7.7.7.8.6.6.8.3.N m m N N M u o < h h h h h h h h h h h h h h ",
"h h h h h h h h h h h h h h - . p k k k k l c 5.8.7.6.7.7.6.6.6.6.6.6.7.6.6.8.6.7.7.7.7.6.6.6.v o - h h h h h h h h h h h h h h ",
"h h j h h h h j h h h h h h - % y k k k k c 5.6.6.6.7.6.7.7.6.7.8.7.7.6.6.8.6.6.7.7.6.6.6.6.6.v o < h h h h h h h L h h h L h h ",
"h j h j h h h h h h h h h h - . y k k k k x V 5.7.7.6.7.6.6.7.7.7.7.7.8.7.7.6.6.7.7.6.6.6.6.4.s o - h h h h h h h h h h h h h h ",
"h h h h h h h h h h h h h h - . y k k k z k x 4.7.6.6.7.7.7.7.7.7.8.8.8.6.8.7.6.3.6.6.6.6.4.x w o < h h h h h h h h h h h h h h ",
"h j j h j j h j h h h h h g - . y k k x V V 4.6.7.6.7.7.7.7.7.7.7.8.8.6.6.8.3.B 4.3.4.c c x l w X < g h h h h h h h h h h h h h ",
"h h j h h h h h h h h h h h $ . y k k x 5.6.6.6.6.6.6.6.7.7.7.7.7.7.7.7.6.7.5.x c 6.V l l k k y o - h h h h h h h h h h h h h h ",
"h h h h h h h h h h h h h h $ & y k k k x V 6.6.6.6.8.6.7.6.6.6.7.6.6.6.6.6.6.5.5.6.5.5.5.V k t o * h h h h h h h h h h h j j h ",
"h h h h h h @.h h h h h h h $ . y k k k c B 4.6.8.8.8.8.7.7.7.7.7.7.7.7.7.8.7.7.6.6.6.6.5.B l y X - h h h h h h h h h h h h h h ",
"h h h j h h h h j h h h h h 1 . y k k c 4.c x 4.6.8.6.6.7.7.7.7.6.6.7.6.6.7.6.6.6.6.6.6.c k k t o - h h h h h h h h h h j j h h ",
"j h h h h h j h h h h h h h & . & w w s c l l c B v f f f f f f f f f f f f v c 4.c V c p t t % X - h h h h h h h h h h h h h h ",
"h h h j h j h h h h h h h h 4 o X o X & a a a a y % o o o o o + o o o o o X % p k a k a & . o o o - h h h h h h h h h h j h h j ",
"h h h h h h j h h h h h j j g < < - . X % & % & % . o < < < 1 < < < < < - X X % & & & & . + * 1 < g h h h h h h h j h h h h h h ",
"h j h h h h h h h h h h h j P P j 2 + o X . X X X X - g L g L g h L g L h $ X . . X X . . % g j j j h h h h h h h h h h h j h h ",
"h h h h h j h h h h h h h j P P L h L L h g g h h g g h h h h g h h h g h g h h h g h h h g h g h h h h h h h h h h h h h h h h ",
"h j h h h h h j h h h h P P j j P P L L P P L h h h L h h h h h h h h h L h h h h h h h h j h h h h j j P h h j L h h h h h h h ",
"h j h j h h h h h j h h P P j h L P h h P P L h h h h h h h h h h h h h g h h h h h h h h h h h h h j P j j j P L j h h h h h h ",
"h h h h h j h h h h h h j j j h h L h h L h g h h h h h h h h h h h h h L h h h h h h h h h h h j j j h h P j j h L L h h h h h ",
"h h h h h h h h h h h h h h h h h h h h g h g h h h h h L h h h h h h L h h h h j h h j h h h h j #.j j h j L j h L j h h h h h ",
"h j h h h j h h h h h h h h h h h h h h L h L h h h h h h h h h h h h h h h h h h h h h h h h h j h j j h h j j h j j h h h h h ",
"h j j h h h j h h h h h h h h h h h h h h h h h h L h h h h h h h h h h h h h h h h h h h h h h h h j h h h h j h h h h h h j h ",
"h h h h h h h h h h h h h h h h h h h h h h h h h g L h h h h h h h h h h h h h h h h h h h h h h j h h h h h h h h h h h h h h "
};
