/* XPM */
static char *result[] = {
/* columns rows colors chars-per-pixel */
"64 64 108 2 ",
"   c #003D3F",
".  c #0E3D3D",
"X  c #113E3D",
"o  c #1B3D3B",
"O  c #243C3A",
"+  c #2B3C39",
"@  c #3E3B35",
"#  c #323D3A",
"$  c #473D35",
"%  c #493D35",
"&  c #443F38",
"*  c #533E34",
"=  c #5D3E34",
"-  c #633F34",
";  c #3F423E",
":  c #43413B",
">  c #4D4239",
",  c #564034",
"<  c #5B4134",
"1  c #52463B",
"2  c #59473A",
"3  c #54483D",
"4  c #624334",
"5  c #6C4334",
"6  c #664339",
"7  c #6D4439",
"8  c #6D483F",
"9  c #7C4233",
"0  c #74463B",
"q  c #7A4539",
"w  c #7D4A3C",
"e  c #013E40",
"r  c #0D4345",
"t  c #06454A",
"y  c #0B464A",
"u  c #124345",
"i  c #1B4343",
"p  c #144649",
"a  c #194749",
"s  c #1D484B",
"d  c #214545",
"f  c #2A4646",
"g  c #2D4947",
"h  c #214748",
"j  c #234A4D",
"k  c #2B4C4E",
"l  c #354645",
"z  c #3D4643",
"x  c #394847",
"c  c #344C4C",
"v  c #3C4C4B",
"b  c #244D51",
"n  c #2D4E51",
"m  c #314E50",
"M  c #504742",
"N  c #5C4741",
"B  c #554D49",
"V  c #5C4D49",
"C  c #4F524B",
"Z  c #634A43",
"A  c #744C44",
"S  c #645244",
"D  c #6F5547",
"F  c #8F4433",
"G  c #834C34",
"H  c #8D4E34",
"J  c #86483C",
"K  c #8C493C",
"L  c #954433",
"P  c #9C4635",
"I  c #944B3D",
"U  c #9C493A",
"Y  c #8E5237",
"T  c #9A5234",
"R  c #A34533",
"E  c #AC4736",
"W  c #A04E35",
"Q  c #B44733",
"!  c #B24936",
"~  c #BC4A36",
"^  c #A35333",
"/  c #B25734",
"(  c #B95B36",
")  c #B55C39",
"_  c #C54933",
"`  c #CC4A35",
"'  c #D14A33",
"]  c #DD4C33",
"[  c #C35B34",
"{  c #C95D34",
"}  c #D15F33",
"|  c #E24C33",
" . c #EB4C32",
".. c #F24C31",
"X. c #FF4D30",
"o. c #E35533",
"O. c #EF5132",
"+. c #E55D33",
"@. c #F25C32",
"#. c #D66134",
"$. c #DB6133",
"%. c #E66434",
"&. c #E96634",
"*. c #F36633",
"=. c #F36834",
"-. c #FF6B33",
";. c #834D42",
":. c #8D4C40",
/* pixels */
"$ $ $ $ $ $ $ $ % $ $ $ % & $ $ $ $ $ $ $ $ $ $ $ $ $ $ $ $ % $ $ $ % $ $ $ % $ $ $ $ $ $ $ $ $ $ $ $ $ $ $ $ $ $ $ $ $ $ $ $ $ ",
"$ $ $ $ $ $ $ $ % % $ $ % % $ $ $ $ $ $ $ $ $ $ $ $ $ > $ $ $ $ $ % $ $ $ $ $ $ $ $ $ $ @ , $ $ $ $ $ $ $ $ , @ > $ $ $ $ $ $ $ ",
"$ $ $ $ $ $ $ $ % % % & $ $ $ $ $ $ $ $ $ $ $ $ $ $ $ $ % $ $ $ $ $ % $ $ $ $ $ $ $ $ @ > $ $ $ $ $ $ $ , @ % $ $ $ $ $ $ $ $ $ ",
"$ $ $ $ $ $ $ $ % % % % $ $ $ $ $ $ $ $ $ $ $ $ $ $ $ $ $ $ $ $ $ $ $ $ $ $ $ $ $ $ $ > @ $ $ $ $ % $ $ $ $ $ $ $ $ $ $ $ $ @ , ",
"$ $ $ $ $ $ $ $ $ $ & % % $ $ $ $ $ $ $ $ $ $ $ $ $ $ $ $ $ % $ $ $ $ $ $ $ $ $ : , > : $ $ $ $ $ , $ $ , @ $ $ $ $ $ $ $ $ $ $ ",
"$ $ $ $ $ $ $ > $ $ $ % % & $ $ $ $ $ $ $ $ $ $ $ $ $ $ $ $ @ $ $ $ $ $ $ $ $ $ > , 1 > $ $ $ $ @ > % $ @ , $ % $ > $ $ : $ $ $ ",
"$ $ $ $ $ $ $ $ $ $ $ $ $ $ $ $ $ $ $ $ , > $ $ > > $ $ $ $ < * @ $ $ $ $ $ % 1 1 : > 1 , > $ $ @ $ $ $ $ @ % $ $ $ , @ $ $ $ $ ",
"> $ $ $ $ $ $ $ $ $ $ $ $ $ $ $ $ $ $ $ > > $ $ > > $ $ $ , %.} * $ $ $ $ $ > 1 , $ : > , $ $ $ $ $ $ $ > @ $ $ $ $ $ $ $ $ $ $ ",
"$ $ $ $ % $ $ $ $ $ $ $ $ % % % $ $ , > $ $ > > $ $ > , $ * { / $ $ $ $ $ $ $ $ $ $ $ $ $ $ $ $ $ $ $ $ $ $ $ $ $ $ $ > $ $ $ $ ",
"$ $ $ $ $ $ % % % $ $ $ $ % $ & $ $ > > $ $ > > $ $ > % $ $ $ $ $ $ $ $ $ $ $ $ $ $ $ $ $ $ $ $ $ $ % $ $ $ $ $ $ $ $ $ $ $ $ $ ",
"$ % $ & $ % $ % % & $ $ $ $ $ $ $ $ $ $ $ $ $ $ $ $ $ $ $ $ $ $ @ $ $ $ $ $ $ $ $ $ $ $ % $ $ $ $ , $ $ $ $ $ > $ $ $ $ $ $ $ $ ",
"$ $ $ % $ $ $ $ % % $ $ $ $ $ $ $ $ $ $ $ $ $ $ $ $ $ $ $ $ $ $ T / $ $ $ $ $ $ $ $ $ $ $ $ $ $ $ $ $ $ $ $ $ $ $ $ $ $ $ $ $ $ ",
"% % $ $ $ $ $ $ $ & % % $ $ $ $ $ $ $ $ $ $ $ $ $ $ $ $ $ % $ % $.*.< $ $ $ $ $ $ $ % $ $ $ $ $ $ $ $ $ $ $ $ $ $ $ $ $ $ $ $ $ ",
"$ $ $ % $ & $ $ $ % % $ $ $ % % $ $ % $ $ % $ $ $ $ $ $ $ @ $ @ 5 9 $ $ $ $ $ $ $ % $ $ $ $ $ $ $ $ $ $ $ $ $ $ $ $ $ $ $ $ $ > ",
"$ $ $ % % % $ $ $ $ $ $ $ $ % % $ $ $ $ $ $ % $ $ $ $ $ % H 5 $ @ @ $ $ $ $ $ $ $ $ % $ % $ $ $ $ $ $ $ $ $ $ $ $ $ $ $ $ $ $ $ ",
"& % $ $ % % $ $ $ $ $ $ $ $ $ & $ % $ $ $ % $ $ $ $ $ @ 5 -.} $ $ @ $ $ $ $ $ $ $ $ $ $ $ $ $ $ $ $ : $ $ $ $ $ $ $ $ $ $ $ $ $ ",
"$ $ $ $ $ $ $ $ $ $ $ $ % % $ $ $ $ $ & $ $ $ $ $ $ $ $ * ^ G $ = 4 % % $ $ $ $ $ $ $ $ $ $ $ $ $ > 1 > : , > : $ $ $ $ $ $ $ $ ",
"$ $ $ $ $ $ $ $ $ $ $ $ $ $ $ $ % $ $ % $ $ $ $ $ $ $ $ $ @ @ % _  .< @ % $ $ $ % $ $ $ $ $ $ : $ , > > > , 1 > $ $ $ $ $ $ $ $ ",
"$ $ % $ $ $ $ $ $ $ $ & $ $ $ $ $ $ $ $ $ $ $ % $ $ % $ * % % $ R _ * % $ $ $ $ $ $ $ $ $ $ $ , , > > , > : > , , > $ $ $ $ $ $ ",
"$ $ $ $ $ $ % % $ $ $ % $ $ $ $ $ % % $ % % $ $ $ $ $ - ] L $ $ @ $ @ % $ $ $ $ $ $ $ $ $ $ > , > > : > > , : , 1 : $ $ $ $ $ $ ",
"$ $ % $ $ % M 1 % & 1 1 $ $ $ $ $ $ $ $ $ $ $ $ $ $ @ 5 ] R @ $ % $ $ $ $ $ $ $ $ $ $ $ $ $ $ $ : > $ $ $ $ $ $ $ @ $ $ $ $ $ $ ",
"$ $ $ $ $ % 1 1 % % 1 1 % $ $ $ $ $ $ $ $ $ $ $ $ $ $ $ * % $ $ $ % $ $ $ $ $ $ $ % % $ $ $ $ $ $ @ $ $ $ $ $ $ $ $ $ $ $ $ $ $ ",
"$ $ $ $ 1 1 $ % 1 1 % % 1 1 $ $ $ $ $ $ $ $ $ $ $ W { [ [ [ [ [ [ [ [ { G @ $ $ $ $ $ $ $ $ % $ > $ $ $ $ $ $ $ $ $ $ $ $ > $ $ ",
"% $ $ % 1 1 % % 1 1 % & 1 1 $ $ $ $ $ $ $ $ $ $ < ] *.*.&.*.=.&.*.*.*.*.{ $ $ $ $ $ : $ $ $ $ $ @ $ $ $ $ $ $ % $ $ $ $ $ % $ $ ",
"% $ $ $ $ $ $ $ % $ $ $ % % $ $ $ $ $ $ $ $ $ @ F  .o.+.&.%.&.%.%.%.%.&.$., @ % $ $ $ $ $ $ $ $ $ $ $ $ $ $ $ $ $ $ % $ $ $ % $ ",
"& $ $ $ $ $ $ $ $ $ $ $ $ $ $ $ $ $ $ % $ $ $ $ _ | o.&.&.&.&.&.%.%.&.%.*.G @ % $ $ $ $ $ $ $ $ $ $ $ $ $ $ $ $ $ $ $ $ $ $ $ $ ",
"$ $ $ $ % % $ $ $ $ $ $ $ $ $ $ $ $ % $ $ $ $ - | ] | +.&.&.%.&.%.&.&.%.*./ @ % $ $ $ $ $ $ $ $ $ $ $ $ $ $ $ $ $ $ % $ > $ $ $ ",
"$ $ $ $ $ $ $ $ % % $ $ % $ $ $ % $ $ $ $ $ $ R  .| | o.+.+.&.&.&.%.%.&.&.} % % $ $ $ $ $ $ $ $ $ $ $ $ : , $ $ $ $ $ $ $ $ $ % ",
"$ $ $ $ $ $ $ $ $ $ $ $ $ $ % $ $ $ $ $ $ $ - ] | | | | ] | %.&.%.&.&.%.&.%.5 @ $ $ $ $ $ $ $ $ $ $ $ $ $ $ $ $ $ $ $ $ $ $ $ $ ",
"$ $ $ $ $ $ $ $ $ % $ $ $ % $ $ $ % $ $ $ $ - | | | | | | | %.&.%.%.&.&.%.*.^ $ * $ $ $ $ $ $ $ $ $ $ $ $ > $ $ $ $ $ $ $ $ $ $ ",
"$ $ $ $ % % % $ $ $ & $ $ $ % % $ $ $ $ $ $ Q  .| ] | o.| | +.&.%.&.&.%.&.%.%.$.} < $ % $ $ $ $ $ $ $ $ $ $ $ $ $ $ % > $ $ $ $ ",
"$ $ $ $ $ % % & % $ $ $ % $ $ $ % $ $ $ $ = ' | | | | | ] | +.&.&.&.&.&.&.&.&.&.*.T @ % $ % $ $ $ $ $ $ $ $ $ $ $ $ $ $ $ $ $ $ ",
"$ $ $ $ $ $ $ $ $ $ $ $ $ $ $ $ $ $ $ $ @ L  .| | | | |  .| o.%.&.%.+.+.&.&.&.&.&.$.2 : % 1 1 $ $ $ $ $ $ $ $ $ $ $ $ $ $ $ $ $ ",
"$ $ $ $ $ $ $ $ $ $ $ $ $ $ $ $ $ $ $ $ % _ | ] | | | | U ] | %.&.&.o.| o.+.&.&.%.=.Y @ $ 3 1 $ $ $ $ $ $ % $ % $ $ $ $ $ $ % $ ",
"$ $ $ $ $ $ $ $ $ $ & $ $ $ $ $ $ $ $ $ -  .| | | |  .7 e P ..+.%.&.+.] | ] o.&.&.&.{ $ > 1 1 > $ $ $ $ $ $ % $ > $ $ $ $ % $ $ ",
"$ $ $ $ $ $ $ & > * % % & % $ $ $ $ & & R  .] | ]  .0 e e # | +.&.&.+.o.| ] ] +.&.%.&.w > > % 1 1 $ $ $ $ $ $ $ $ $ $ $ $ $ $ $ ",
"$ $ $ $ $ $ $ % > * % % * * & $ $ % $ * ` | | |  .7 e e e e R @.%.&.+.| | O.| o.%.&.=.( > $ $ 1 1 % $ $ $ $ $ $ $ $ % $ $ $ $ $ ",
"$ & $ $ $ $ * > % & > > % $ * M $ $ $ -  .] |  .7 e e e e e # o.&.&.%.| | Q _ ..*.#.%.%.4 $ % $ $ $ $ $ $ $ $ % : $ $ $ > $ $ $ ",
"$ $ $ $ $ $ > * $ $ > > $ $ % % % $ % Q  .] ..-     e   e e e W *.%.%.| ' d o 2 U C S *.^ @ $ $ $ $ $ $ $ $ $ $ % % $ $ $ $ $ $ ",
"$ $ $ $ & & % $ $ & & % $ $ % $ % % - | |  .0     e   e e e e ; $.*.*.@.3 t a r y b b S $.* $ % $ $ $ $ $ $ $ $ $ % $ $ $ $ $ $ ",
"$ % $ $ $ $ $ $ $ $ $ $ $ $ $ $ $ O O _ ..7 e e e e e e e e e e g S ) Y y a a a p s n b D K $ $ $ $ $ $ $ $ $ $ $ $ % $ $ $ % $ ",
"% % $ $ $ $ $ $ $ $ $ $ $ $ $ O       - q e e e e e e e e e e s r t y p y p p p y f A b b B % $ $ $ $ % $ $ $ $ $ % $ $ $ $ $ $ ",
"% $ $ $ $ $ $ $ $ $ $ $ $ O .               e   e e e e e e k j p s y p a p p p y f | ;.b n & $ $ $ $ $ $ $ $ $ $ $ % $ $ $ $ $ ",
"& $ $ $ $ $ $ $ $ $ $ $ .                   e   e e e e e e s e p p 2 f t a p a y f ]  .;.b x & $ $ $ $ $ $ $ $ $ $ $ $ $ $ $ $ ",
"$ $ $ $ $ $ $ $ $ $ $ X e e e e e 7 E 6     e   e e e e p p p p s t I ' M r p p p a ~  .| V b : $ $ $ $ $ $ $ $ $ $ $ $ $ $ $ $ ",
"$ $ $ $ $ $ $ $ $ % +   e e e e q ....*     e   e e e e p p p p a t A .. .8 t a a y z ] | S b M $ $ $ $ $ $ $ $ $ $ $ $ > $ $ $ ",
"$ $ $ $ $ $ $ $ $ @     e e e - .. .E e   e e e e e e p p p p p a t N | ..K y a p s t 6 ..V b m $ $ $ $ $ $ $ $ $ $ $ $ $ $ $ $ ",
"$ $ $ $ $ $ $ $ $ X     e e e 1  .| %           e e s p p p p p p y z |  .J y a p p p y W Z b m l & $ $ % % $ $ % $ $ $ $ $ $ $ ",
"$ $ $ $ $ $ $ $ O     e   e   . ] ! e e e e e e e p p s p p p p a y h ' ..J y a p p a p f f j v c n c c x z $ $ $ $ $ $ $ $ $ $ ",
"$ $ $ $ $ $ $ @                 ~ * e e e j s p j p p p p p p p u p a ~ ..;.t a p p p p p r s :.c n m m m n x $ $ $ $ $ $ $ $ $ ",
"$ $ $ $ $ $ $ .           e   e N e e e j p p p p p p p p p p s r e e U X.J y s p p p p p y l ] B n c n m m n z $ $ $ $ $ $ $ $ ",
"$ $ $ $ $ % o               e   e e e p s p p p p p p p p p p s e e   . J q e p y p p p a t A X.I b m m m m m n @ $ $ $ $ $ $ $ ",
"$ $ $ $ $ @     e   e   e   e e e e e p p p p p p p p p p p p e e e e e         e e e s p u l ! ] v n m m m c m n & $ $ $ $ $ $ ",
"$ $ $ $ @ .       e   e   e   e e e j s p p p p p p p p p p s e e e e e         e e e a p p r y w D b k j s k m n c $ $ $ $ $ $ ",
"$ $ $ $ o           e   e   e e e y p p p p p p p p p p p p y e   e e   e e e e e e e u p p a p y h a p p r s m m n x $ $ $ $ $ ",
"$ $ $ #         e   e   e   e   e p p p p p p p p p p s p p e e e   e   e   e e e e e e p p p p p p p p p p p b m m k l $ $ $ $ ",
"$ $ @ .         e e e e   e e   e s p p p p p p p p p p i e     e     e e e e           e a a p p a a a p a p j m m m n z $ $ $ ",
"$ $ o                     e     p p p p p p p p u p a p a                               e a s j p p r u y r p a n m m m m & $ $ ",
"% +                       e   r p p p p p p p p a p p p u                               e e e e e e e e e e p u j m m m m c & $ ",
"@               e e e e e   e u p p p p p p p p p p u p e       e e e e e e e e         e e e e e e e e e e u u a n m m m b c $ ",
"O . . . . . . . . . . . . . X d e f f O f e d d s e f d . . . . . . . . . . . . . . . . . . . . e e o o . X d d e c c l c c c ; ",
"$ $ $ $ @ $ $ $ $ $ $ $ $ $ $ $ $ $ $ $ * $ $ $ $ $ % % $ $ $ $ $ $ $ $ $ $ $ $ @ $ $ $ $ $ $ $ % $ $ $ $ $ % $ * $ $ $ $ $ $ $ ",
"$ $ $ $ $ $ $ $ $ $ $ $ $ $ $ $ $ $ $ $ $ $ $ $ $ $ $ $ $ $ $ $ $ $ $ $ $ $ $ $ $ $ $ $ $ $ $ $ $ $ $ $ $ $ $ $ % % $ $ $ $ $ $ ",
"$ $ $ $ $ $ $ $ $ $ $ $ $ $ $ $ $ $ $ $ $ $ $ $ $ $ $ $ @ $ $ $ $ $ $ $ $ $ $ $ $ $ $ $ $ $ $ $ $ $ $ $ $ $ $ $ $ $ $ $ $ $ $ $ "
};
