/* XPM */
static char *result[] = {
/* columns rows colors chars-per-pixel */
"64 64 3 1 ",
"  c #473D35",
". c #4F443B",
"X c #56493E",
/* pixels */
"                                                                ",
"                                                                ",
"                                                                ",
"                                                                ",
"                                         XX                     ",
"                                         XX                     ",
"                    ..  ..             XX  XX                   ",
"                    ..  ..             XX  XX                   ",
"                  ..  ..  ..                                    ",
"                  ..  ..  ..                                    ",
"                                                                ",
"                                                                ",
"                                                                ",
"                                                                ",
"                                                                ",
"                                                                ",
"                                                 XX  XX         ",
"                                                 XX  XX         ",
"                                               XX  XX  XX       ",
"                                               XX  XX  XX       ",
"      XX  XX                                                    ",
"      XX  XX                                                    ",
"    XX  XX  XX                   ..                             ",
"    XX  XX  XX                   ..                             ",
"                                .  ..                           ",
"                                .  ..                           ",
"                                                                ",
"                                                                ",
"                                                                ",
"                                                                ",
"                                                                ",
"                                                                ",
"                                         XX  XX                 ",
"                                         XX  XX                 ",
"                                         XX  XX                 ",
"        ..  ..                         XX  XX  XX               ",
"        ..  ..                         XX  XX  XX               ",
"      ..  ..  ..                                                ",
"      ..  ..  ..                                                ",
"                                                                ",
"                                                                ",
"                            XX                                  ",
"                            XX                                  ",
"                          XX  XX                                ",
"                          XX  XX                                ",
"                                                                ",
"                                                                ",
"                                                                ",
"                                                                ",
"                                                                ",
"                                                                ",
"                                         ..                     ",
"                                         ..                     ",
"                                       ..  ..                   ",
"                                       ..  ..                   ",
"              XX  XX                                            ",
"              XX  XX                                            ",
"            XX  XX  XX                             ..  ..       ",
"            XX  XX  XX                             ..  ..       ",
"                                                 ..  ..  ..     ",
"                                                 ..  ..  ..     ",
"                                                                ",
"                                                                ",
"                                                                "
};
