/* XPM */
static char *result[] = {
/* columns rows colors chars-per-pixel */
"64 64 206 2 ",
"   c #1F0627",
".  c #1F0428",
"X  c #280927",
"o  c #220529",
"O  c #250A2A",
"+  c #2B0D2C",
"@  c #310F2A",
"#  c #27102B",
"$  c #2B142B",
"%  c #2E1A2D",
"&  c #33122C",
"*  c #3C162C",
"=  c #311C2E",
"-  c #3C1A2D",
";  c #2E1331",
":  c #341332",
">  c #391634",
",  c #331B32",
"<  c #3E1A38",
"1  c #35232F",
"2  c #3B252F",
"3  c #39292F",
"4  c #362333",
"5  c #3A2531",
"6  c #3B2B30",
"7  c #3B2639",
"8  c #3A283B",
"9  c #3F3131",
"0  c #40172C",
"q  c #461C2C",
"w  c #491D2D",
"e  c #431C32",
"r  c #4B222F",
"t  c #51202F",
"y  c #59262D",
"u  c #5D292C",
"i  c #452233",
"p  c #4D2131",
"a  c #402B33",
"s  c #4B2A33",
"d  c #46243B",
"f  c #4C2E39",
"g  c #542433",
"h  c #5C2E33",
"j  c #552C39",
"k  c #53283C",
"l  c #413433",
"z  c #473D35",
"x  c #483E35",
"c  c #4D3A39",
"v  c #5F3233",
"b  c #58343C",
"n  c #5B3B3D",
"m  c #622C2D",
"M  c #692F2D",
"N  c #6C312F",
"B  c #632E36",
"V  c #6B2F34",
"C  c #6D3134",
"Z  c #653238",
"A  c #6B3439",
"S  c #6A3C3C",
"D  c #733533",
"F  c #7B3A33",
"G  c #77393A",
"H  c #743A3D",
"J  c #4A4036",
"K  c #4D4239",
"L  c #52463B",
"P  c #68413F",
"I  c #71413F",
"U  c #7E413F",
"Y  c #4A2041",
"T  c #4A2B42",
"R  c #592B47",
"E  c #453441",
"W  c #483742",
"Q  c #4C3C45",
"!  c #5D3243",
"~  c #583E42",
"^  c #602E4F",
"/  c #633446",
"(  c #643946",
")  c #653648",
"_  c #673949",
"`  c #6D3C4B",
"'  c #793D42",
"]  c #703E4C",
"[  c #6A3454",
"{  c #743C58",
"}  c #4F444B",
"|  c #534246",
" . c #5B4445",
".. c #54454A",
"X. c #5B4D4D",
"o. c #5B5352",
"O. c #5E5C5A",
"+. c #644346",
"@. c #614A48",
"#. c #714842",
"$. c #7A4841",
"%. c #794549",
"&. c #65524D",
"*. c #7B4454",
"=. c #7C425C",
"-. c #615C57",
";. c #66655D",
":. c #6A6D63",
">. c #833D36",
",. c #843D38",
"<. c #884036",
"1. c #82433F",
"2. c #8D4339",
"3. c #94463A",
"4. c #9C4B3C",
"5. c #8B4742",
"6. c #934C42",
"7. c #9F4E41",
"8. c #9B5144",
"9. c #874D57",
"0. c #954D53",
"q. c #855157",
"w. c #8B5359",
"e. c #905459",
"r. c #A14F40",
"t. c #A35343",
"y. c #A85846",
"u. c #AC5B49",
"i. c #B55F49",
"p. c #A65D55",
"a. c #B5674D",
"s. c #BF654B",
"d. c #B36354",
"f. c #BB6A5B",
"g. c #894769",
"h. c #9A5372",
"j. c #A15675",
"k. c #9E6462",
"l. c #A26163",
"z. c #A76766",
"x. c #BD656B",
"c. c #B26E6A",
"v. c #B6716C",
"b. c #B9736E",
"n. c #AC6178",
"m. c #B66A79",
"M. c #B86A7E",
"N. c #BE7672",
"B. c #C0664C",
"V. c #C3694D",
"C. c #CC6E4F",
"Z. c #CB6F52",
"A. c #CA7251",
"S. c #C07C55",
"D. c #D37452",
"F. c #DC7958",
"G. c #E27B5C",
"H. c #C8776A",
"J. c #D77667",
"K. c #D2756D",
"L. c #D87A6B",
"P. c #CC6F71",
"I. c #C16A7B",
"U. c #C07770",
"Y. c #CC7273",
"T. c #C27971",
"R. c #C67D77",
"E. c #C6717E",
"W. c #CA7B7A",
"Q. c #D67B71",
"!. c #D17F7F",
"~. c #CA8458",
"^. c #C28D5D",
"/. c #D78A5A",
"(. c #D98D5C",
"). c #E5825C",
"_. c #EB8759",
"`. c #E38D5B",
"'. c #EA8A59",
"]. c #E9925E",
"[. c #DE8564",
"{. c #DC836D",
"}. c #CC9661",
"|. c #D59B68",
" X c #DE996C",
".X c #D48475",
"XX c #D4847D",
"oX c #D7887B",
"OX c #DC8C7D",
"+X c #E28460",
"@X c #E59764",
"#X c #E99D62",
"$X c #E7A365",
"%X c #E9A365",
"&X c #E9A967",
"*X c #E0A26D",
"=X c #E9AE6A",
"-X c #EAB06B",
";X c #B56281",
":X c #B96583",
">X c #BD6A83",
",X c #C16F83",
"<X c #C47283",
"1X c #CD7B80",
"2X c #D07F80",
"3X c #D58480",
/* pixels */
"z z z x z z z x z z z z z z x z z z z z z z z z z z z z z z x z z z z z z z z z z z z z z z z z z z J z z z z z z z z z z z z z ",
"z z z z x z z z z z x z z z z z z z z z z z z z x z z z z z z z x z z z x z z z z z z z z z z z z z z z z z z J z z z J z z z z ",
"z z z z z z z z z z z z z z z z z z z z z z z z z z x z z z z z z z z z z z z z z z z z z z z z z z z z z z z z z z z z z z z z ",
"z x z z z z x x z x z z z z x z z z z z z z x z z z z z z z z z z z z x z z z z z z z z z z z z z z z z z z z z z z z z z z z J ",
"z z z z z z x z z z z z z z z z z z z z z z z z z z z z z z z z z z z z z z z z z L L z z z z z z z z z z J z J z z z x z z z z ",
"x z z z z x z x z z z z z x z z z z z z z z z z z z z z z z z z z z z z z z z z J L L J z J l z z J z z z z z z z z z z z z z x ",
"z z z z z x z z z z z z x z z z z z z x J K z z K K z z z z l z z z z z z z z L L z J L L J z z z z z z z z z z z x z z z x x z ",
"z z z x x z x z z z z z z z z z z z z x K K x x K K z z z z z z z l z z z z z L L z z L L z z z z z z z z z z z z z z z x z z x ",
"9 J z z z z z z z z z z z z z z z z J K z z K K J J K K J x x x J J J z z x J J J z z z z z z z x z z z x z x z z z z z z z z z ",
"J z z J z z z z z z z z z z z z z z K K z z J l 1 % , , % % % % % % % % % % % % 1 6 z z z z z z z z z z z x z z z z z z z x z z ",
"J J J J | 9 z z z z z z z z z J z z z z z J l 3 O o o o o o o o o o o o o o o o O 3 l J z z z z z z z x z x z z x z z x z z z x ",
"z z 9 J J J z z z z z J z z z z z z z z l 9 3 s h B B B B B B B B B B B B Z B Z v s 3 9 l z z z z z z z z z z z z z z z z z z z ",
"z z z z z z z z z z z z z z z z z l J J 9 = $ Z y.s.s.s.s.s.B.s.s.s.B.s.s.s.s.s.8.h $ 1 l z z z z z z z z z z z x z z z x z z z ",
"z z z z z z J z z z z z z z z z z z l l l 2 w 1.D.'._._._.'._._._.'.'.'._._.'.'.A.' 0 5 l l l z z z z z z z z z z z x z z z z z ",
"z z z z z z z z z z z z z z z z J z 6 1 i A 6.a.(.@X#X#X@X].#X#X#X#X].@X].].#X]./.a.5.A 5 1 9 z z z z z z z z z z z z z x z x z ",
"z z J z z z z z z z z z z z z z z l 3 # p 8.F.`.%X=X=X=X=X=X=X=X&X=X=X=X-X=X=X=X%X`.D.6.e # 3 z z z z z z z z z z z z x z z x z ",
"z z z z z z z z z z z z z z z l 9 3 s h U a.].#X=X=X=X-X-X-X-X-X-X-X-X-X-X-X-X-X&X#X`.a.H j s 6 6 K L x z L K z z z z z z z z z ",
"z z z J z z z z z z z z z z z l = = Z y.A.(.%X&X=X=X=X-X-X=X=X-X=X-X=X=X=X-X=X-X=X=X#X(.Z.t.h $ 4 x L x J L L J z z z z z z z z ",
"z z J z z z z z z z z z z z z 9 $ + H A.].$X-X-X=X-X=X-X=X-X=X=X-X=X=X-X=X-X=X=X=X=X=X#X'.V.Z O 4 l J L L J J L L z z z J z z z ",
"z z 9 J z z z J z z x x z z z 6 % + I ~.#X&X-X-X-X-X-X-X-X-X-X-X-X-X-X-X-X-X-X=X=X=X=X&X%XS.S O , l x L L z z L L J z z z z z z ",
"z z J J z z K L z z L L z z z 9 $ $ #.}.-X=X-X=X=X=X=X=X=X=X=X=X=X=X=X=X=X=X=X=X=X=X=X=X=X^.+.O % 9 z z z l J z z z z z z z z z ",
"z z z 9 z J L L J J L l 3 6 3 1 # # #.}.-X-X=X&X%X#X#X#X#X#X%X#X#X%X#X#X#X#X#X%X%X=X=X=X-X^.P O $ 1 6 3 3 9 l z z z z z z z z z ",
"z z J J L } J J L L x = O $ O O   + #.}.-X-X=X#X`.'.'.'.'.'.'.'.'.'.'.'.'.'.'.'.`.%X=X=X=X^.+.o   # # # $ 1 l z z z z z z J z z ",
"z z J J L K z z L L z # . + : > : < 5.}.-X=X%X@X).G.G.G.G.G.G.G.G.G.G.G.G.G.G.G.+X@X&X=X=X}.%.> : > : O o % 9 J z l z z z z z z ",
"J J J z z z z z z z z # o d *.w.=.=.k.|.=X].].[.K.P.P.P.P.P.P.P.Y.P.P.P.P.P.P.P.J.[.@X#X=X|.l.{ =.9.*.d O % 9 J z z z z z z z z ",
"z 9 z z z z z z z z J # + ) c.W.M.;X.X*X%X].`.J.M.:X;X;X;X;X:X:X:X:X:X;X;X;X;X:XI.J._.`.&X@XT.;XM.R.z.! O % 9 J z z z z z z z z ",
"z z z z z J z z z J z % = ! w.z.n.:XR. X@X[.J.Y.E.;Xh.g.h.M.<X<X,X>X<Xm.h.g.h.M.E.Y.L.+X@X XW.;Xn.l.q.b % 3 9 J z z z z J z z z ",
"z z z z z z z z z z J 9 6 7 d ! g.;XY.[.[.K.I.E.!.c.{ Y =.N.3X3XXXXX3Xm.{ Y { U.!.E.I.K.+X[.E.;Xg.R i 6 9 9 l z z z z z z z z z ",
"z z z z z z z z z z z z z 3 # , { j.P.F.F.P.>X<XoXv./ + ` N.OXOXOXOXOXv./ + ` U.3X<X,XY.G.J.x.h.[ > $ 3 l J z z z z z z z z z z ",
"z z z z z z z z z z z z z 9 3 3 T [ 0.D.G.Q.1XXX3Xv./ + _ N.OXOXOXOXOXv./ + _ U.3X2XW.Q.G.Z.0.^ T 7 3 l z z z z z z z z z z z z ",
"z z z J z z z z z z z J z 9 z 9 : & H A.G.{..XoXOXv.) : ` T.OXOXOXOXOXb./ : ] U.OXoX.X{._.B.A + = 9 z z z z z z z z z z z J z z ",
"z z z z z z J z z z z 9 z z z 9 $ + A C.F.x.l.v.oXT.w.) e.R.OXOXOXOX3XT.w.` e.R..Xc.l.f.G.B.B X % l z z z z z z z z z z z z z z ",
"z z z z z z z z z z z z z z J 9 $ + A C.C.U k 9.R.oXR.b.R.oXOX3XOXOX3XoXR.b.R.oXU.*.k 5.D.V.Z O = l z z z z z z z z z z z z z z ",
"z z z z z z z z z z z z z z J 9 = $ C a.u.B & / z.T.T.T.T.T.R.T.T.T.T.T.T.T.T.T.l.! & C i.u.Z # = l z z z z z z z z z z z z z z ",
"z z z z z z z z z z z z z z z 9 6 5 g A A g q g _ ] ` ] %.` ` ] ` %.` ] ` ` ` %._ g w y A A j 2 3 l z z z z z z z z z J z z z z ",
"z z z z z z z z K J z J K J J J z l 2 & @ t y w & + + + + + + + + + + + + + + O & w y w & & 3 K L z z z z z z z z z z z z z z J ",
"z z z z z z z z K K z x J J J 9 3 3 i w y V N y * & 0 q w w w q w w w w w e 0 & 0 u N M w i i a z z z z z z z z z z z z z z z z ",
"z z z z z z K K x x K K z J J z 1 $ r D ,.>.,.>.y u D >.F <.,.,.,.,.,.>.,.,.D y m G 2.>.,.C r $ 1 l z l z z z z z z J z z z z z ",
"z z z z z z K K z z K K z z L 9 $ + g 6.t.r.4.>.m m >.2.4.4.4.4.4.r.4.4.3.3.F m m >.7.r.y.2.t O $ l z z z z z z z z z z z z J z ",
"z J z z z z z z z z z z z z J 9 $ X ! p.f.y.3.D q q m F <.4.4.4.4.4.r.3.,.D m 0 w G 4.u.f.p.k O = l z z z z z z z z z z z z z z ",
"z z z z z z z z z z z z 9 J z 9 $ + _ b.Q.d.3.C & + w m F 3.4.4.4.4.4.,.D u w X * D t.d..Xc.! O % 9 z z z z z x x z x z z z z x ",
"z z z z z z z z z z z z z J z 9 % + ` N..XH.u.H & X w m N >.<.<.,.,.>.>.N u q X - H u.H.oXv./ O % 9 z z z z x z z z z z z z z z ",
"z z z z z z z z z z z z z J z 9 $ + ` T.OX.XT.9.: X r u m M N N N N D N m u q O e e.R..XOXb.( O % 9 z z z z z z z x z z z z z z ",
"z z z J z z z z z z z z z 9 J 9 % $ ( z.T.T.b.q.d = s v m v u v h u m m v v s , d w.U.T.N.k.! # 1 l z z z z z z z z z z z J z z ",
"z z z z z z z z z J 9 J z z J 9 6 5 f ( %.` ` +...} X.&.@. .n n n n n  .@.&.X.} ..+.] ] ] ( f 4 6 l J z z z z z z z z z z z z z ",
"z z z z z z z z z z J J z z z z 9 z 6 ; O + ; E O.:.:.:.;.X...........X.;.:.:.:.O.T ; # + ; 6 9 z z z z z z z z z x z z z z z z ",
"J z z z J z z z z z J 9 z 9 z z J z 6 ; # O . 8 O.;.;.;.-. .} W c Q ..o.-.;.;.;.o.8 .   # = 9 J z z z z z z z z z z z z z z z z ",
"z z z z z z z z z J J J J J z z z z z 9 4 # O 8 ..o.o.X.X.X.Q 8 ; 8 | X.X.X.o.X.} , . ; 6 9 9 J z z z z z z z z z J z z z z z J ",
"z z z z z z z z z z J J z z z z z z z z 9 % O 4 |  . . .| | c , + 4 c | |  . . .~ , O % 9 z z z z z z z z z z z J z z J z z z z ",
"z z z z z z z z z z W z z z J 9 J 9 z z 9 % X i I U P n f 5 4 4 4 4 4 5 f b #.$.S - O % 9 z z z z z z z z z z z z z z z z z z z ",
"z z z z J z z z J z z z J J J J z z z z 9 % O r <.2.D u q @ # 3 9 4 # @ w u D 3.,.w O % 9 J l J z z z z z z z z z z z z z J z z ",
"z z J z z z z z z z z z J 9 J z z z z z 9 1 % i B M y r - $ 1 9 9 9 = % 0 r y C V i = 3 9 J z z z z z z z z z z z z z z z z z z ",
"z z z z z z z z z z z z 9 z z z J J z z z 9 9 3 - & $ + = 3 l l J 9 9 3 = + & & - 6 l l z z z z z z z z z z z z z z z z z z z z ",
"z z z z z z z z z z z z J J z z 9 J z z J J 9 3 O .   o = l J z J z J 9 % o . . # 5 x K K z z z z z z z z z z z z z z z z z z z ",
"z z z z z z J z z z z z z z z J J J J J z z z 9 9 9 9 9 l z z l J 9 J 9 l 9 9 c z l z K J z l z z z z z z z z z z z z z z z z z ",
"z z J z z z z z z z z z z J L K 9 J L L J 9 z z J z J J J z z z J z J J z x z x x z x z J z z z z z z z z z z z z z z z z z J z ",
"z z z z z z z z z z z z z J K L J J K K J J z z z z z z z z z z z 9 z z 9 z z z z z z z z z z z z z z z z z z z z z z z z z z z ",
"z z z z z z z z z z z J K L J J L L J J L K J J z z z z z z z z J J z z J J z z z x z z z z z z z z z K K z z K K z z z z z z z ",
"z J z z z z z z z z 9 J K K J J L L z z L L J J z z z z z z z z J J z z z z z z z z z x z z z z z z x K K x z K K J z z z z z z ",
"z z z z J z J z z J J z J J z z z z z z J J z 9 z z z z z z z J z z z z z z z z z z z z z z z z z K K x x K K x z K J z z z z z ",
"z z z z z z z z J z z z J J J 9 z z z z z z z z z z z z z z z z z z z z z z z z z z z z z z z z z K K z z J K z z K J z z z z z ",
"z z z z z z z z z J 9 z J 9 J J z z z z z z z z z z z z z z z z z z z J z z z J z z z z z z z z z z z z z z z z J z z z z z z z ",
"z z z z z z z z z z J z z z J z z z z z z z z J z z z z z z J z z z z z z z z z z z z z z z z z z z z z z z z z z z z z z z z z ",
"z z J z z J z z z z z z z z z z z z z z z z z z z z z z z z z z z z z z z z z z z z z z z z z z z z z z z z z z z z z z z z z z "
};
