/* XPM */
static char *result[] = {
/* columns rows colors chars-per-pixel */
"64 64 174 2 ",
"   c #1F0528",
".  c #200527",
"X  c #220529",
"o  c #250B29",
"O  c #2B0C2A",
"+  c #27102A",
"@  c #2B142B",
"#  c #2E1A2D",
"$  c #33122B",
"%  c #3A142D",
"&  c #311C2D",
"*  c #3B1A2D",
"=  c #2D1530",
"-  c #361334",
";  c #391634",
":  c #341D32",
">  c #3B1B31",
",  c #35232E",
"<  c #38252F",
"1  c #352230",
"2  c #3B2531",
"3  c #3B2B31",
"4  c #392438",
"5  c #3D293A",
"6  c #3F3131",
"7  c #40172E",
"8  c #431A2A",
"9  c #4A1D2C",
"0  c #431E38",
"q  c #4B222D",
"w  c #55262C",
"e  c #59272B",
"r  c #5A292C",
"t  c #432433",
"y  c #492535",
"u  c #422C33",
"i  c #4B2935",
"p  c #452139",
"a  c #4A233C",
"s  c #44293C",
"d  c #492B3B",
"f  c #522333",
"g  c #522B34",
"h  c #5D2B35",
"j  c #512A3B",
"k  c #413432",
"l  c #473D35",
"z  c #483E35",
"x  c #553136",
"c  c #58373A",
"v  c #59393C",
"b  c #632E37",
"n  c #682D34",
"m  c #613037",
"M  c #6F3135",
"N  c #653539",
"B  c #6C3539",
"V  c #633E3E",
"C  c #733336",
"Z  c #76393C",
"A  c #7C3B3B",
"S  c #4A4036",
"D  c #4D4239",
"F  c #52463B",
"G  c #67453F",
"H  c #7B403D",
"J  c #592D42",
"K  c #493542",
"L  c #4E3940",
"P  c #5E3145",
"I  c #66374B",
"U  c #6D3E4B",
"Y  c #612E50",
"T  c #763C5C",
"R  c #524146",
"E  c #704647",
"W  c #7B4A43",
"Q  c #794554",
"!  c #833C37",
"~  c #87433F",
"^  c #93453B",
"/  c #9C4B3D",
"(  c #8F4841",
")  c #8B4C4E",
"_  c #934E43",
"`  c #934E49",
"'  c #865B49",
"]  c #985749",
"[  c #875057",
"{  c #8B5159",
"}  c #975758",
"|  c #975B5E",
" . c #A55546",
".. c #AA5947",
"X. c #B05F4F",
"o. c #8E624D",
"O. c #92654E",
"+. c #966750",
"@. c #9F7152",
"#. c #B5604A",
"$. c #BE654B",
"%. c #B76657",
"&. c #A57554",
"*. c #AE775F",
"=. c #BE7754",
"-. c #9C5E61",
";. c #A4577B",
":. c #A25878",
">. c #A26264",
",. c #AA6561",
"<. c #B16D6A",
"1. c #B5706C",
"2. c #BD766F",
"3. c #AA6274",
"4. c #AE6A71",
"5. c #BE7377",
"6. c #C0664C",
"7. c #C3684D",
"8. c #CC6E4F",
"9. c #C06B57",
"0. c #D47251",
"q. c #DB7652",
"w. c #DE7A54",
"e. c #E57D55",
"r. c #E97F55",
"t. c #C87769",
"y. c #D87866",
"u. c #C46D7C",
"i. c #CC7C75",
"p. c #C67779",
"a. c #CB7B7E",
"s. c #BB865A",
"d. c #BF8B5C",
"f. c #C08C5D",
"g. c #C6915F",
"h. c #EA8156",
"j. c #E78059",
"k. c #EB8759",
"l. c #E98B5A",
"z. c #EA935E",
"x. c #C98C6B",
"c. c #DD8867",
"v. c #DE9760",
"b. c #D49D63",
"n. c #DC956F",
"m. c #CD8176",
"M. c #C98870",
"N. c #CE8278",
"B. c #D58475",
"V. c #D48F75",
"C. c #D38579",
"Z. c #D7887B",
"A. c #DA8A7B",
"S. c #D79473",
"D. c #D99674",
"F. c #DC9A72",
"G. c #DD927A",
"H. c #E08261",
"J. c #E49765",
"K. c #E69D64",
"L. c #EA9C62",
"P. c #E29E73",
"I. c #DDA566",
"U. c #E9A566",
"Y. c #E4A867",
"T. c #EAA967",
"R. c #E4A46D",
"E. c #E6AB6A",
"W. c #E9AE6A",
"Q. c #EAB06B",
"!. c #E3A271",
"~. c #B26281",
"^. c #BF6F81",
"/. c #C17381",
/* pixels */
"l l l z z l l l l z l l z l l l l l l l l l l z l l l l l l l l l l l l l l l z l l l l l l l l l l S l l l l l S l l S l l l l ",
"l l l l l l l l l l l l l l l l l l l l l l l l l l l z l l l z l l z l l l l l l l l l l l l l l l l l l l l l l l l l l l l l ",
"l z l l l z z l l l l l l l z l l l l l l l l l l l l l l l l l l l l l l l l l l l l l l l l l l l l l l l l S l l l l S l l l ",
"l l l l z l l z l l z l z l l l l l l l l l l l l l l l l l l l l z l l l l l l l l l l l l l l l l l l l l l l l l l l l l l l ",
"l l l l l l l l l l l l l l l l l l l l l l l l l l l l l l l l l l l l l l l l l D F S l l l l l l l l l l l l l l l l l l l l ",
"l l l z l l z l z l l l l l z l l l l l l l l l l l l l l l l l l l l l l l l l S F F S l l l l S l l l l S l l l l l l l l l l ",
"z l l l z l z z l l l z l l l l l l l l D D l l D D l l l l l k l l l l l l l F F S S F S S k S l l l l l l l l S l l l l S l l ",
"l l l l l l l l l l l l l l l l l l l l D D z l D D l l l l l l k l l l l l l F F l l F F S l l l l l l l l l l l l l l l l l l ",
"l l l l l l l l l l l l l l l l l l S D l z D F S S F D z l z z S S S l z z z S z l l z l l l l l l l l l l l l l l l l l l l l ",
"l l l l l l l S l l l l l l l l l l D D l 6 2 & # # & & & & & & # # # # # & & 3 l z l l l l l l l l l l l l l l l l l l l l l l ",
"l l l S l l l l l l l l l l l l l l l l k 3 O X X X X X . X X X . . . . . X o , k l l l l l l l S l l l l S l l l l l S l l l S ",
"l l l l l l l l l l l l l l l l l l l 6 3 k v V v E V V N N m m b b b b b b h i 3 3 k l l l l l l l l l l l l l l l l l l l l l ",
"l l l l l l l l l l l l l l l l l l k , @ c @.d.d.d.d.d.f.9.6.6.6.6.$.6.$.6...B $ & k z l l k S l l l l l l l l l l l l l l l l ",
"l S l l l l l l l l l l l l l l l k 6 < < W g.Q.Q.Q.Q.Q.T.L.k.k.k.h.h.h.h.h.0.~ 8 < u k k l l l l l l l l l l l l l l l l l l l ",
"S l l l l l l l l l l l l l l l 6 , < G o.s.I.E.W.W.Q.Q.E.U.L.L.L.z.l.h.h.r.q.#._ B t & 6 l S l l l l l l l l l l l l l l l S l ",
"6 S L l l l l l l l l l l l l l 3 + > o.b.I.W.W.W.W.Q.Q.W.W.W.W.W.U.z.h.r.h.r.e.q. .y @ < k l l l S l l l S l l l l l l l l l l ",
"S S l l l l l l l l l l l l l l , + > O.I.Q.Q.Q.Q.Q.Q.Q.Q.Q.Q.Q.Q.T.L.z.l.h.h.h.r.#.H h i 3 3 k l F F l l F F l l l l l l l l l ",
"l S l S l l l l l l l l l l l l 3 + 2 O.I.Q.Q.Q.Q.Q.E.Q.Q.Q.W.W.W.W.T.U.L.h.h.h.r.q.8...B $ & k S F F S S F F S l l l l l l l l ",
"l l S l l l l l l l l l l l l l , + , o.I.Q.Q.Q.E.Q.Q.Q.Q.Q.W.Q.W.Q.Q.Q.U.l.h.h.h.r.h.0.Z O @ l F l S F F S S F F l l l l l l l ",
"l l 6 S l l S l l l l l l l l l 3 + : o.I.Q.Q.Q.Q.Q.Q.Q.Q.Q.Q.Q.Q.W.Q.Q.T.L.z.l.h.r.h.8.Z O @ l F l l F F l l D F l l l l l l l ",
"l l l l 6 S F F l l F F l l l l 3 + : O.I.W.E.W.Q.Q.Q.Q.Q.Q.W.Q.W.Q.Q.W.W.W.U.z.h.r.h.8.Z O @ k S l l l l l l l l l l l l l l l ",
"l l l l S S F F S S F F l l l l 3 + ; [ V.D.S.F.!.Q.Q.E.Q.W.Q.W.Q.W.W.Q.Q.Q.E.z.h.r.h.8.Z O @ 6 l l l l l l l l l l l l l z l l ",
"l l l l F F S S F F l S F F l l 3 o - Q ^.^.^.m.D.E.Q.E.W.Q.W.Q.Q.Q.Q.Q.W.Q.T.z.h.r.h.8.Z O @ 6 l l l l l l l l l l l l l l l l ",
"l l l l F F l l F F l l F F l l 3 o = T ~.~.;.3.M.E.Q.Q.W.Q.Q.E.E.E.E.W.Q.Q.T.z.h.r.h.8.Z O @ 6 l l l l l l l l l l z l l l l z ",
"l l l l l S l l l l l l l l l 6 3 o - Q 5.3.T Q *.I.Q.Q.W.Q.Q.E.!.P.!.W.Q.Q.T.L.h.h.h.8.Z O @ 6 l l l l l l z l l l l S l l l l ",
"l l l l l l l l l l l l l l l l < + ; { i.>.a > +.I.Q.Q.W.Q.W.!.G.G.P.W.Q.Q.U.z.h.r.h.8.Z O @ 6 l l l l z z l l l l l l l l l l ",
"l l l l l l l l l l l l l l l l 3 + ; { m.-.0 > ] v.T.E.Q.Q.Q.!.G.G.P.W.Q.Q.T.L.h.h.h.8.Z O @ 6 l l l l l z l l l l l l S l l l ",
"l l l l l l l l l l l l l l l l 3 + ; { m.-.0 % _ j.L.U.Q.Q.W.!.G.G.!.W.Q.W.T.l.h.r.h.8.Z O @ 6 l l l z l l l l l l l l l l l l ",
"l l l l S l S l l l l S l l l l 3 o ; { m.>.P f ] w.z.T.W.W.W.!.G.A.P.W.Q.Q.T.z.h.e.h.8.Z O @ 6 l l l l S l l l l l l l l l l l ",
"l l l l l l l l l l l l l l l l 3 o ; { m.p.| } %.e.l.U.Q.Q.Q.F.N./.D.R.Q.Q.T.z.h.h.h.8.Z o @ 6 l l l l l l l l l l l l l l l l ",
"l l l l l l l l l l l l l l l l 3 + ; [ m.C.C.B.H.r.l.T.Q.Q.W.D././.V.W.Q.Q.E.z.h.h.h.8.Z O @ 6 l l 6 l l l l l S l l l l S l l ",
"l l l l l l l l l l l l l l l 6 3 , 4 U | 1.m.A.B.y.c.R.W.W.W.n.i.p.n.W.Q.Q.T.z.h.h.h.8.Z O @ 6 l l l l l l l l l l l l l l l l ",
"S l l l l S l l l l l l l l l l l k 3 3 a Q 2.Z.a.u.a.I.Q.W.W.K.e.y.J.W.W.W.T.z.h.r.h.8.A O # k l l l l l l z l l l l l l l l l ",
"l l l l l k l l k l l l l l l l l z k & o J >.2.3.:.4.x.b.I.E.U.z.l.L.W.W.E.U.z.r.e.0.X.B $ : u l l l l l l l l z l l l l z l l ",
"l l l l l l l l S l l l l l l l l l 6 6 2 d I U I Y I E ' s.Y.W.L.L.T.W.U.L.l.k.r.6.^ B g 3 k l l l l l l l l l l l l z l l l l ",
"l l l l l l l z D S l l D D l l l l l l l 3 # o O O O O y O.I.Y.E.T.Y.Y.K.l.h.h.w...y @ 3 l z F F l l l l l l l l l l l l l l z ",
"l l l l l l l S D D z z D D l l l l l l l 3 & @ X X O ; f W &.&.&.&.&.&.=.w.w.7. .H t , k l S S F l l l l l l l l l l l l l l l ",
"l l l l l z S D S z D D z l D D l l l l l k k 3 = X 7 C A b y y i i i i H 8.0.( q q u 6 k l S l l l l l l l l l l z l l l z l l ",
"l l l S k S D D l l D D l l S S l l l l l l l k : o 9 ! ^ h $ O X   X O h ..#.B @ # 6 l l l l l l l l l l l l l l z l l l l l z ",
"l l l l l l l l l l l z l S l l l l l l l l l k # X 9 ! ^ ! n 9 O o $ 8 f B B g < 3 k l l l l l l l l l l l l l l l z l l l l l ",
"l l l l l l l l l l l l l l l l k l l l l l l 6 & X 9 ! / / ^ M % o 8 w 9 $ @ < k l l l l l l l l l l l l l l l z l l z l l l z ",
"l l l l l l l l l l l l l l l l l l l l l l l 6 & o f ` X. ./ C % X 8 e 9 o X < k S l l l l l l l l l l l l l l l z l l l l l l ",
"l l S l l l l l l l l l l l l l l l l l l l l k & o J ,.t.%./ C % o 8 w q O o 1 k l l l l l l l l l l l l l l l l l l l l l l l ",
"l l l l l l l l l l l S l l l l l l l l l l l k & X I 1.B.%. .A % o 9 r q O o 1 k l l l l l l l l l l l l l l l z l z l l l z l ",
"l l l l l l l l l l l l l l l l l l l l l l l 6 & o P <.Z.i.=.) 7 o s c d O o 1 l S l l l l l l l l S l l z l l l z l l l l l l ",
"l l l l l l l l l l l l l l l l l l l l l l S 6 & o P <.Z.Z.N.} 0 o 5 L K + o 1 k l l l l l l S l l l l l l l l l l l l z l z l ",
"l S l l S l l l l l l S l l S l l l l l l l l 6 < # j [ | -.| Q K - 5 K 5 # # 3 l l l l l l l l l l l l l l l l l l l z l z l l ",
"l l l l l l l l l l l l l l l l l l l l l l l S k k u p a 0 t i K K 4 = # 3 6 l l l l l l l l l l l l l l z l l l z l l l l l l ",
"l l l l l l l l l l l l l l l l l l l S l l l l 6 6 < @ . O O * L L 2 X @ 6 l l l l l l l l l l l R l l l S l l l l l l l l l z ",
"l l l l l S l l l l l l l l l S l l l l l l S l 3 & & * 8 8 8 9 c x * X @ 3 l l l l l l l l l l l l l l l l l l l l z l l l l l ",
"l l l l l l l l l S l l l l l l l l l l k l l 6 & o $ w e e e e r w % o @ 6 l l l l l l l l l l l l l l l l l l l l l l l l l l ",
"l l S l l l l l l l l l l l l l l l l l l l l 6 & . o 8 9 9 9 9 9 8 & # < 6 l l l S S l l l l l l l l l l l l l l z l l l S l l ",
"l l l l l l l l l l l l l l l l l l l l l l l k # . . o O O O O O @ , 3 6 l l l l D D l l l l l l l l l l l l l l l l l l l l l ",
"l l l l l l l l l l l l l l l l l l l l l l l 6 & o . . . . . .   o , l l l l D D l l D D l l l l l l l l l l l l l l l l l l l ",
"l l l l l l l l l l l l l l l l l l l S l l l l k k k k k k k k k k k z l l z D D l l D S l l l l l l l l l l l l l l l l l l l ",
"l l l S l l S l l l l l l l F F l l F F S k l l z z z z z z l z l z z z l l l l l l l l l l l l l l l l l l l l l l l l l l S l ",
"l z l l l l l l l l l l l S F F S S F F S l l l l l l l l l l l l l l l l l l l l l l l l l l l l l l l l l l l l l l l l l l l ",
"z l l l l l l l S l l l F F S l F F S z F F l l l l l l l l l l l l l l l l l l l l l l l l l l l l l D D l l D D l l l l l l l ",
"l l l l l S l l l l l l F F l l F F l l F F z l l l l l l l l l l l l l l l l l z l l l l l l l l l z D D z l D D l l l l l l l ",
"l z l l l l l l l l l l S l l l l l l l l z l l l l l l l l l z l l l l l l l l l l l l l l l l l D D z z D D l l D D l l S l l ",
"z z l z l l l l l l l l l l l l l l l l l l l l l l l l l l l l l z l l l l l l l l l l l l l l l D D l l D D l l S D l l l l l ",
"l l l l l l l S l l l l l l l l z l l l l l l l l l l l l z l l l l l l l l l l l l l l l l l l l l l l l l l l l S l S l l l l ",
"l z z l l l l l l l l l l l l l l l l l l l l l l l l l l l l z l l l l l l l l l l l l l l l l l l l l l l l l l l 6 S l l l l ",
"l l l l l l l l l l l l l l l l l l l l l l l l l l l l l l l l l l z l l l l z l l l l l l l l l l l l l l l l l l l l l l l l "
};
