/* XPM */
static char *result[] = {
/* columns rows colors chars-per-pixel */
"64 64 186 2 ",
"   c #1F0627",
".  c #1F0428",
"X  c #2A0A27",
"o  c #220529",
"O  c #250A2A",
"+  c #2A0C2C",
"@  c #310F2D",
"#  c #27102B",
"$  c #2B132B",
"%  c #2E1A2D",
"&  c #33132C",
"*  c #3A152C",
"=  c #321D2E",
"-  c #3A1C2D",
";  c #310F33",
":  c #2F1933",
">  c #341235",
",  c #391537",
"<  c #351D35",
"1  c #3E173C",
"2  c #3D1A39",
"3  c #35232F",
"4  c #38262F",
"5  c #39292F",
"6  c #362332",
"7  c #3B2532",
"8  c #3B2B31",
"9  c #392138",
"0  c #3C2D3D",
"q  c #3F3131",
"w  c #3D303E",
"e  c #451C2B",
"r  c #4A1E2B",
"t  c #451C31",
"y  c #451C3D",
"u  c #4D212E",
"i  c #52232C",
"p  c #58262B",
"a  c #5D292C",
"s  c #482836",
"d  c #4B2C34",
"f  c #442D3D",
"g  c #532532",
"h  c #522F36",
"j  c #5C2D32",
"k  c #57273C",
"l  c #413433",
"z  c #473D35",
"x  c #483E35",
"c  c #4F353D",
"v  c #4D3F39",
"b  c #50363D",
"n  c #5A3C3E",
"m  c #622C2D",
"M  c #65302F",
"N  c #6A312E",
"B  c #632E35",
"V  c #633137",
"C  c #6B3233",
"Z  c #663138",
"A  c #6A343A",
"S  c #643E3D",
"D  c #6B393B",
"F  c #763832",
"G  c #7C3C35",
"H  c #71363B",
"J  c #743A3D",
"K  c #4A4036",
"L  c #4D4239",
"P  c #52463B",
"I  c #78413F",
"U  c #3E3140",
"Y  c #492941",
"T  c #4F2944",
"R  c #502646",
"E  c #532549",
"W  c #532C49",
"Q  c #5B2A4C",
"!  c #4C3740",
"~  c #4D3C45",
"^  c #5D3343",
"/  c #602F4E",
"(  c #64324D",
")  c #663848",
"_  c #6E3B4E",
"`  c #773A48",
"'  c #7E3F4C",
"]  c #622E52",
"[  c #6C3456",
"{  c #7D3E56",
"}  c #743A5D",
"|  c #7B3F5E",
" . c #4F4148",
".. c #564749",
"X. c #57484A",
"o. c #594A4B",
"O. c #5C5553",
"+. c #595656",
"@. c #684240",
"#. c #6E4D4B",
"$. c #734A44",
"%. c #7B4F49",
"&. c #695E57",
"*. c #615E59",
"=. c #66675F",
"-. c #676960",
";. c #6A6A61",
":. c #726C60",
">. c #803F35",
",. c #834036",
"<. c #8B463B",
"1. c #934A3C",
"2. c #9A4F3D",
"3. c #9E513E",
"4. c #8A4646",
"5. c #964E43",
"6. c #85594E",
"7. c #9B5144",
"8. c #884556",
"9. c #954D53",
"0. c #954F5E",
"q. c #A25444",
"w. c #A85741",
"e. c #A95947",
"r. c #B45F48",
"t. c #A35E5E",
"y. c #B76147",
"u. c #BB6247",
"i. c #BE654B",
"p. c #B5694E",
"a. c #B66A4E",
"s. c #88466A",
"d. c #8E496D",
"f. c #975161",
"g. c #954F71",
"h. c #9C5273",
"j. c #A15674",
"k. c #A45973",
"l. c #A2577B",
"z. c #AB5C7F",
"x. c #B05F7E",
"c. c #A66664",
"v. c #B9676C",
"b. c #AC6276",
"n. c #B66779",
"m. c #B8697A",
"M. c #BC7273",
"N. c #C1664C",
"B. c #C26A4E",
"V. c #CC6E4E",
"C. c #CF704F",
"Z. c #D4724F",
"A. c #CA6F52",
"S. c #CA7251",
"D. c #C07C55",
"F. c #D37352",
"G. c #DA7651",
"H. c #DD7852",
"J. c #DA765C",
"K. c #DE795E",
"L. c #E57D54",
"P. c #E97F55",
"I. c #E17B5D",
"U. c #C56B71",
"Y. c #CA6E74",
"T. c #CE7D7E",
"R. c #CA8458",
"E. c #C28C5D",
"W. c #D5845E",
"Q. c #D78A5A",
"!. c #D98D5C",
"~. c #CD925F",
"^. c #EA8156",
"/. c #EB8759",
"(. c #E38D5B",
"). c #EA8A59",
"_. c #EA935D",
"`. c #EA9760",
"'. c #E99B61",
"]. c #E7A365",
"[. c #EAA365",
"{. c #EAA967",
"}. c #EAAE6A",
"|. c #EAB06B",
" X c #AC5D80",
".X c #B66283",
/* pixels */
"z z z x z z z x z z z z z z x z z x z z z z K z z z z z z z z z z z z z z K z z z z z z z z z z z z z z z z z z z K z K z z z z ",
"z z z z x z z z z z x z z z z z z z z z z z z z z z z z z z z z z z z z z z z z z z z z z z z z z z x z z z z z z z z z z z z z ",
"z z z z z z z z z z z z z z z z z z z z z z z z z z z z z z z z z z z z z z z z z z z z z z z z x z z z z z K z z z z z K z z z ",
"z x z z z z x x z x z z z z x z z z z z z z z z z z z z z x z z K z z z z z z z z x z z z z z z z z z z z z z z z z z z z z z z ",
"z z z z z z x z z z z z z z z z K x z z z z z z z z z z z z z z z z z z z z z z z P P z z z z z z z z z z z z z z z z z z z z z ",
"x z z z z x z x z z z z z x z z l z z z z z z z z z z z z z z z z z z z z z z z x P P K z z z z z z z x z z z z z z K z z z z z ",
"z z z z z x z z z z z z x z z z x z x z L L z z L L z z z z x z z z z z z z z P P K x P L z z z z z z z K z z z z z z z z z z x ",
"z z z x x z x z z z z z z z z z x z z z L L z z L L z z l z z z z z K l z z z P P z z P P K z z x z z z z z z z z z z x z z z z ",
"z z z z z z z z z z z z z z z z l z L L z z L L K K L L K x K x z K z K x x x K K z z x z z z z x z z z x z z x z z z z z z z z ",
"z z z z z z z z z z z z z z z z z z L L z z L l % % < < % % % % % % % % % : % % 3 8 z z z z z z z z z z z z x z z z z K z z z z ",
"z K z z  .z z z z z z z z z z K z z z z z z l 5 O o o o o o o o o o o o o o o o O 4 z z K K z z z z z x x z z z z z z z z z z z ",
"z z z z z z z z z z z K z z z z z z z z l q 5 d j V B B B B B B B B B m B B B B j d 5 8 l z l z z z z z z x z z x z z z z z z K ",
"z z z z z z z z z z z z z z z z z z z z l = & Z e.N.i.i.i.i.i.i.i.i.i.i.i.i.i.i.q.j # 3 l z z z z z z z z z z z z x z z z z z z ",
"z z z z z z K z z z z z z z z z z z l l l - e $.F.)./.).).).).)./.)./././././.).A.$.e 7 l l z z z z z z z z z z z z x z z z z z ",
"z z z z z z z z z z z z z z z z z z 8 < s A 5.p.!.'.'.'._._.[._.'.'.'.'.'.'.`.'.!.p.4.D 7 3 5 z z z z z z z z z z z z z z z K z ",
"z K z z z z z z z z z z z z z z z z 5 $ r 5.H.(.{.}.{.}.}.}.}.}.}.{.}.{.}.}.}.{.'.(.Z.5.t + 5 z z z z z z z z z z z z z x z z z ",
"z z z z z z z z z z z z z z z z 8 8 d j $.a._.'.}.}.|.|.|.|.|.|.|.|.|.|.|.|.|.|.}._.(.p.` j d 5 8 L P x z P P z z z z z z z z z ",
"z z z z z z K z z z z x z z z q 3 $ V e.S.!.[.{.}.}.}.}.}.}.|.}.}.}.}.}.}.|.}.}.}.}._.Q.S.q.j $ 6 x P x K P P K z z z z z z z z ",
"z z z z z z z z z z z x z z z q $ + H S._.'.}.|.}.}.|.}.|.|.|.|.|.|.|.|.|.|.|.}.}.|.}.[.).B.A O 6 l K P P K K P P z z z z z z z ",
"z z z z z z z z z z x x z z z 8 % + I R.[.{.}.|.|.|.}.|.|.|.|.|.|.|.|.|.|.|.}.|.}.|.|.[.[.D.) O < l x P P z z L P z z z z z z z ",
"z z z z z z L P z x P P z z z q $ # $.~.}.}.}.|.}.|.|.}.|.|.|.|.|.|.|.|.|.}.|.|.|.|.|.|.|.E.@.+ % q z z z z z z z z z z z z z z ",
"z z z z z K P P x K P l 5 8 6 6 # O $.~.|.|.|.}.|.|.|.|.|.|.|.|.|.|.|.|.|.|.|.|.|.}.|.}.|.E.@.O # 4 8 5 5 5 z z z z z z K z z z ",
"z z z z P P K K P P x = O $ O O o # $.~.|.}.}.|.}.|.|.|.|.|.|.|.|.|.|.|.|.|.|.|.}.|.|.}.|.E.@.O   O # # $ 3 l z z z z z z z z z ",
"z z z K P P z z P P z # . O > > > 2 6.~.{.}.|.|.|.|.|.|.|.|.|.|.|.|.|.|.|.|.|.|.}.|.}.}.{.E.$., > > ; O o % q K z z z z K z z z ",
"z z z z z K z z z z z # o y [ } } | t.W._.{.|.|.|.|.|.|.|.|.|.|.|.|.|.|.|.|.|.|.}.|.}.].'.W.f.| } } ] 1 O % q z l z z z z z z z ",
"z z z z z z z z z z z # o Q g. Xz.x.U.I.).].}.|.|.|.|.}.|.|.|.|.|.|.|.|.|.|.|.}.|.|.}.'.).K.U. X Xz.d.E O % q K z z z z z z z z ",
"z z z z z z z z z z K = = T } d.l..XY.I.).'.}.|.|.|.}.|.|.|.|.|.|.|.|.|.|.|.|.|.}.|.}.'./.K.Y..Xl.d.} f % 5 l K z z z z z z z z ",
"z z z z x z z z z K z q 8 0 2 E d.m.Y.I.).'.|.|.}.}.|.|.|.|.|.|.|.|.|.|.|.}.|.}.}.|.{.'./.K.Y. Xs.R 2 8 q q l z z z z z z z z z ",
"z z z z x z z z z q K K q 8 # 2 } j.U.J.^._.{.{.}.}.}.|.}.}.}.|.}.|.}.}.}.|.}.}.}.{.{.`.^.J.v.h.[ > $ 8 z z z z z z z z z z z z ",
"z z z z z z z z K K q z K q 5 5 T ] 9.F./.)._.[.}.|.|.|.|.|.|.}.|.}.|.}.|.|.|.|.}.'.`.).^.A.9.] R 7 5 q z z l K z z z z K z z z ",
"z z z z z K z z z z z z z q K q = & J V.^.^./._.[.|.}.}.}.}.}.|.}.}.}.}.}.}.}.}.{.).^.^.^.B.A @ = q z z z z z z z z z z z z z z ",
"z z z z z z z z z z z z K z z q $ + H V.^.^.P.)._.[.[.'.{.}.}.}.}.}.}.}.[.].].].'.).^.P.P.N.V O % q z z z z z z z z z K z z z z ",
"z z z z K z z z z z z z z z z l $ + H V.P.P.P.^.).).).)._.{.|.}.|.|.}.{._.).).)./.^.^.P.^.N.C O = q z z z z z z z z z z z z z z ",
"z z z z z l z z z z z z z z z l = $ A r.F.L.P.P.P.P.P.^._.[.{.}.{.}.{.[._.^.^.^.P.P.P.H.F.e.V # = l z z z z z z z z z z z z z z ",
"z z z z x z z z z z z z z z z l 5 7 h C 4.N.L.P.P.P.^.P.)._._._._._._._.^.^.^.^.P.^.L.u.4.A h 7 5 z z z z z z z z z z z z z z z ",
"z z x z z z z z L L z z L v z z z l 7 + g q.L.P.P.P.^.P.^.^.^.^.^.^.^.^.^.P.^.L.P.P.G.7.t $ 8 v L z z z z z z z z z z z z z x z ",
"z z z z z z z z L L z z L L K l q 5 3 & u <.r.C.L.^.P.P.P.P.P.P.P.P.P.P.^.^.P.P.H.V.r.,.e & 3 l z z z z z z z z z z z z z z z z ",
"z z z z z z L L z z L L z z L z = # * r a C >.w.Z.^.^.^.^.P.^.P.^.P.^.^.^.^.^.^.Z.w.G N p r * # 3 l z z z z z z z z x z z x z z ",
"z K z z z z L L z z L L z z L l $ O * B Z m m <.u.F.Z.Z.H.P.^.L.P.P.P.L.H.Z.Z.V.y.,.a a C j * O $ q z z z z z z z z z z z z z x ",
"z z z z z z z z z z z z z z z q % O y 8.8.A m N H >.<.3.y.H.^.^.P.^.^.G.y.2.<.G H M m ` 8.{ y O = l z z z z z z z x z x z z z z ",
"z z z z z z z z z z z z z z z q $ + Q h.j.' m r @ & i N 2.Z.^.^.P.P.L.V.1.M i & & r m 4.k.g.R O % q z z z z z z z z z z z z z x ",
"z z z z z z z z z z z z z z K q $ + / b.n.0.` k + X e m ,.w.u.u.u.y.u.w.I a e o @ k ' f.m.k.Q O % q z z z z z x z z K z z z x z ",
"z z z K z z z z z z z z z l z q % + ) M.T.n.h.[ > X r a N F G G G G G F N a e X , } j.m.T.n.^ O % q z z z z z z z z z z x z z z ",
"z z z z z z z z z z z z z z z q % $ ) c.M.b.h.} 2 $ u a a j a j j j a a a j u $ y } h.b.M.c.^ # 6 q z z z z z z z x z z z x z x ",
"x z z z z z z z z z z z z z z q 8 6 ! ) _ ( ] E f f b n n n n ^ n n n n n n b f Y W ] ( _ ) s 5 8 q K K z z z z z z z z x x z z ",
"z x z z z z z z z z z z z z z z z l 7 $ + O + 7 ~ ....o.X.X.X.....X.o.o.X.X.X.X.~ 9 O O + : 8 q z z z z z z z z z x z z z z z z ",
"z x z z z z z z z z z z z z z z z z 5 % # O o <  .o.O.+.+.+.O.~ c  .+.+.O.+.O.o.~ :   O # % q z K K z z z z z z z z z z z z z x ",
"x z z z K z z z z z z z z z z z z z z q 5 # O 9  .o.=.;.;.;.+.U : U *.;.;.-.*.o.~ : O % 8 q z z z q z z z z z z x z x z z z z z ",
"z x z z z x z z x z z z z z z z z z z z q $ O 3 v o.&.:.;.-.+.U # U +.=.:.:.&.o.c : # % q z z z K K K q z z z z z z z z z z z z ",
"z z z z z z z x z x z x z x z z z z z z q % O * h S %.6.#.~ 0 5 6 8 U ~ #.6.%.S d =   % q K q z q K K K z z z z z z z z z K z z ",
"z z z z z z z z z x z z z z z z z l z z q % O & i C ,.1.C & $ 5 l 6 + * C 1.G m i &   % q K z z K q K z K K z z z z z z z z z z ",
"z z z x x z z z x z x z z z z z z z z z l 3 % * e i B C p = = q z 8 = - j C B i e = 3 5 q K z z K z z z K q K z K z z z z z z z ",
"z x z x z z x z z z z z z z z z z z z z z l 5 3 $ X & * - 5 q l z l q 5 - * & + $ 7 l l z z z z K z z z z z z z z z z z K z z z ",
"z z z z z z z z z z z z z z z z z z z z z z z 3 + o   o % z K l z z z l $ o o . $ 5 z P K z z z z z z z z z z z z z z K z z z z ",
"z z x z z z z z z x z z x x z z z z z z z z z z l l l l l z z z z z z z l l l z l z z L K K z z z z z z z z z z z z q K K z z z ",
"z z z z z x z z z z z z z x P L z z P P z z z z z z z z z z z z z z z z z x z x x z z x z K q z z z z z z z z z z z z z z z z z ",
"z z z x z z z z z z z z z K P P K K P P z z z z z z z z z z z z z z z z z z z l z z z z z q z z K K z z z K q K z z K K z z z z ",
"z z z z z z x z z z z z L P K x P P K K P P z z z z z z z z z z z z z z z z z z z z z z K K z z K w K K L K K L K z q z z z z z ",
"x z z z z z z z z z z z P L z z L P z z P P z z z z z z z z z z z z z z z z z z z z z z z K z z q K K K L K K L K K K z z K z z ",
"z z z z z x z z z x z z K x z x K z z z K z z z z z z z z z z K z z z z z z z z z z z z z z z z K L L z K K L K K L K K z z z z ",
"z x z z z z z x z z z z z z z z z z z z z z z z z z z z z z z z z z z z z z z K z z K z z z z z K K K K z K L q z L K z z z z z ",
"z z z z z x z z z z z z z x z z z z z z z z z z z z z z z z z z z z z z z z z z z z z z z z z z z z z K z z K K z z z z z z z z ",
"z z z z z z z z z z z x z z z x z z z z z z z z z z z z z z z K z z z K z z z z z z z z z z K K K q q K z z z z z z z z z z z z ",
"z z z z z z z z z z z z z x z z z z z z z z z K z z z z z z z z z z z z z z z z z z z z z K q K K z K K z z z z z z z z z z z z "
};
