/* XPM */
static char *result[] = {
/* columns rows colors chars-per-pixel */
"64 64 90 1 ",
"  c #13110F",
". c #151412",
"X c #1A1614",
"o c #151B16",
"O c #1C1917",
"+ c #171E18",
"@ c #1C1C19",
"# c #231D1B",
"$ c #1C211B",
"% c #25211E",
"& c #28211F",
"* c #261F20",
"= c #262320",
"- c #2B2523",
"; c #272821",
": c #2C2A25",
"> c #2F2729",
", c #2F2928",
"< c #312726",
"1 c #322A26",
"2 c #342C2B",
"3 c #392E2B",
"4 c #36322B",
"5 c #3B332D",
"6 c #3B392F",
"7 c #372F30",
"8 c #382F30",
"9 c #373031",
"0 c #3B3332",
"q c #3E3A33",
"w c #40362F",
"e c #413633",
"r c #473D35",
"t c #483E36",
"y c #453B38",
"u c #4B3E3A",
"i c #424037",
"p c #4B4037",
"a c #46423A",
"s c #4D423C",
"d c #4B4A3E",
"f c #52463C",
"g c #54483D",
"h c #4E4740",
"j c #4D4B41",
"k c #514740",
"l c #524C42",
"z c #584E46",
"x c #4E5043",
"c c #545246",
"v c #595047",
"b c #565549",
"n c #5A564A",
"m c #57594A",
"M c #5B5C4D",
"N c #615C4F",
"B c #625F50",
"V c #5E604F",
"C c #5E6150",
"Z c #636353",
"A c #696656",
"S c #666956",
"D c #696957",
"F c #6C6C5A",
"G c #716D5C",
"H c #6E705C",
"J c #72725E",
"K c #747561",
"L c #797663",
"P c #777963",
"I c #7B7C66",
"U c #7D7E68",
"Y c #817E69",
"T c #7E8069",
"R c #83846C",
"E c #88876F",
"W c #86886F",
"Q c #8C8771",
"! c #878970",
"~ c #8B8C73",
"^ c #908F76",
"/ c #8F9176",
"( c #909277",
") c #939579",
"_ c #96987B",
"` c #999A7E",
"' c #9C9E81",
"] c #9FA082",
"[ c #A2A385",
"{ c #A6A888",
/* pixels */
"rtrrrrrrrrrprrrrrrtrtrrrrrrrrrrrprrrrrrrrrrrrrrrrrwprrrrprrrrrrr",
"rrtrrrrprrrrrrrrrrrrrrtrtrrprprrrrrrrprrrrrrrrprrrrprprrrrrrprrr",
"rrrrprrrrprrrrprrtrrtrrrrrrrrrrrrrrrrrrrrrrrrr3rrrrwrrrrrrrrrrrr",
"trtrrrrrrrrrrrrrrrrrrrtrrrrrrrrrrrprrrrrrtrtr5i5rrrprrrrrrprrrrp",
"rrrrrprrrrrrprrrrrrrrrtrrrrrrrrprrrrrrrrtffteqZawrrrrrrrrrrrrrrr",
"rrrtrrprrrrprrrrrtrrrrrrrrrrrrrrrrprrrrrpffr<cCP1wrrrwprrrrrrprr",
"trtrrrrrprrrrrrrrrrrpptrsfrrrrrrrrrrpwpfftp5-2l(F1prrrrrprrprrrr",
"rrrrrrtrrrrrrrprrrrtfpttppprrrrrprrppwpfft555,aP)f3prrrrrrrrrrpr",
"rrrrrrrrrrrrrrrrrrppt5wsttsprrtrwrwprrrrt6&w27ycRv1prrrrrrrrrrrr",
"rprrrrprrrprrrrprrpfw-55rtsprrrrpprrrrrrr<w320ubBf1wrrrrrrprrrrp",
"rrrrrrrrrrrrrrrrttrt1&l23prrrrrtr5rrrrrtw<3-#-ysgs3wrrrrprrrprrr",
"rrrprrrrprrrrrrrerr511Ga1prrrrpwrJwwrrrt53#X..&2555wrrrrrrrrrrrr",
"rrrrrrrprrrprrrrrrw:e4Hd3prrrrr&M{g6prrw<-==,45jmcd5rprrprrrrrrr",
"prrrrrrrrrrrprrrrr5&<,iVrrrrrt5-BJI3wtp1:&#2aKUK/(Rr3rwprrrrrrpr",
"rrrpprrrrrrrrrrrrr&@&-pg56rrrw&&1c_A<p6&<--37hALY!Je1prrrwrrrrrr",
"rrrrrrrrrprrrrrrrr--##<<rr5rp<<-5cJ/aw3#-2-37yuyrcc54prrrprrprrr",
"rrrprrrrrrrrrrrrrw%&149SWq5p<#-2qubRs55O>8>20essuMne4gfrrrrrrrrt",
"rprrrrrrtrtrrrrpw#%%&0yMUs1:O1&20umBe--#O>#275upug05rrgrrrrrrrrr",
"rrrrrrrrrrrrrrr5#O%%*3uur2-X:&&#>yah3O--XX@-ql2e25cdd5rggtrrrprt",
"rrrrrrrprrrrrw54igdg022<ac1#3OX X*4:2,-&-#O2mFz-dZ[Jbp3gfrrrrrrr",
"rrrrrrffttffe6MSFMCCCci4cY<->#-qeqmMMl#>3>#2aFResA~~v54prrrrrrrr",
"rrrprpfftpffr-aH/HMMVCCVS5#>&=2yPIP))Ye&0=->>M'F6mUJf51prrrrrrrp",
"rrwpffppfftps:0jK`RZCMC/!#=,--77kBGJUZe&-<e28hF~qsHMu-#rrrrrrrrr",
"rprpfsrrfftp1532jI[KmP)Lv<#>2-70yueybk5@@0<5qpVG05eq50d&5rrrrrrr",
"rprrpprrrpwp&e3&2bPFR'LbV<X<7-27uuufVveO-e--0umvs-4BMMk<%pppwrpr",
"rwrrwrrrrrrp&w0&-qM)(NsAZ5;#-*27eussa300-##X-8ey5ym~Ufue%45rprrr",
"rrrrprrrrpr5<e1&*>qLF54yjZcXX#238e3<eScl3#@OX-aiyeaG[Myu1$$wpwrr",
"rprrrrrrrwp43y-#*>7jMyxbCbs5@@*-22ejH[HMa#4jAMSKJM3n~Yss4o1pprrr",
"rrprrrrrrrp%1w<&#-02JFMCbllsee090uszZ(Rd5#8yJIE_`J3emFg3%%wpwrpr",
"rrrrrrpprrrXO--#O*9>Z~PMMMMMky7-2alsscpe--90uzzzZl3esp1$$$:pprrr",
"rrrrrrrwrrr%X#OX#*23hnRSMcsMbcj29MCCLIVxd220uuyfml3ep1%$$44wrrrr",
"prrrrprrrrw&5#XO.#7<AFvIKmMCMMMhlMcMH]WVMJA2uuulMu55%$$:wiprrrrr",
"trrrrrrrrp<&u<#<#X#<Q~uuFRIIRIDZZMazmFFMF'G>esy063ay@+:rtrrrrrrr",
"rrrrrrrrrp&&u1#<2-@eI!suSLyyvLFGURHKFmC/)Nf<2323BRbc5:trrrrrrrrr",
"rrrrrrtrrt-3f2&&*7=0BUkuba770*#22scFFI((NBn130hMP'Jc55prrrrrtrrr",
"rtrrrrrtpf-0e>&#-7-ukVkuy70e<#-e<#>qF]Phs^Y-:uulC/Gp:5trrrrrrrrr",
"rrrrtrrtsrO58-O#2--3ylfuu070<#2e<-*2hRNyh/U2:vcnCUvu&1prrrrrrrrt",
"rtrttepsp5O38-X#><dq9333>70>#O80&**27nMylTM51Mlulba<;45rrrrrrrrr",
"rrrrttppt&X#>#X#>qU(FMMc*#>*X.38-#*>07uulAle:tyy22pdMa@4rrrrrtrt",
"rrrrtttp5-&X#X##2C)]'RRA#XO@@.#--#O>08uukzue-&#&6Z!Zfu-,rrrrrrrr",
"rrrrr66w&-y-#X@#c/~HFsye>*<8>XO#X@#>7730ee560XOqzM~Uupi%%:pwpprr",
"rrrp5%$$X3u<#X-*J/MMcupy70y9&#e<#O X>*%yqimMl<elusK'Mrf&$1pwwprr",
"prrrp4$O#y02&##eHScnuusu7yue@2y<03#.*27hcP/HleeusyzIJup%%ipprrrp",
"rrrw:&$O#290<#XdChusuuuu78yqO3y#-ey2*>28ez~_vu3epuulv3$$%ipwrppw",
"pwpp4o$oX#-->##cluuuuq8099e9&yy>#-3u0220ykR/la3efuuu4%$$%:rrwrrp",
"ppwwp4%o#XX#&#ehuuyy8>-2,207&y7-##>euy8yucFBuse3uue2%$%4irrrprrr",
"rwpppi$O#-O@##3>8032-X##2<9-#y2%##380yuuuzMMsuu2@%=@$%rpprrrrprr",
"ppwpwi%..#&&&<4q<>-#*XX 9e-*#52&##287euyuulZcufeO+$$%wrpwrpwrrrr",
"rrrprpw:$oO$%gSJNj3>##.@6q4@ &-OX*778eeeuufZcusp2<66rrrrrrrrrrpr",
"rrwrp4&;$$o$@g_)SVbc3aaxMMCc4OOO#-779>8uuuulkuuyy-ttrrrrrrrrrrrr",
"prprww6%%54$&R_SkyynqjSMMCMCCqXO##-00>2uuuuuu314:&wtrrrrrrrrrprr",
"rrrrrpprpi4$e!Sdu87q=5mFFmMVVVd;O-O#=#-2uy223ecVms%4rrrwrrrrrrrr",
"rrrrrrppp%+%fGguuue2>e0MPKCCMMZ,X87>70e3<30sG`~SVs%$=qrrrrrrrrrp",
"rrrrrrwrp1$$&erufuk>5e-9C`SCKKMa#-2007elcMCR]`/npe$%qrrrrrrrrrrr",
"rprrrprrrr:+.@@&5wy23e#<yCP)~ZBA=#-780uahsZ~])Jluu2%eprrrrrrprrr",
"rrrrrrwprrq4;++o+@##5e--9j~~leFR9*-088u0eusbT[Tcssu@$4rrrrrrrrrr",
"rrrrrrrrrrrrr6::::$%t1&&-7bIss~(l&@880y89rusn!Wmpp5$$&rprrrrrrrr",
"rprrrrrrrrrrffpp6:o&y1&#>70bslIJs&O870yyrssuylc1&%.$:rrpprrrrrrr",
"rrrrrrprrrrpffppp% %9<-#*77qsumcu2#88-3ep556&%@o$o$&wprppprprrrr",
"rrrrprrrrrrrprrrpp1o#-@#O*3e3<5ee<#-#XXO%%%%%$$%$4pppffrppsrrrpr",
"prrrrrrrrrrrrrrrr4%$@O.@X#-#OOOO@...Xo++$$:116rwrssrrpfrppprwrrr",
"rrrrprrrrrrrrrrrr546;$@....O$$%%;%$%==$=45545rrrprrrrrrrrrprprrp",
"rrrprrrprrrrrrrrrrprrr4;:::4prrrprrrrrrrppprprrrrrrrrrwrrrrrrrrr",
"rrrrrrrrrrprrpwrrrrrrrrprppyrrrrrrrrrrrrrwrrrrrrrrrrrrprrrrrrrrr"
};
